<?xml version="1.0" standalone="no"?>
<!DOCTYPE svg PUBLIC "-//W3C//DTD SVG 20010904//EN"
 "http://www.w3.org/TR/2001/REC-SVG-20010904/DTD/svg10.dtd">
<svg version="1.0" xmlns="http://www.w3.org/2000/svg"
 width="600.000000pt" height="600.000000pt" viewBox="0 0 600.000000 600.000000"
 preserveAspectRatio="xMidYMid meet">
<metadata>
Created by potrace 1.14, written by Peter Selinger 2001-2017
</metadata>
<g transform="translate(0.000000,600.000000) scale(0.100000,-0.100000)"
fill="#000000" stroke="none">
<path d="M1059 5316 c-2 -2 -29 -6 -59 -10 -303 -33 -621 -273 -752 -566 -39
-88 -46 -110 -69 -205 -20 -89 -21 -105 -21 -1516 0 -784 3 -1450 7 -1480 26
-208 127 -406 292 -572 119 -120 266 -204 448 -254 l100 -28 1990 0 1990 0 95
23 c260 65 489 234 623 461 68 117 115 246 132 371 8 56 9 2872 1 2920 -67
397 -333 705 -707 820 -128 39 -121 39 -2130 39 -1065 0 -1938 -1 -1940 -3z"/>
</g>
</svg>
