<svg xmlns="http://www.w3.org/2000/svg" width="64" height="64" fill="none" viewBox="0 0 64 64">
  <g class="behance">
    <g class="behance" clip-path="url(#a)">
      <g class="border">
        <mask id="b" width="62" height="62" x="1" y="1" class="b" maskUnits="userSpaceOnUse" style="mask-type:luminance">
          <g class="4fefbe33d4">
            <path fill="#fff" d="M1 1h62v62H1V1Z" class="Vector"/>
          </g>
        </mask>
        <g class="Group" mask="url(#b)">
          <g class="Clip path group">
            <mask id="c" width="62" height="62" x="1" y="1" class="c" maskUnits="userSpaceOnUse" style="mask-type:luminance">
              <g class="cf00618f5c">
                <path fill="#fff" d="M12.958 1h38.079A11.96 11.96 0 0 1 63 12.963v38.08A11.96 11.96 0 0 1 51.037 63h-38.08a11.95 11.95 0 0 1-8.453-3.505A11.948 11.948 0 0 1 1 51.042V12.963A11.96 11.96 0 0 1 12.958 1Z" class="Vector"/>
              </g>
            </mask>
            <g class="Group" mask="url(#c)">
              <path stroke="#E0C481" stroke-width="12" d="M12.958 1h38.08A11.96 11.96 0 0 1 63 12.963v38.08A11.96 11.96 0 0 1 51.037 63h-38.08a11.95 11.95 0 0 1-8.453-3.505A11.948 11.948 0 0 1 1 51.042V12.963A11.96 11.96 0 0 1 12.958 1Z" class="Vector"/>
            </g>
          </g>
        </g>
      </g>
      <g class="b">
        <g class="Group">
          <g class="Group">
            <path fill="#E0C481" d="M11.093 20.228c0-1.457.276-2.467.829-3.02.564-.553 1.52-.83 2.871-.83h7.04c3.089 0 5.428.639 7.018 1.915 1.584 1.265 2.382 3.169 2.382 5.72 0 1.692-.314 3.095-.936 4.212-.611 1.122-1.526 2.052-2.743 2.786 1.345.553 2.36 1.361 3.04 2.424.681 1.053 1.022 2.42 1.022 4.105 0 2.924-.787 5.04-2.361 6.359-1.574 1.319-4.052 1.978-7.422 1.978h-7.04c-1.35 0-2.307-.266-2.871-.808-.553-.553-.83-1.558-.83-3.02v-21.82Zm5.04 8.72h5.062c1.659 0 2.897-.324 3.721-.978.835-.665 1.255-1.77 1.255-3.318 0-1.372-.436-2.36-1.297-2.956-.85-.596-2.121-.894-3.807-.894h-4.934v8.146Zm0 4.424v8.081h5.02c1.796 0 3.147-.319 4.04-.957.904-.648 1.361-1.808 1.361-3.466 0-1.372-.457-2.324-1.361-2.85-.893-.537-2.228-.808-3.998-.808h-5.062Z" class="Vector"/>
          </g>
        </g>
      </g>
      <g class="e">
        <g class="Group">
          <g class="Group">
            <path fill="#E0C481" d="M45.206 41.879c.808 0 1.515-.07 2.126-.213a12.69 12.69 0 0 0 1.595-.468c.468-.17.883-.324 1.255-.468a3.212 3.212 0 0 1 1.085-.212c.51 0 .936.164 1.276.489.35.33.532.776.532 1.34 0 .781-.298 1.435-.894 1.956-.585.51-1.297.915-2.148 1.212-.84.298-1.701.5-2.594.617-.894.112-1.638.17-2.233.17-1.633 0-3.137-.228-4.51-.68-1.376-.452-2.567-1.133-3.572-2.042-.994-.904-1.776-2.047-2.34-3.424-.552-1.372-.829-2.977-.829-4.806 0-1.66.202-3.153.617-4.488.425-1.33 1.063-2.478 1.914-3.445.861-.979 1.925-1.723 3.19-2.233 1.276-.521 2.749-.787 4.424-.787 1.6 0 2.998.25 4.19.744 1.201.484 2.195 1.165 2.977 2.042a8.322 8.322 0 0 1 1.765 3.02c.393 1.148.596 2.382.596 3.7 0 1.106-.293 1.952-.873 2.531-.568.57-1.552.85-2.956.85H39.144c.309 1.633.979 2.808 2 3.531 1.02.713 2.37 1.064 4.062 1.064ZM44.1 28.82c-1.35 0-2.42.362-3.212 1.085-.781.712-1.318 1.696-1.616 2.956h9.251c-.1-1.345-.531-2.35-1.297-3.02-.755-.68-1.797-1.02-3.126-1.02Z" class="Vector"/>
          </g>
        </g>
      </g>
      <g class="accent-mark">
        <g class="Clip path group">
          <mask id="d" width="13" height="6" x="36" y="18" class="d" maskUnits="userSpaceOnUse" style="mask-type:luminance">
            <g class="88c2468542">
              <path fill="#fff" d="M36.006 18.285h12v5.003h-12v-5.003Z" class="Vector"/>
            </g>
          </mask>
          <g class="Group" mask="url(#d)">
            <path fill="#E0C481" d="M53.722 4.993v18.668c0 .616-.122 1.212-.356 1.786a4.609 4.609 0 0 1-1.016 1.51 4.61 4.61 0 0 1-1.51 1.015 4.698 4.698 0 0 1-1.786.357H30.386a4.698 4.698 0 0 1-1.786-.357 4.608 4.608 0 0 1-1.51-1.015 4.61 4.61 0 0 1-1.016-1.51 4.801 4.801 0 0 1-.356-1.787V4.993a4.801 4.801 0 0 1 .356-1.786 4.61 4.61 0 0 1 1.016-1.51A4.608 4.608 0 0 1 28.6.68a4.697 4.697 0 0 1 1.786-.356h18.668c.617 0 1.212.122 1.786.356a4.61 4.61 0 0 1 1.51 1.016c.442.435.777.94 1.016 1.51.234.574.356 1.17.356 1.786ZM28.834 23.661c0 .207.037.404.117.595.08.191.191.356.335.505.149.144.313.255.505.335.191.08.388.117.595.117h18.668c.207 0 .404-.037.595-.117.192-.08.357-.191.505-.335a1.612 1.612 0 0 0 .458-1.1V4.992a1.611 1.611 0 0 0-.457-1.1 1.61 1.61 0 0 0-1.101-.458H30.386a1.612 1.612 0 0 0-1.1.457 1.611 1.611 0 0 0-.335.505c-.08.192-.117.389-.117.596V23.66Z" class="Vector"/>
          </g>
        </g>
        <g class="Clip path group">
          <mask id="e" width="13" height="6" x="36" y="18" class="e" maskUnits="userSpaceOnUse" style="mask-type:luminance">
            <g class="d4a8cb3aa6">
              <path fill="#fff" d="M36.182 18.285h11.824v4.956H36.182v-4.956Z" class="Vector"/>
            </g>
          </mask>
          <g class="Group" mask="url(#e)">
            <path fill="#E0C481" d="M47.496 20.55c0 .207-.037.404-.117.596a1.61 1.61 0 0 1-.335.505 1.61 1.61 0 0 1-.505.335c-.191.08-.388.117-.596.117h-7.778c-.207 0-.404-.038-.596-.117a1.61 1.61 0 0 1-.505-.335 1.61 1.61 0 0 1-.457-1.1c0-.208.043-.405.122-.596a1.552 1.552 0 0 1 1.436-.963h7.779a1.54 1.54 0 0 1 1.1.457 1.552 1.552 0 0 1 .452 1.101Z" class="Vector"/>
          </g>
        </g>
        <g class="Clip path group">
          <mask id="f" width="13" height="6" x="39" y="18" class="f" maskUnits="userSpaceOnUse" style="mask-type:luminance">
            <g class="b9abadbcdc">
              <path fill="#fff" d="M39.85 18.285h12v5.003h-12v-5.003Z" class="Vector"/>
            </g>
          </mask>
          <g class="Group" mask="url(#f)">
            <path fill="#E0C481" d="M57.56 4.993v18.668c0 .616-.116 1.212-.355 1.786a4.594 4.594 0 0 1-1.01 1.51 4.61 4.61 0 0 1-1.51 1.015 4.698 4.698 0 0 1-1.787.357H34.23a4.698 4.698 0 0 1-1.786-.357 4.61 4.61 0 0 1-1.51-1.015 4.61 4.61 0 0 1-1.016-1.51 4.698 4.698 0 0 1-.356-1.787V4.993c0-.617.122-1.212.356-1.786a4.61 4.61 0 0 1 1.016-1.51A4.61 4.61 0 0 1 32.444.68 4.697 4.697 0 0 1 34.23.325h18.668c.617 0 1.212.122 1.786.356a4.61 4.61 0 0 1 1.51 1.016c.436.435.777.94 1.01 1.51.24.574.357 1.17.357 1.786ZM32.674 23.661c0 .207.042.404.122.595a1.525 1.525 0 0 0 .84.84c.191.08.388.117.595.117h18.668c.207 0 .404-.037.595-.117.192-.08.357-.191.505-.335.144-.149.256-.314.336-.505.08-.191.116-.388.116-.596V4.993c0-.207-.037-.404-.117-.596A1.611 1.611 0 0 0 54 3.892a1.612 1.612 0 0 0-1.101-.457H34.23a1.53 1.53 0 0 0-.595.122 1.525 1.525 0 0 0-.84.84 1.53 1.53 0 0 0-.122.596v18.668Z" class="Vector"/>
          </g>
        </g>
        <g class="Clip path group">
          <mask id="g" width="12" height="6" x="40" y="18" class="g" maskUnits="userSpaceOnUse" style="mask-type:luminance">
            <g class="0a4717b344">
              <path fill="#fff" d="M40.265 18.285H51.85v4.956H40.265v-4.956Z" class="Vector"/>
            </g>
          </mask>
          <g class="Group" mask="url(#g)">
            <path fill="#E0C481" d="M51.34 20.55c0 .207-.037.404-.117.596a1.61 1.61 0 0 1-.335.505 1.543 1.543 0 0 1-1.1.452h-7.779a1.552 1.552 0 0 1-1.1-2.653c.143-.15.313-.261.505-.34a1.61 1.61 0 0 1 .595-.118h7.779c.202 0 .404.043.595.117a1.552 1.552 0 0 1 .957 1.44Z" class="Vector"/>
          </g>
        </g>
      </g>
    </g>
  </g>
  <defs>
    <clippath id="a" class="a">
      <path fill="#fff" d="M0 0h62v62H0z" transform="translate(1 1)"/>
    </clippath>
  </defs>
</svg>
