<svg xmlns="http://www.w3.org/2000/svg" xmlns:xlink="http://www.w3.org/1999/xlink" width="64" zoomAndPan="magnify" viewBox="0 0 48 48" height="64" preserveAspectRatio="xMidYMid meet" version="1.0"><defs><g/><clipPath id="4fefbe33d4"><path d="M 1.152344 0.660156 L 46.703125 0.660156 L 46.703125 46.210938 L 1.152344 46.210938 Z M 1.152344 0.660156 " clip-rule="nonzero"/></clipPath><clipPath id="cf00618f5c"><path d="M 9.9375 0.660156 L 37.914062 0.660156 C 40.246094 0.660156 42.480469 1.585938 44.128906 3.234375 C 45.777344 4.882812 46.703125 7.117188 46.703125 9.449219 L 46.703125 37.425781 C 46.703125 39.753906 45.777344 41.992188 44.128906 43.636719 C 42.480469 45.285156 40.246094 46.210938 37.914062 46.210938 L 9.9375 46.210938 C 7.609375 46.210938 5.371094 45.285156 3.726562 43.636719 C 2.078125 41.992188 1.152344 39.753906 1.152344 37.425781 L 1.152344 9.449219 C 1.152344 7.117188 2.078125 4.882812 3.726562 3.234375 C 5.371094 1.585938 7.609375 0.660156 9.9375 0.660156 " clip-rule="nonzero"/></clipPath><clipPath id="88c2468542"><path d="M 26.871094 13.359375 L 35.6875 13.359375 L 35.6875 17.035156 L 26.871094 17.035156 Z M 26.871094 13.359375 " clip-rule="nonzero"/></clipPath><clipPath id="d4a8cb3aa6"><path d="M 27 13.359375 L 35.6875 13.359375 L 35.6875 17 L 27 17 Z M 27 13.359375 " clip-rule="nonzero"/></clipPath><clipPath id="b9abadbcdc"><path d="M 29.695312 13.359375 L 38.511719 13.359375 L 38.511719 17.035156 L 29.695312 17.035156 Z M 29.695312 13.359375 " clip-rule="nonzero"/></clipPath><clipPath id="0a4717b344"><path d="M 30 13.359375 L 38.511719 13.359375 L 38.511719 17 L 30 17 Z M 30 13.359375 " clip-rule="nonzero"/></clipPath></defs><g clip-path="url(#4fefbe33d4)"><g clip-path="url(#cf00618f5c)"><path stroke-linecap="butt" transform="matrix(0.732479, 0, 0, 0.732479, 1.15102, 0.661226)" fill="none" stroke-linejoin="miter" d="M 11.995543 -0.00146103 L 50.189913 -0.00146103 C 53.373666 -0.00146103 56.424096 1.262441 58.674588 3.512933 C 60.92508 5.763425 62.188982 8.813855 62.188982 11.997608 L 62.188982 50.191978 C 62.188982 53.370398 60.92508 56.426161 58.674588 58.67132 C 56.424096 60.921812 53.373666 62.185714 50.189913 62.185714 L 11.995543 62.185714 C 8.817123 62.185714 5.76136 60.921812 3.516201 58.67132 C 1.265709 56.426161 0.00180696 53.370398 0.00180696 50.191978 L 0.00180696 11.997608 C 0.00180696 8.813855 1.265709 5.763425 3.516201 3.512933 C 5.76136 1.262441 8.817123 -0.00146103 11.995543 -0.00146103 " stroke="#e0c481" stroke-width="12" stroke-opacity="1" stroke-miterlimit="4"/></g></g><g fill="#e0c481" fill-opacity="1"><g transform="translate(6.551619, 33.63074)"><g><path d="M 2.015625 -18.84375 C 2.015625 -19.914062 2.21875 -20.65625 2.625 -21.0625 C 3.039062 -21.46875 3.742188 -21.671875 4.734375 -21.671875 L 9.90625 -21.671875 C 12.175781 -21.671875 13.894531 -21.203125 15.0625 -20.265625 C 16.226562 -19.335938 16.8125 -17.9375 16.8125 -16.0625 C 16.8125 -14.820312 16.582031 -13.789062 16.125 -12.96875 C 15.675781 -12.144531 15.003906 -11.460938 14.109375 -10.921875 C 15.097656 -10.515625 15.84375 -9.921875 16.34375 -9.140625 C 16.84375 -8.367188 17.09375 -7.363281 17.09375 -6.125 C 17.09375 -3.976562 16.515625 -2.421875 15.359375 -1.453125 C 14.203125 -0.484375 12.382812 0 9.90625 0 L 4.734375 0 C 3.742188 0 3.039062 -0.195312 2.625 -0.59375 C 2.21875 -1 2.015625 -1.738281 2.015625 -2.8125 Z M 5.71875 -12.4375 L 9.4375 -12.4375 C 10.65625 -12.4375 11.566406 -12.675781 12.171875 -13.15625 C 12.785156 -13.644531 13.09375 -14.457031 13.09375 -15.59375 C 13.09375 -16.601562 12.773438 -17.328125 12.140625 -17.765625 C 11.515625 -18.203125 10.582031 -18.421875 9.34375 -18.421875 L 5.71875 -18.421875 Z M 5.71875 -9.1875 L 5.71875 -3.25 L 9.40625 -3.25 C 10.726562 -3.25 11.71875 -3.484375 12.375 -3.953125 C 13.039062 -4.429688 13.375 -5.28125 13.375 -6.5 C 13.375 -7.507812 13.039062 -8.207031 12.375 -8.59375 C 11.71875 -8.988281 10.738281 -9.1875 9.4375 -9.1875 Z M 5.71875 -9.1875 "/></g></g></g><g fill="#e0c481" fill-opacity="1"><g transform="translate(23.817244, 33.63074)"><g><path d="M 9.8125 -2.9375 C 10.40625 -2.9375 10.925781 -2.988281 11.375 -3.09375 C 11.820312 -3.195312 12.210938 -3.3125 12.546875 -3.4375 C 12.890625 -3.5625 13.195312 -3.675781 13.46875 -3.78125 C 13.75 -3.882812 14.015625 -3.9375 14.265625 -3.9375 C 14.640625 -3.9375 14.953125 -3.816406 15.203125 -3.578125 C 15.460938 -3.335938 15.59375 -3.007812 15.59375 -2.59375 C 15.59375 -2.019531 15.375 -1.539062 14.9375 -1.15625 C 14.507812 -0.78125 13.984375 -0.484375 13.359375 -0.265625 C 12.742188 -0.046875 12.109375 0.101562 11.453125 0.1875 C 10.796875 0.269531 10.25 0.3125 9.8125 0.3125 C 8.613281 0.3125 7.507812 0.144531 6.5 -0.1875 C 5.488281 -0.519531 4.613281 -1.019531 3.875 -1.6875 C 3.144531 -2.351562 2.570312 -3.191406 2.15625 -4.203125 C 1.75 -5.210938 1.546875 -6.390625 1.546875 -7.734375 C 1.546875 -8.953125 1.695312 -10.050781 2 -11.03125 C 2.3125 -12.007812 2.78125 -12.851562 3.40625 -13.5625 C 4.039062 -14.28125 4.820312 -14.828125 5.75 -15.203125 C 6.6875 -15.585938 7.769531 -15.78125 9 -15.78125 C 10.175781 -15.78125 11.203125 -15.597656 12.078125 -15.234375 C 12.960938 -14.878906 13.691406 -14.378906 14.265625 -13.734375 C 14.847656 -13.097656 15.28125 -12.359375 15.5625 -11.515625 C 15.851562 -10.671875 16 -9.765625 16 -8.796875 C 16 -7.984375 15.785156 -7.363281 15.359375 -6.9375 C 14.941406 -6.519531 14.21875 -6.3125 13.1875 -6.3125 L 5.359375 -6.3125 C 5.585938 -5.113281 6.078125 -4.25 6.828125 -3.71875 C 7.578125 -3.195312 8.570312 -2.9375 9.8125 -2.9375 Z M 9 -12.53125 C 8.007812 -12.53125 7.222656 -12.265625 6.640625 -11.734375 C 6.066406 -11.210938 5.671875 -10.488281 5.453125 -9.5625 L 12.25 -9.5625 C 12.175781 -10.550781 11.859375 -11.289062 11.296875 -11.78125 C 10.742188 -12.28125 9.976562 -12.53125 9 -12.53125 Z M 9 -12.53125 "/></g></g></g><g clip-path="url(#88c2468542)"><path fill="#e0c481" d="M 39.886719 3.59375 L 39.886719 17.308594 C 39.886719 17.761719 39.796875 18.199219 39.625 18.621094 C 39.449219 19.039062 39.203125 19.410156 38.878906 19.730469 C 38.558594 20.054688 38.1875 20.300781 37.769531 20.476562 C 37.347656 20.648438 36.910156 20.738281 36.457031 20.738281 L 22.742188 20.738281 C 22.289062 20.738281 21.851562 20.648438 21.429688 20.476562 C 21.011719 20.300781 20.640625 20.054688 20.320312 19.730469 C 19.996094 19.410156 19.75 19.039062 19.574219 18.621094 C 19.402344 18.199219 19.316406 17.761719 19.3125 17.308594 L 19.3125 3.59375 C 19.316406 3.140625 19.402344 2.703125 19.574219 2.28125 C 19.75 1.863281 19.996094 1.492188 20.320312 1.171875 C 20.640625 0.847656 21.011719 0.601562 21.429688 0.425781 C 21.851562 0.253906 22.289062 0.164062 22.742188 0.164062 L 36.457031 0.164062 C 36.910156 0.164062 37.347656 0.253906 37.769531 0.425781 C 38.1875 0.601562 38.558594 0.847656 38.878906 1.171875 C 39.203125 1.492188 39.449219 1.863281 39.625 2.28125 C 39.796875 2.703125 39.886719 3.140625 39.886719 3.59375 Z M 21.601562 17.308594 C 21.601562 17.460938 21.628906 17.605469 21.6875 17.746094 C 21.746094 17.886719 21.828125 18.007812 21.933594 18.117188 C 22.042969 18.222656 22.164062 18.304688 22.304688 18.363281 C 22.445312 18.421875 22.589844 18.449219 22.742188 18.449219 L 36.457031 18.449219 C 36.609375 18.449219 36.753906 18.421875 36.894531 18.363281 C 37.035156 18.304688 37.15625 18.222656 37.265625 18.117188 C 37.371094 18.007812 37.453125 17.886719 37.511719 17.746094 C 37.570312 17.605469 37.601562 17.460938 37.601562 17.308594 L 37.601562 3.59375 C 37.601562 3.441406 37.570312 3.296875 37.511719 3.15625 C 37.453125 3.015625 37.371094 2.894531 37.265625 2.785156 C 37.15625 2.679688 37.035156 2.597656 36.894531 2.539062 C 36.753906 2.480469 36.609375 2.449219 36.457031 2.449219 L 22.742188 2.449219 C 22.589844 2.449219 22.445312 2.480469 22.304688 2.539062 C 22.164062 2.597656 22.042969 2.679688 21.933594 2.785156 C 21.828125 2.894531 21.746094 3.015625 21.6875 3.15625 C 21.628906 3.296875 21.601562 3.441406 21.601562 3.59375 Z M 21.601562 17.308594 " fill-opacity="1" fill-rule="nonzero"/></g><g clip-path="url(#d4a8cb3aa6)"><path fill="#e0c481" d="M 35.3125 15.023438 C 35.3125 15.175781 35.285156 15.320312 35.226562 15.460938 C 35.167969 15.601562 35.085938 15.722656 34.980469 15.832031 C 34.871094 15.9375 34.75 16.019531 34.609375 16.078125 C 34.46875 16.136719 34.324219 16.164062 34.171875 16.164062 L 28.457031 16.164062 C 28.304688 16.164062 28.160156 16.136719 28.019531 16.078125 C 27.878906 16.019531 27.757812 15.9375 27.648438 15.832031 C 27.542969 15.722656 27.460938 15.601562 27.402344 15.460938 C 27.34375 15.320312 27.3125 15.175781 27.3125 15.023438 C 27.3125 14.871094 27.34375 14.726562 27.402344 14.585938 C 27.460938 14.445312 27.542969 14.320312 27.648438 14.214844 C 27.757812 14.105469 27.878906 14.023438 28.019531 13.964844 C 28.160156 13.910156 28.304688 13.878906 28.457031 13.878906 L 34.171875 13.878906 C 34.324219 13.878906 34.46875 13.910156 34.609375 13.964844 C 34.75 14.023438 34.871094 14.105469 34.980469 14.214844 C 35.085938 14.320312 35.167969 14.445312 35.226562 14.585938 C 35.285156 14.726562 35.3125 14.871094 35.3125 15.023438 Z M 35.3125 15.023438 " fill-opacity="1" fill-rule="nonzero"/></g><g clip-path="url(#b9abadbcdc)"><path fill="#e0c481" d="M 42.707031 3.59375 L 42.707031 17.308594 C 42.707031 17.761719 42.621094 18.199219 42.445312 18.621094 C 42.273438 19.039062 42.023438 19.410156 41.703125 19.730469 C 41.382812 20.054688 41.011719 20.300781 40.59375 20.476562 C 40.171875 20.648438 39.734375 20.738281 39.28125 20.738281 L 25.566406 20.738281 C 25.113281 20.738281 24.675781 20.648438 24.253906 20.476562 C 23.835938 20.300781 23.464844 20.054688 23.144531 19.730469 C 22.820312 19.410156 22.574219 19.039062 22.398438 18.621094 C 22.226562 18.199219 22.136719 17.761719 22.136719 17.308594 L 22.136719 3.59375 C 22.136719 3.140625 22.226562 2.703125 22.398438 2.28125 C 22.574219 1.863281 22.820312 1.492188 23.144531 1.171875 C 23.464844 0.847656 23.835938 0.601562 24.253906 0.425781 C 24.675781 0.253906 25.113281 0.164062 25.566406 0.164062 L 39.28125 0.164062 C 39.734375 0.164062 40.171875 0.253906 40.59375 0.425781 C 41.011719 0.601562 41.382812 0.847656 41.703125 1.171875 C 42.023438 1.492188 42.273438 1.863281 42.445312 2.28125 C 42.621094 2.703125 42.707031 3.140625 42.707031 3.59375 Z M 24.421875 17.308594 C 24.421875 17.460938 24.453125 17.605469 24.511719 17.746094 C 24.566406 17.886719 24.652344 18.007812 24.757812 18.117188 C 24.863281 18.222656 24.988281 18.304688 25.128906 18.363281 C 25.269531 18.421875 25.414062 18.449219 25.566406 18.449219 L 39.28125 18.449219 C 39.433594 18.449219 39.578125 18.421875 39.71875 18.363281 C 39.859375 18.304688 39.980469 18.222656 40.089844 18.117188 C 40.195312 18.007812 40.277344 17.886719 40.335938 17.746094 C 40.394531 17.605469 40.421875 17.460938 40.421875 17.308594 L 40.421875 3.59375 C 40.421875 3.441406 40.394531 3.296875 40.335938 3.15625 C 40.277344 3.015625 40.195312 2.894531 40.089844 2.785156 C 39.980469 2.679688 39.859375 2.597656 39.71875 2.539062 C 39.578125 2.480469 39.433594 2.449219 39.28125 2.449219 L 25.566406 2.449219 C 25.414062 2.449219 25.269531 2.480469 25.128906 2.539062 C 24.988281 2.597656 24.863281 2.679688 24.757812 2.785156 C 24.652344 2.894531 24.566406 3.015625 24.511719 3.15625 C 24.453125 3.296875 24.421875 3.441406 24.421875 3.59375 Z M 24.421875 17.308594 " fill-opacity="1" fill-rule="nonzero"/></g><g clip-path="url(#0a4717b344)"><path fill="#e0c481" d="M 38.136719 15.023438 C 38.136719 15.175781 38.109375 15.320312 38.050781 15.460938 C 37.992188 15.601562 37.910156 15.722656 37.804688 15.832031 C 37.695312 15.9375 37.570312 16.019531 37.433594 16.078125 C 37.292969 16.136719 37.144531 16.164062 36.996094 16.164062 L 31.28125 16.164062 C 31.128906 16.164062 30.984375 16.136719 30.84375 16.078125 C 30.703125 16.019531 30.578125 15.9375 30.472656 15.832031 C 30.363281 15.722656 30.28125 15.601562 30.222656 15.460938 C 30.167969 15.320312 30.136719 15.175781 30.136719 15.023438 C 30.136719 14.871094 30.167969 14.726562 30.222656 14.585938 C 30.28125 14.445312 30.363281 14.320312 30.472656 14.214844 C 30.578125 14.105469 30.703125 14.023438 30.84375 13.964844 C 30.984375 13.910156 31.128906 13.878906 31.28125 13.878906 L 36.996094 13.878906 C 37.144531 13.878906 37.292969 13.910156 37.433594 13.964844 C 37.570312 14.023438 37.695312 14.105469 37.804688 14.214844 C 37.910156 14.320312 37.992188 14.445312 38.050781 14.585938 C 38.109375 14.726562 38.136719 14.871094 38.136719 15.023438 Z M 38.136719 15.023438 " fill-opacity="1" fill-rule="nonzero"/></g></svg>