<svg xmlns="http://www.w3.org/2000/svg" xmlns:xlink="http://www.w3.org/1999/xlink" width="64" zoomAndPan="magnify" viewBox="0 0 48 48" height="64" preserveAspectRatio="xMidYMid meet" version="1.0"><defs><clipPath id="9e89d0ff99"><path d="M 1.152344 0.660156 L 46.703125 0.660156 L 46.703125 46.210938 L 1.152344 46.210938 Z M 1.152344 0.660156 " clip-rule="nonzero"/></clipPath><clipPath id="900985b227"><path d="M 9.9375 0.660156 L 37.914062 0.660156 C 40.246094 0.660156 42.480469 1.585938 44.128906 3.234375 C 45.777344 4.882812 46.703125 7.117188 46.703125 9.449219 L 46.703125 37.425781 C 46.703125 39.753906 45.777344 41.992188 44.128906 43.636719 C 42.480469 45.285156 40.246094 46.210938 37.914062 46.210938 L 9.9375 46.210938 C 7.609375 46.210938 5.371094 45.285156 3.726562 43.636719 C 2.078125 41.992188 1.152344 39.753906 1.152344 37.425781 L 1.152344 9.449219 C 1.152344 7.117188 2.078125 4.882812 3.726562 3.234375 C 5.371094 1.585938 7.609375 0.660156 9.9375 0.660156 " clip-rule="nonzero"/></clipPath><clipPath id="3594dcfd24"><path d="M 8.730469 8.511719 L 39.585938 8.511719 L 39.585938 38.632812 L 8.730469 38.632812 Z M 8.730469 8.511719 " clip-rule="nonzero"/></clipPath></defs><g clip-path="url(#9e89d0ff99)"><g clip-path="url(#900985b227)"><path stroke-linecap="butt" transform="matrix(0.732479, 0, 0, 0.732479, 1.15102, 0.661226)" fill="none" stroke-linejoin="miter" d="M 11.995543 -0.00146103 L 50.189913 -0.00146103 C 53.373666 -0.00146103 56.424096 1.262441 58.674588 3.512933 C 60.92508 5.763425 62.188982 8.813855 62.188982 11.997608 L 62.188982 50.191978 C 62.188982 53.370398 60.92508 56.426161 58.674588 58.67132 C 56.424096 60.921812 53.373666 62.185714 50.189913 62.185714 L 11.995543 62.185714 C 8.817123 62.185714 5.76136 60.921812 3.516201 58.67132 C 1.265709 56.426161 0.00180696 53.370398 0.00180696 50.191978 L 0.00180696 11.997608 C 0.00180696 8.813855 1.265709 5.763425 3.516201 3.512933 C 5.76136 1.262441 8.817123 -0.00146103 11.995543 -0.00146103 " stroke="#000000" stroke-width="12" stroke-opacity="1" stroke-miterlimit="4"/></g></g><g clip-path="url(#3594dcfd24)"><path fill="#000000" d="M 38.675781 44.9375 L 9.777344 44.9375 C 9.304688 44.9375 8.835938 44.890625 8.371094 44.796875 C 7.90625 44.703125 7.453125 44.566406 7.015625 44.382812 C 6.578125 44.203125 6.160156 43.980469 5.765625 43.714844 C 5.371094 43.453125 5.007812 43.152344 4.671875 42.816406 C 4.335938 42.484375 4.039062 42.117188 3.773438 41.722656 C 3.511719 41.328125 3.289062 40.914062 3.105469 40.476562 C 2.925781 40.039062 2.789062 39.585938 2.695312 39.121094 C 2.601562 38.65625 2.554688 38.1875 2.554688 37.710938 L 2.554688 8.8125 C 2.554688 8.339844 2.601562 7.871094 2.695312 7.40625 C 2.789062 6.941406 2.925781 6.488281 3.105469 6.050781 C 3.289062 5.613281 3.511719 5.195312 3.773438 4.800781 C 4.039062 4.40625 4.335938 4.042969 4.671875 3.707031 C 5.007812 3.371094 5.371094 3.074219 5.765625 2.808594 C 6.160156 2.546875 6.578125 2.324219 7.015625 2.140625 C 7.453125 1.960938 7.90625 1.824219 8.371094 1.730469 C 8.835938 1.636719 9.304688 1.589844 9.777344 1.589844 L 38.675781 1.589844 C 39.152344 1.589844 39.621094 1.636719 40.085938 1.730469 C 40.550781 1.824219 41.003906 1.960938 41.441406 2.140625 C 41.878906 2.324219 42.292969 2.546875 42.6875 2.808594 C 43.082031 3.074219 43.449219 3.371094 43.78125 3.707031 C 44.117188 4.042969 44.417969 4.40625 44.679688 4.800781 C 44.945312 5.195312 45.167969 5.613281 45.347656 6.050781 C 45.53125 6.488281 45.667969 6.941406 45.761719 7.40625 C 45.855469 7.871094 45.902344 8.339844 45.902344 8.8125 L 45.902344 37.710938 C 45.902344 38.1875 45.855469 38.65625 45.761719 39.121094 C 45.667969 39.585938 45.53125 40.039062 45.347656 40.476562 C 45.167969 40.914062 44.945312 41.328125 44.679688 41.722656 C 44.417969 42.117188 44.117188 42.484375 43.78125 42.816406 C 43.449219 43.152344 43.082031 43.453125 42.6875 43.714844 C 42.292969 43.980469 41.878906 44.203125 41.441406 44.382812 C 41.003906 44.566406 40.550781 44.703125 40.085938 44.796875 C 39.621094 44.890625 39.152344 44.9375 38.675781 44.9375 Z M 9.777344 6.40625 C 9.460938 6.40625 9.152344 6.46875 8.855469 6.589844 C 8.5625 6.710938 8.300781 6.886719 8.074219 7.109375 C 7.851562 7.335938 7.675781 7.597656 7.554688 7.890625 C 7.433594 8.1875 7.371094 8.496094 7.371094 8.8125 L 7.371094 37.710938 C 7.371094 38.03125 7.433594 38.339844 7.554688 38.632812 C 7.675781 38.929688 7.851562 39.1875 8.074219 39.414062 C 8.300781 39.640625 8.5625 39.816406 8.855469 39.9375 C 9.152344 40.058594 9.460938 40.121094 9.777344 40.121094 L 38.675781 40.121094 C 38.996094 40.121094 39.304688 40.058594 39.597656 39.9375 C 39.894531 39.816406 40.152344 39.640625 40.378906 39.414062 C 40.605469 39.1875 40.78125 38.929688 40.902344 38.632812 C 41.023438 38.339844 41.085938 38.03125 41.085938 37.710938 L 41.085938 8.8125 C 41.085938 8.496094 41.023438 8.1875 40.902344 7.890625 C 40.78125 7.597656 40.605469 7.335938 40.378906 7.109375 C 40.152344 6.886719 39.894531 6.710938 39.597656 6.589844 C 39.304688 6.46875 38.996094 6.40625 38.675781 6.40625 Z M 9.777344 6.40625 " fill-opacity="1" fill-rule="nonzero"/></g><path fill="#000000" d="M 14.59375 35.304688 C 14.277344 35.304688 13.96875 35.242188 13.671875 35.121094 C 13.378906 35 13.117188 34.824219 12.890625 34.597656 C 12.667969 34.371094 12.492188 34.113281 12.371094 33.816406 C 12.25 33.523438 12.1875 33.214844 12.1875 32.894531 L 12.1875 20.855469 C 12.1875 20.535156 12.25 20.226562 12.371094 19.933594 C 12.492188 19.636719 12.667969 19.378906 12.890625 19.152344 C 13.117188 18.925781 13.378906 18.753906 13.671875 18.628906 C 13.96875 18.507812 14.277344 18.445312 14.59375 18.445312 C 14.914062 18.445312 15.222656 18.507812 15.515625 18.628906 C 15.8125 18.753906 16.070312 18.925781 16.296875 19.152344 C 16.523438 19.378906 16.699219 19.636719 16.820312 19.933594 C 16.941406 20.226562 17.003906 20.535156 17.003906 20.855469 L 17.003906 32.894531 C 17.003906 33.214844 16.941406 33.523438 16.820312 33.816406 C 16.699219 34.113281 16.523438 34.371094 16.296875 34.597656 C 16.070312 34.824219 15.8125 35 15.515625 35.121094 C 15.222656 35.242188 14.914062 35.304688 14.59375 35.304688 Z M 14.59375 35.304688 " fill-opacity="1" fill-rule="nonzero"/><path fill="#000000" d="M 14.59375 16.0625 C 14.273438 16.0625 13.96875 16.003906 13.671875 15.882812 C 13.375 15.761719 13.113281 15.585938 12.886719 15.359375 C 12.660156 15.136719 12.484375 14.875 12.363281 14.582031 C 12.238281 14.285156 12.175781 13.976562 12.175781 13.660156 C 12.171875 13.339844 12.234375 13.03125 12.355469 12.734375 C 12.476562 12.4375 12.648438 12.175781 12.875 11.949219 C 13.097656 11.722656 13.359375 11.546875 13.652344 11.421875 C 13.949219 11.300781 14.253906 11.234375 14.574219 11.234375 C 14.894531 11.230469 15.203125 11.292969 15.5 11.414062 C 15.796875 11.53125 16.058594 11.707031 16.285156 11.929688 C 16.511719 12.15625 16.6875 12.414062 16.8125 12.707031 C 16.9375 13.003906 17 13.308594 17.003906 13.628906 L 17.003906 13.65625 C 17.003906 13.972656 16.941406 14.28125 16.820312 14.574219 C 16.699219 14.871094 16.523438 15.132812 16.296875 15.355469 C 16.070312 15.582031 15.8125 15.757812 15.515625 15.878906 C 15.222656 16 14.914062 16.0625 14.59375 16.0625 Z M 14.59375 16.0625 " fill-opacity="1" fill-rule="nonzero"/><path fill="#000000" d="M 24.226562 35.304688 C 23.910156 35.304688 23.601562 35.242188 23.304688 35.121094 C 23.011719 35 22.75 34.824219 22.523438 34.597656 C 22.300781 34.371094 22.125 34.113281 22.003906 33.816406 C 21.878906 33.523438 21.820312 33.214844 21.820312 32.894531 L 21.820312 20.855469 C 21.820312 20.535156 21.878906 20.226562 22.003906 19.933594 C 22.125 19.636719 22.300781 19.378906 22.523438 19.152344 C 22.75 18.925781 23.011719 18.753906 23.304688 18.628906 C 23.601562 18.507812 23.910156 18.445312 24.226562 18.445312 C 24.546875 18.445312 24.855469 18.507812 25.148438 18.628906 C 25.445312 18.753906 25.703125 18.925781 25.929688 19.152344 C 26.15625 19.378906 26.332031 19.636719 26.453125 19.933594 C 26.574219 20.226562 26.636719 20.535156 26.636719 20.855469 L 26.636719 32.894531 C 26.636719 33.214844 26.574219 33.523438 26.453125 33.816406 C 26.332031 34.113281 26.15625 34.371094 25.929688 34.597656 C 25.703125 34.824219 25.445312 35 25.148438 35.121094 C 24.855469 35.242188 24.546875 35.304688 24.226562 35.304688 Z M 24.226562 35.304688 " fill-opacity="1" fill-rule="nonzero"/><path fill="#000000" d="M 33.859375 35.304688 C 33.542969 35.304688 33.234375 35.242188 32.9375 35.121094 C 32.644531 35 32.382812 34.824219 32.15625 34.597656 C 31.933594 34.371094 31.757812 34.113281 31.636719 33.816406 C 31.511719 33.523438 31.453125 33.214844 31.453125 32.894531 L 31.453125 25.671875 C 31.453125 25.351562 31.390625 25.042969 31.269531 24.75 C 31.148438 24.453125 30.972656 24.195312 30.746094 23.96875 C 30.519531 23.742188 30.261719 23.570312 29.964844 23.445312 C 29.671875 23.324219 29.363281 23.261719 29.042969 23.261719 C 28.726562 23.261719 28.417969 23.324219 28.121094 23.445312 C 27.828125 23.570312 27.566406 23.742188 27.339844 23.96875 C 27.117188 24.195312 26.941406 24.453125 26.820312 24.75 C 26.695312 25.042969 26.636719 25.351562 26.636719 25.671875 C 26.636719 25.992188 26.574219 26.296875 26.453125 26.59375 C 26.332031 26.886719 26.15625 27.148438 25.929688 27.375 C 25.703125 27.601562 25.445312 27.773438 25.148438 27.894531 C 24.855469 28.019531 24.546875 28.078125 24.226562 28.078125 C 23.910156 28.078125 23.601562 28.019531 23.304688 27.894531 C 23.011719 27.773438 22.75 27.601562 22.523438 27.375 C 22.300781 27.148438 22.125 26.886719 22.003906 26.59375 C 21.878906 26.296875 21.820312 25.992188 21.820312 25.671875 C 21.820312 25.195312 21.867188 24.726562 21.957031 24.261719 C 22.050781 23.796875 22.1875 23.34375 22.371094 22.90625 C 22.550781 22.46875 22.773438 22.050781 23.039062 21.65625 C 23.300781 21.261719 23.601562 20.898438 23.9375 20.5625 C 24.269531 20.226562 24.636719 19.925781 25.03125 19.664062 C 25.425781 19.402344 25.839844 19.179688 26.28125 18.996094 C 26.71875 18.816406 27.167969 18.679688 27.632812 18.585938 C 28.101562 18.492188 28.570312 18.445312 29.042969 18.445312 C 29.519531 18.445312 29.988281 18.492188 30.453125 18.585938 C 30.917969 18.679688 31.371094 18.816406 31.808594 18.996094 C 32.246094 19.179688 32.664062 19.402344 33.058594 19.664062 C 33.453125 19.925781 33.816406 20.226562 34.152344 20.5625 C 34.488281 20.898438 34.789062 21.261719 35.050781 21.65625 C 35.316406 22.050781 35.539062 22.46875 35.71875 22.90625 C 35.898438 23.34375 36.039062 23.796875 36.128906 24.261719 C 36.222656 24.726562 36.269531 25.195312 36.269531 25.671875 L 36.269531 32.894531 C 36.269531 33.214844 36.207031 33.523438 36.085938 33.816406 C 35.964844 34.113281 35.789062 34.371094 35.5625 34.597656 C 35.335938 34.824219 35.078125 35 34.78125 35.121094 C 34.488281 35.242188 34.179688 35.304688 33.859375 35.304688 Z M 33.859375 35.304688 " fill-opacity="1" fill-rule="nonzero"/></svg>