<svg xmlns="http://www.w3.org/2000/svg" xmlns:xlink="http://www.w3.org/1999/xlink" width="500" zoomAndPan="magnify" viewBox="0 0 375 318.749988" height="425" preserveAspectRatio="xMidYMid meet" version="1.0"><defs><g/><clipPath id="9a40a3ea1e"><path d="M 162 175 L 203 175 L 203 219 L 162 219 Z M 162 175 " clip-rule="nonzero"/></clipPath><clipPath id="09e45c9921"><path d="M 162.824219 187.457031 L 183.570312 175.03125 L 202.210938 206.148438 L 181.464844 218.574219 Z M 162.824219 187.457031 " clip-rule="nonzero"/></clipPath><clipPath id="8edb8741ad"><path d="M 145.945312 197.566406 L 197.808594 166.5 L 221.109375 205.398438 L 169.246094 236.464844 Z M 145.945312 197.566406 " clip-rule="nonzero"/></clipPath><clipPath id="e31e398bd1"><path d="M 146.058594 197.5 L 198.207031 166.261719 L 221.710938 205.503906 L 169.5625 236.738281 Z M 146.058594 197.5 " clip-rule="nonzero"/></clipPath><clipPath id="7a76e7a7a2"><path d="M 146.058594 197.5 L 197.722656 166.550781 L 221.007812 205.425781 L 169.347656 236.375 Z M 146.058594 197.5 " clip-rule="nonzero"/></clipPath></defs><path fill="#fddf8d" d="M 51.332031 39.226562 C 44.511719 45.222656 38.53125 52.804688 33.65625 62.265625 C 2.179688 123.304688 1.652344 240.191406 75.996094 271.746094 C 107.59375 285.160156 146.011719 290.75 179.679688 296.875 C 230.140625 306.058594 271.546875 298.367188 307.253906 258.839844 C 335.582031 227.480469 364.855469 185.742188 366.519531 142.050781 C 367.425781 118.339844 358.441406 93.355469 339.265625 79.265625 C 323.46875 67.660156 303.171875 64.660156 284.011719 60.414062 C 218.632812 45.929688 112.257812 -14.324219 51.332031 39.226562 " fill-opacity="1" fill-rule="nonzero"/><g fill="#542b46" fill-opacity="1"><g transform="translate(1.645775, 270.561236)"><g><path d="M 5.957031 0 L 79.242188 0 C 58.386719 -22.9375 49.152344 -52.429688 49.152344 -89.070312 C 106.648438 -89.070312 97.710938 2.980469 157.589844 2.980469 C 163.84375 2.980469 170.398438 2.085938 178.144531 0 L 178.144531 -74.175781 C 171.886719 -73.582031 164.140625 -72.984375 156.398438 -72.984375 C 131.375 -72.984375 103.074219 -78.644531 96.816406 -99.5 C 150.738281 -103.964844 178.441406 -132.863281 178.441406 -167.121094 C 178.441406 -216.871094 120.945312 -228.191406 65.539062 -228.191406 C 46.769531 -228.191406 20.554688 -226.699219 5.957031 -224.617188 C 19.960938 -190.953125 26.214844 -153.417969 26.214844 -116.476562 C 26.214844 -75.367188 18.46875 -34.554688 5.957031 0 Z M 139.117188 -171.886719 C 146.566406 -171.886719 150.4375 -168.609375 150.4375 -162.949219 C 150.4375 -140.90625 95.328125 -105.160156 73.878906 -105.160156 C 66.429688 -105.160156 62.261719 -108.433594 62.261719 -114.09375 C 62.261719 -136.140625 117.371094 -171.886719 139.117188 -171.886719 Z M 139.117188 -171.886719 "/></g></g></g><g fill="#542b46" fill-opacity="1"><g transform="translate(160.732584, 273.664349)"><g><path d="M -4.46875 0 L 71.496094 0 C 53.027344 -29.789062 45.578125 -55.410156 45.578125 -77.15625 C 45.578125 -142.394531 111.414062 -171.886719 138.226562 -171.886719 C 143.886719 -171.886719 150.4375 -170.695312 150.4375 -163.84375 C 150.4375 -144.183594 84.601562 -112.011719 84.601562 -53.621094 C 84.601562 -37.832031 89.371094 -19.960938 101.582031 0 L 204.359375 0 C 166.824219 -64.941406 156.097656 -136.4375 156.097656 -224.617188 L 26.214844 -224.617188 C 36.640625 -209.421875 42.300781 -184.101562 42.300781 -157.289062 C 42.300781 -142.695312 40.515625 -127.5 36.941406 -113.203125 C 26.8125 -73.28125 7.746094 -33.066406 -4.46875 0 Z M -4.46875 0 "/></g></g></g><g clip-path="url(#9a40a3ea1e)"><g clip-path="url(#09e45c9921)"><g clip-path="url(#8edb8741ad)"><g clip-path="url(#e31e398bd1)"><g clip-path="url(#7a76e7a7a2)"><path fill="#542b46" d="M 205.484375 179.507812 C 214.058594 193.820312 209.449219 212.351562 195.183594 220.898438 C 180.90625 229.449219 162.394531 224.765625 153.820312 210.453125 C 150.992188 205.734375 149.597656 200.554688 149.519531 195.425781 C 158.617188 200.503906 170.089844 200.714844 179.652344 194.988281 C 189.214844 189.257812 194.4375 179.046875 194.265625 168.621094 C 198.746094 171.117188 202.65625 174.785156 205.484375 179.507812 " fill-opacity="1" fill-rule="nonzero"/></g></g></g></g></g></svg>