<svg xmlns="http://www.w3.org/2000/svg" width="1200" height="708" fill="none" viewBox="0 0 1200 708">
  <g class="Frame 1" clip-path="url(#a)">
    <g class="Phone">
      <path fill="#0055A7" d="m216.493 447.836-5.592 4.213a9.328 9.328 0 0 1-4.134 1.344 9.285 9.285 0 0 1-4.299-.663l-5.157-2.188c-2.662-1.128-3.197-3.261-1.198-4.766l5.592-4.213a9.363 9.363 0 0 1 4.14-1.345 9.323 9.323 0 0 1 4.298.66l5.152 2.188c2.663 1.127 3.197 3.265 1.198 4.77Zm2.695 34.899-5.597 4.213a9.281 9.281 0 0 1-4.135 1.34 9.245 9.245 0 0 1-4.298-.659l-5.157-2.188c-2.658-1.128-3.192-3.261-1.198-4.766l5.597-4.213a9.278 9.278 0 0 1 4.134-1.344 9.308 9.308 0 0 1 4.298.659l5.157 2.188c2.658 1.128 3.193 3.265 1.199 4.77Zm28.672-21.595-5.592 4.213a9.35 9.35 0 0 1-4.135 1.344 9.267 9.267 0 0 1-4.298-.664l-5.157-2.188c-2.663-1.127-3.197-3.26-1.198-4.765l5.592-4.213a9.282 9.282 0 0 1 4.135-1.344 9.205 9.205 0 0 1 4.298.664l5.156 2.183c2.663 1.127 3.198 3.265 1.199 4.77Zm2.694 34.899-5.596 4.213a9.267 9.267 0 0 1-4.135 1.339 9.245 9.245 0 0 1-4.298-.659l-5.157-2.187c-2.658-1.128-3.197-3.261-1.198-4.766l5.596-4.213a9.288 9.288 0 0 1 4.135-1.345 9.31 9.31 0 0 1 4.298.659l5.157 2.188c2.658 1.128 3.197 3.265 1.198 4.771Zm28.673-21.595-5.592 4.213a9.361 9.361 0 0 1-4.14 1.344 9.282 9.282 0 0 1-4.293-.664l-5.157-2.188c-2.663-1.127-3.197-3.26-1.198-4.765l5.592-4.213a9.287 9.287 0 0 1 4.139-1.345 9.248 9.248 0 0 1 4.298.664l5.152 2.183c2.663 1.128 3.198 3.265 1.199 4.771Zm4.52 35.671-5.596 4.214a9.295 9.295 0 0 1-4.135 1.344 9.248 9.248 0 0 1-4.298-.664l-5.157-2.183c-2.658-1.133-3.197-3.265-1.198-4.77l5.596-4.214a9.35 9.35 0 0 1 4.135-1.344 9.315 9.315 0 0 1 4.299.664l5.157 2.188c2.658 1.128 3.192 3.26 1.197 4.765Zm28.673-21.595-5.592 4.213a9.27 9.27 0 0 1-4.135 1.344 9.264 9.264 0 0 1-4.298-.659l-5.157-2.188c-2.662-1.127-3.197-3.265-1.198-4.77l5.592-4.213a9.341 9.341 0 0 1 4.134-1.344 9.282 9.282 0 0 1 4.299.664l5.157 2.188c2.662 1.127 3.197 3.26 1.198 4.765Zm2.694 34.899-5.596 4.213a9.288 9.288 0 0 1-4.135 1.345 9.265 9.265 0 0 1-4.299-.664l-5.157-2.188c-2.658-1.128-3.197-3.26-1.197-4.766l5.596-4.213a9.336 9.336 0 0 1 4.135-1.344 9.325 9.325 0 0 1 4.298.663l5.157 2.188c2.658 1.128 3.192 3.261 1.198 4.766Zm28.672-21.595-5.592 4.213a9.292 9.292 0 0 1-4.139 1.345 9.212 9.212 0 0 1-4.294-.665l-5.156-2.183c-2.663-1.127-3.198-3.265-1.199-4.77l5.592-4.213a9.336 9.336 0 0 1 4.135-1.344 9.267 9.267 0 0 1 4.298.664l5.157 2.187c2.663 1.128 3.197 3.261 1.198 4.766Zm2.695 34.898-5.597 4.214a9.337 9.337 0 0 1-4.134 1.344 9.315 9.315 0 0 1-4.299-.664l-5.157-2.187c-2.657-1.124-3.197-3.261-1.198-4.766l5.597-4.213a9.342 9.342 0 0 1 4.134-1.345 9.315 9.315 0 0 1 4.299.664l5.157 2.188c2.658 1.128 3.192 3.261 1.198 4.765Zm28.672-21.594-5.592 4.213a9.295 9.295 0 0 1-4.135 1.344 9.23 9.23 0 0 1-4.298-.664l-5.162-2.187c-2.658-1.128-3.192-3.261-1.193-4.766l5.592-4.213a9.35 9.35 0 0 1 4.135-1.345 9.293 9.293 0 0 1 4.298.664l5.157 2.188c2.663 1.128 3.197 3.26 1.198 4.766Zm4.521 35.671-5.597 4.214a9.29 9.29 0 0 1-4.134 1.344 9.308 9.308 0 0 1-4.298-.659l-5.157-2.188c-2.658-1.128-3.198-3.265-1.199-4.77l5.597-4.209a9.204 9.204 0 0 1 4.135-1.344 9.245 9.245 0 0 1 4.298.659l5.157 2.188c2.658 1.128 3.192 3.26 1.198 4.765Zm28.672-21.595-5.592 4.213a9.238 9.238 0 0 1-4.139 1.345 9.308 9.308 0 0 1-4.298-.659l-5.157-2.188c-2.658-1.128-3.192-3.261-1.193-4.766l5.592-4.213a9.216 9.216 0 0 1 4.134-1.344 9.264 9.264 0 0 1 4.298.659l5.157 2.188c2.663 1.127 3.197 3.26 1.198 4.765Zm2.695 34.899-5.597 4.213a9.218 9.218 0 0 1-4.135 1.345 9.323 9.323 0 0 1-4.298-.66l-5.157-2.187c-2.658-1.128-3.197-3.265-1.198-4.771l5.597-4.208a9.218 9.218 0 0 1 4.135-1.345 9.27 9.27 0 0 1 4.298.659l5.157 2.188c2.658 1.128 3.192 3.261 1.198 4.766Zm28.672-21.595-5.592 4.213a9.23 9.23 0 0 1-4.14 1.345 9.31 9.31 0 0 1-4.298-.659l-5.156-2.188c-2.658-1.128-3.193-3.266-1.194-4.766l5.592-4.213a9.218 9.218 0 0 1 4.135-1.345 9.213 9.213 0 0 1 4.298.66l5.157 2.187c2.662 1.128 3.197 3.261 1.198 4.766Zm2.694 34.898-5.596 4.214a9.286 9.286 0 0 1-4.135 1.344 9.287 9.287 0 0 1-4.298-.659l-5.157-2.188c-2.658-1.128-3.198-3.265-1.198-4.77l5.596-4.213a9.281 9.281 0 0 1 4.135-1.34 9.245 9.245 0 0 1 4.298.659l5.157 2.188c2.658 1.128 3.192 3.261 1.198 4.765Zm28.672-21.594-5.592 4.213a9.229 9.229 0 0 1-4.139 1.344 9.279 9.279 0 0 1-4.293-.659l-5.157-2.188c-2.663-1.127-3.198-3.265-1.199-4.77l5.593-4.209a9.229 9.229 0 0 1 4.134-1.344 9.225 9.225 0 0 1 4.298.659l5.157 2.188c2.663 1.128 3.197 3.26 1.198 4.766Zm4.521 35.671-5.596 4.214a9.237 9.237 0 0 1-4.135 1.344 9.225 9.225 0 0 1-4.298-.659l-5.157-2.188c-2.658-1.128-3.197-3.26-1.198-4.766l5.597-4.213a9.196 9.196 0 0 1 4.134-1.344 9.308 9.308 0 0 1 4.298.659l5.157 2.188c2.658 1.127 3.193 3.26 1.198 4.765Zm28.672-21.595-5.591 4.218a9.297 9.297 0 0 1-4.14 1.34 9.202 9.202 0 0 1-4.293-.66l-5.162-2.187c-2.658-1.128-3.192-3.261-1.193-4.766l5.592-4.213a9.216 9.216 0 0 1 4.135-1.344 9.266 9.266 0 0 1 4.298.659l5.156 2.188c2.663 1.127 3.198 3.265 1.198 4.765Zm2.695 34.899L501.37 609a9.218 9.218 0 0 1-4.134 1.345 9.213 9.213 0 0 1-4.298-.66l-5.157-2.187c-2.658-1.128-3.197-3.261-1.198-4.766l5.596-4.213a9.218 9.218 0 0 1 4.135-1.345 9.32 9.32 0 0 1 4.298.659l5.157 2.188c2.658 1.128 3.192 3.261 1.198 4.766Zm28.673-21.59-5.593 4.208a9.25 9.25 0 0 1-4.139 1.345 9.27 9.27 0 0 1-4.298-.659l-5.157-2.188c-2.658-1.128-3.192-3.261-1.193-4.766l5.592-4.213a9.218 9.218 0 0 1 4.134-1.345 9.277 9.277 0 0 1 4.298.66l5.157 2.187c2.663 1.128 3.198 3.265 1.199 4.771Zm2.689 34.894-5.592 4.213a9.216 9.216 0 0 1-4.135 1.344 9.31 9.31 0 0 1-4.298-.659l-5.157-2.188c-2.658-1.128-3.197-3.26-1.198-4.765l5.597-4.214a9.221 9.221 0 0 1 4.135-1.344 9.31 9.31 0 0 1 4.298.659l5.157 2.188c2.658 1.128 3.192 3.266 1.193 4.766Zm28.677-21.591-5.592 4.209a9.229 9.229 0 0 1-4.14 1.344 9.31 9.31 0 0 1-4.298-.659l-5.156-2.188c-2.658-1.128-3.193-3.26-1.194-4.766l5.592-4.213a9.229 9.229 0 0 1 4.135-1.344 9.29 9.29 0 0 1 4.298.659l5.157 2.188c2.662 1.128 3.197 3.265 1.198 4.77Zm4.516 35.672-5.591 4.213a9.281 9.281 0 0 1-4.136 1.34 9.23 9.23 0 0 1-4.298-.659l-5.156-2.188c-2.658-1.128-3.198-3.26-1.198-4.766l5.596-4.213a9.266 9.266 0 0 1 4.135-1.344 9.26 9.26 0 0 1 4.298.663l5.157 2.184c2.658 1.127 3.192 3.265 1.193 4.77Zm28.677-21.595-5.591 4.213a9.383 9.383 0 0 1-4.14 1.345 9.313 9.313 0 0 1-4.298-.664l-5.157-2.188c-2.658-1.128-3.193-3.261-1.194-4.766l5.592-4.213a9.282 9.282 0 0 1 4.135-1.344 9.203 9.203 0 0 1 4.298.664l5.157 2.187c2.663 1.123 3.197 3.261 1.198 4.766Zm2.695 34.898-5.597 4.214a9.26 9.26 0 0 1-4.135 1.339 9.2 9.2 0 0 1-4.298-.659l-5.157-2.187c-2.658-1.128-3.197-3.261-1.198-4.766l5.597-4.213a9.276 9.276 0 0 1 4.134-1.345 9.308 9.308 0 0 1 4.298.659l5.157 2.188c2.658 1.128 3.193 3.266 1.199 4.77Zm28.672-21.594-5.592 4.213a9.365 9.365 0 0 1-4.139 1.344 9.327 9.327 0 0 1-4.299-.663l-5.157-2.188c-2.658-1.128-3.192-3.261-1.193-4.766l5.592-4.213a9.284 9.284 0 0 1 4.135-1.345 9.23 9.23 0 0 1 4.298.664l5.156 2.183c2.663 1.128 3.198 3.265 1.199 4.771Zm2.695 34.898-5.597 4.214a9.35 9.35 0 0 1-4.135 1.344 9.267 9.267 0 0 1-4.298-.664l-5.157-2.188c-2.658-1.128-3.197-3.26-1.198-4.765l5.596-4.214a9.278 9.278 0 0 1 4.135-1.344 9.252 9.252 0 0 1 4.299.664l5.156 2.183c2.658 1.128 3.193 3.266 1.199 4.77Zm28.672-21.595-5.597 4.214a9.329 9.329 0 0 1-4.135 1.344 9.313 9.313 0 0 1-4.298-.664l-5.157-2.188c-2.658-1.128-3.192-3.26-1.193-4.766l5.592-4.213a9.29 9.29 0 0 1 4.134-1.344 9.232 9.232 0 0 1 4.299.664l5.156 2.183c2.663 1.127 3.198 3.265 1.199 4.77Zm4.516 35.672-5.592 4.213a9.284 9.284 0 0 1-4.135 1.345 9.23 9.23 0 0 1-4.298-.664l-5.157-2.183c-2.658-1.128-3.197-3.265-1.198-4.771l5.597-4.213a9.32 9.32 0 0 1 4.134-1.344 9.327 9.327 0 0 1 4.299.663l5.157 2.188c2.658 1.128 3.192 3.261 1.193 4.766Zm28.677-21.595-5.592 4.213a9.316 9.316 0 0 1-4.14 1.345 9.25 9.25 0 0 1-4.298-.664l-5.156-2.183c-2.658-1.128-3.193-3.266-1.194-4.771l5.592-4.213a9.26 9.26 0 0 1 4.135-1.339 9.2 9.2 0 0 1 4.298.659l5.157 2.187c2.658 1.128 3.197 3.261 1.198 4.766Zm2.689 34.899-5.591 4.213a9.336 9.336 0 0 1-4.135 1.344 9.273 9.273 0 0 1-4.299-.664l-5.156-2.183c-2.663-1.127-3.197-3.265-1.198-4.77l5.596-4.213a9.343 9.343 0 0 1 4.135-1.345 9.313 9.313 0 0 1 4.298.664l5.157 2.188c2.658 1.128 3.193 3.261 1.193 4.766Zm28.677-21.595-5.596 4.213a9.266 9.266 0 0 1-4.135 1.344 9.26 9.26 0 0 1-4.298-.663l-5.157-2.184c-2.658-1.127-3.193-3.265-1.194-4.77l5.592-4.213a9.35 9.35 0 0 1 4.135-1.345 9.293 9.293 0 0 1 4.298.664l5.157 2.188c2.658 1.128 3.197 3.26 1.198 4.766Zm2.69 34.899-5.592 4.213a9.341 9.341 0 0 1-4.134 1.344 9.232 9.232 0 0 1-4.299-.664L711 702.169c-2.657-1.123-3.197-3.26-1.198-4.765l5.592-4.213a9.358 9.358 0 0 1 4.14-1.345 9.313 9.313 0 0 1 4.298.664l5.157 2.188c2.658 1.128 3.192 3.261 1.193 4.766Zm28.677-21.596-5.592 4.213a9.287 9.287 0 0 1-4.139 1.345 9.252 9.252 0 0 1-4.299-.664l-5.157-2.188c-2.657-1.123-3.192-3.26-1.193-4.766l5.592-4.213a9.362 9.362 0 0 1 4.135-1.344 9.293 9.293 0 0 1 4.298.664l5.157 2.188c2.663 1.127 3.197 3.26 1.198 4.765Zm28.672-21.594-5.592 4.212a9.28 9.28 0 0 1-4.134 1.345 9.232 9.232 0 0 1-4.299-.664l-5.156-2.183c-2.658-1.128-3.198-3.265-1.199-4.771l5.597-4.213a9.26 9.26 0 0 1 4.135-1.339 9.245 9.245 0 0 1 4.298.659l5.157 2.187c2.658 1.128 3.192 3.261 1.193 4.767Zm28.677-21.596-5.592 4.213a9.312 9.312 0 0 1-4.139 1.345 9.252 9.252 0 0 1-4.299-.664l-5.151-2.184c-2.663-1.127-3.198-3.265-1.199-4.77l5.592-4.213a9.28 9.28 0 0 1 4.135-1.339 9.2 9.2 0 0 1 4.298.659l5.157 2.188c2.663 1.127 3.197 3.26 1.198 4.765Zm28.677-21.595-5.596 4.213a9.288 9.288 0 0 1-4.135 1.345 9.278 9.278 0 0 1-4.299-.664l-5.156-2.183c-2.658-1.128-3.198-3.265-1.199-4.771l5.597-4.213a9.281 9.281 0 0 1 4.135-1.34 9.258 9.258 0 0 1 4.298.659l5.157 2.188c2.658 1.128 3.197 3.261 1.198 4.766Zm28.672-21.595-5.592 4.213a9.278 9.278 0 0 1-4.134 1.344 9.275 9.275 0 0 1-4.298-.659l-5.157-2.188c-2.663-1.127-3.198-3.265-1.199-4.77l5.593-4.208a9.218 9.218 0 0 1 4.139-1.345 9.202 9.202 0 0 1 4.293.66l5.157 2.187c2.663 1.128 3.197 3.261 1.198 4.766Zm28.677-21.596-5.597 4.214a9.216 9.216 0 0 1-4.134 1.344 9.308 9.308 0 0 1-4.298-.659l-5.157-2.188c-2.658-1.128-3.193-3.265-1.198-4.765l5.597-4.214a9.229 9.229 0 0 1 4.134-1.344 9.245 9.245 0 0 1 4.298.659l5.157 2.188c2.658 1.128 3.197 3.26 1.198 4.765ZM792.052 691.945l-5.596 4.213a9.218 9.218 0 0 1-4.135 1.345 9.308 9.308 0 0 1-4.298-.659l-5.157-2.188c-2.658-1.128-3.192-3.261-1.193-4.766l5.592-4.213a9.218 9.218 0 0 1 4.134-1.345 9.298 9.298 0 0 1 4.298.66l5.157 2.187c2.658 1.128 3.197 3.261 1.198 4.766Zm28.672-21.595-5.592 4.213a9.216 9.216 0 0 1-4.134 1.344 9.264 9.264 0 0 1-4.298-.659l-5.157-2.188c-2.658-1.128-3.198-3.265-1.198-4.765l5.597-4.214a9.221 9.221 0 0 1 4.134-1.344 9.308 9.308 0 0 1 4.298.659l5.157 2.188c2.658 1.128 3.192 3.261 1.193 4.766Zm28.677-21.595-5.592 4.213a9.236 9.236 0 0 1-4.139 1.344 9.277 9.277 0 0 1-4.293-.659l-5.162-2.188c-2.658-1.128-3.192-3.26-1.193-4.766l5.592-4.213a9.229 9.229 0 0 1 4.134-1.344 9.288 9.288 0 0 1 4.298.659l5.157 2.188c2.663 1.127 3.197 3.26 1.198 4.766Zm28.672-21.595-5.591 4.213a9.237 9.237 0 0 1-4.135 1.344 9.287 9.287 0 0 1-4.298-.659l-5.157-2.188c-2.658-1.128-3.197-3.26-1.198-4.765l5.597-4.214a9.216 9.216 0 0 1 4.134-1.344 9.308 9.308 0 0 1 4.298.659l5.157 2.188c2.658 1.128 3.192 3.261 1.193 4.766Zm28.677-21.596-5.592 4.213a9.218 9.218 0 0 1-4.134 1.345 9.29 9.29 0 0 1-4.298-.659l-5.162-2.188c-2.658-1.128-3.192-3.261-1.193-4.766l5.592-4.213a9.282 9.282 0 0 1 4.134-1.344 9.275 9.275 0 0 1 4.298.659l5.157 2.188c2.663 1.127 3.198 3.265 1.198 4.765Zm23.955-57.563-5.592 4.213a9.35 9.35 0 0 1-4.135 1.345 9.293 9.293 0 0 1-4.298-.664l-5.157-2.188c-2.663-1.127-3.197-3.26-1.198-4.766l5.592-4.213a9.361 9.361 0 0 1 4.139-1.344 9.331 9.331 0 0 1 4.299.663l5.156 2.188c2.658 1.124 3.193 3.261 1.194 4.766Zm28.676-21.595-5.596 4.214a9.354 9.354 0 0 1-4.135 1.344 9.313 9.313 0 0 1-4.298-.664l-5.157-2.188c-2.658-1.128-3.193-3.261-1.198-4.765l5.596-4.214a9.336 9.336 0 0 1 4.135-1.344 9.273 9.273 0 0 1 4.299.664l5.156 2.188c2.658 1.123 3.197 3.26 1.198 4.765Zm28.673-21.595-5.592 4.213a9.336 9.336 0 0 1-4.135 1.344 9.203 9.203 0 0 1-4.298-.664l-5.157-2.187c-2.658-1.128-3.197-3.261-1.198-4.766l5.596-4.213a9.343 9.343 0 0 1 4.135-1.345 9.317 9.317 0 0 1 4.299.664l5.156 2.188c2.658 1.128 3.193 3.261 1.194 4.766Zm-52.829 78.862-5.596 4.213a9.284 9.284 0 0 1-4.135 1.345 9.323 9.323 0 0 1-4.298-.66l-5.157-2.187c-2.658-1.128-3.197-3.265-1.198-4.771l5.596-4.213a9.281 9.281 0 0 1 4.136-1.34 9.258 9.258 0 0 1 4.298.659l5.157 2.188c2.658 1.128 3.197 3.261 1.197 4.766Zm28.673-21.595-5.592 4.213a9.282 9.282 0 0 1-4.135 1.344 9.264 9.264 0 0 1-4.298-.659l-5.157-2.188c-2.663-1.127-3.197-3.265-1.198-4.77l5.592-4.213a9.273 9.273 0 0 1 4.14-1.34 9.206 9.206 0 0 1 4.293.66l5.157 2.187c2.662 1.128 3.197 3.261 1.198 4.766Zm28.677-21.595-5.597 4.213a9.282 9.282 0 0 1-4.135 1.344 9.31 9.31 0 0 1-4.298-.659l-5.157-2.188c-2.658-1.128-3.192-3.265-1.198-4.77l5.597-4.213a9.273 9.273 0 0 1 4.135-1.34 9.245 9.245 0 0 1 4.298.659l5.157 2.188c2.658 1.128 3.197 3.26 1.198 4.766Zm-29.196-62.803-183.645 138.3c-19.643 14.795-56.765 17.802-82.909 6.712L213.56 417.724c-26.149-11.089-36.975-46.896-17.332-61.691l189.92-117.66c19.648-14.796 56.77-17.803 82.913-6.713l486.633 184.574c26.142 11.085 27.328 46.65 7.685 61.446Z" class="Vector"/>
      <path fill="#0055A7" d="M745.37 632.223c-16.895 2.074-35.179.171-49.998-6.113L212.107 421.142a49.82 49.82 0 0 1-5.627-2.923 48.924 48.924 0 0 1-5.214-3.606 49.163 49.163 0 0 1-4.718-4.236 49.575 49.575 0 0 1-4.144-4.798 50.376 50.376 0 0 1-3.504-5.28 50.511 50.511 0 0 1-2.804-5.682 49.384 49.384 0 0 1-2.063-5.992 49.429 49.429 0 0 1-1.292-6.203c-1.492-12.147 2.608-22.846 11.255-29.355l190.199-117.85c20.272-15.295 59.124-18.509 86.315-6.969l486.503 184.511a37.819 37.819 0 0 1 12.606 8.506 37.924 37.924 0 0 1 6.084 8.154 37.78 37.78 0 0 1 2.167 4.613 36.795 36.795 0 0 1 1.531 4.865c.402 1.653.691 3.33.864 5.021 1.781 14.504-3.835 28.575-14.654 36.722L781.97 618.945c-9.354 7.043-22.493 11.546-36.6 13.278ZM421.369 229.388c-12.755 1.567-24.583 5.616-32.989 11.945L198.186 359.187c-8.578 6.472-8.762 16.777-8.08 22.33a43.166 43.166 0 0 0 1.097 5.255 43.545 43.545 0 0 0 1.752 5.077 43.293 43.293 0 0 0 2.381 4.814 42.317 42.317 0 0 0 2.971 4.47 40.86 40.86 0 0 0 3.515 4.063 41.855 41.855 0 0 0 3.996 3.59 42.442 42.442 0 0 0 9.19 5.526L698.274 619.28c25.009 10.606 60.55 7.799 79.228-6.26l183.645-138.306c8.571-6.451 13.186-18.19 11.749-29.891a30.584 30.584 0 0 0-.687-4.05 30.262 30.262 0 0 0-1.221-3.922 30.14 30.14 0 0 0-1.736-3.721 29.14 29.14 0 0 0-2.219-3.458 30.455 30.455 0 0 0-5.717-5.875 29.963 29.963 0 0 0-3.397-2.311 30.432 30.432 0 0 0-3.674-1.84L467.741 235.13c-13.823-5.862-30.794-7.654-46.372-5.742Z" class="Vector"/>
      <path fill="#fff" d="M961.21 460.008 777.564 598.313c-19.643 14.795-56.765 17.797-82.909 6.707L211.39 400.057c-26.148-11.089-31.414-32.073-11.766-46.869l183.641-138.299c19.648-14.796 56.77-17.803 82.913-6.713l483.266 204.968c26.142 11.085 31.409 32.073 11.766 46.864Z" class="Vector"/>
      <path fill="#0055A7" d="M743.2 614.551c-16.895 2.075-35.179.171-49.998-6.113L209.937 403.47c-14.998-6.359-24.382-16.35-25.739-27.404-1.153-9.392 3.532-18.572 13.189-25.842l183.642-138.295c20.565-15.483 59.407-18.701 86.598-7.165l483.265 204.963c14.998 6.359 24.381 16.345 25.739 27.404 1.153 9.392-3.532 18.572-13.19 25.842L779.8 601.273c-9.354 7.044-22.493 11.546-36.6 13.278ZM418.523 205.895c-12.765 1.567-24.607 5.619-33.026 11.959L201.855 356.149c-7.448 5.613-11.099 12.36-10.283 19.011 1.026 8.357 8.778 16.184 21.267 21.48l483.265 204.968c25.009 10.606 60.551 7.799 79.228-6.26l183.646-138.301c7.444-5.612 11.099-12.365 10.283-19.011-1.025-8.352-8.777-16.179-21.271-21.479L464.729 211.589c-13.74-5.823-30.657-7.603-46.206-5.694Z" class="Vector"/>
      <path fill="#B6DF55" d="m398.634 227.759-20.649 15.551c-4.332 3.26-3.798 7.616 1.195 9.732 4.988 2.121 5.523 6.476 1.195 9.736l-100.193 75.456a18.554 18.554 0 0 1-3.917 2.008 18.74 18.74 0 0 1-8.672 1.065 18.56 18.56 0 0 1-4.287-1.001 18.76 18.76 0 0 0-4.286-1.001 18.771 18.771 0 0 0-12.59 3.073l-20.65 15.551c-13.819 10.413-12.115 24.329 3.817 31.084l478.725 203.045c15.932 6.755 40.053 3.793 53.878-6.615l172.848-130.175c13.825-10.409 12.115-24.329-3.816-31.084l-478.725-203.04c-15.932-6.76-40.049-3.799-53.873 6.615Z" class="Vector"/>
      <path fill="#0055A7" d="M736.509 598.918a59.045 59.045 0 0 1-29.636-3.448L228.149 392.43c-8.979-3.805-14.411-9.894-15.3-17.134-.889-7.241 2.909-14.458 10.7-20.327l20.65-15.551a22.224 22.224 0 0 1 4.759-2.472 22.545 22.545 0 0 1 5.213-1.282 22.513 22.513 0 0 1 5.367-.017c1.786.204 3.53.622 5.217 1.247 1.091.371 2.206.619 3.35.741a15.294 15.294 0 0 0 6.77-.831 15.388 15.388 0 0 0 3.071-1.53l100.193-75.455c1.127-.849 1.483-1.593 1.448-1.881-.037-.297-.562-.928-1.86-1.478a9.622 9.622 0 0 1-4.172-2.839 9.66 9.66 0 0 1-2.155-4.561 9.575 9.575 0 0 1 .165-2.54c.164-.842.44-1.644.822-2.411a9.74 9.74 0 0 1 1.43-2.106 9.482 9.482 0 0 1 1.931-1.658l20.655-15.552c15-11.292 40.28-14.396 57.557-7.067l478.724 203.04c8.98 3.805 14.411 9.894 15.3 17.135.89 7.245-2.913 14.463-10.699 20.331L764.431 588.403a58.99 58.99 0 0 1-13.289 7.05 58.78 58.78 0 0 1-14.633 3.465ZM255.078 343.014a13.484 13.484 0 0 0-6.412 2.329l-20.649 15.551c-5.583 4.202-8.351 8.997-7.798 13.497.553 4.504 4.397 8.482 10.832 11.209L709.77 588.641c14.819 6.283 37.33 3.519 50.193-6.163l172.854-130.171c5.578-4.206 8.35-9.002 7.798-13.501-.552-4.495-4.397-8.478-10.832-11.21l-478.725-203.04c-14.817-6.279-37.324-3.515-50.188 6.163l-20.654 15.551c-1.126.849-1.482 1.593-1.446 1.885.035.288.56.924 1.859 1.474a9.64 9.64 0 0 1 4.171 2.839 9.423 9.423 0 0 1 1.382 2.141c.367.772.627 1.582.774 2.425a9.62 9.62 0 0 1-.165 2.539 9.584 9.584 0 0 1-2.252 4.513 9.53 9.53 0 0 1-1.927 1.657l-100.198 75.456a22.518 22.518 0 0 1-4.759 2.477 22.533 22.533 0 0 1-5.212 1.286c-1.792.22-3.582.221-5.368.013a22.557 22.557 0 0 1-5.222-1.251 13.45 13.45 0 0 0-6.775-.71Z" class="Vector"/>
      <path fill="#0055A7" d="M277.884 314.605c2.879 1.222 3.188 3.738.69 5.621a10.719 10.719 0 0 1-4.73 1.762 10.72 10.72 0 0 1-5.016-.566c-2.879-1.222-3.187-3.738-.69-5.62a10.725 10.725 0 0 1 4.73-1.763 10.717 10.717 0 0 1 5.016.566Zm67.594-44.764-53.231 40.087a10.037 10.037 0 0 1-4.481 1.455 10.03 10.03 0 0 1-4.655-.718c-2.879-1.222-3.46-3.534-1.295-5.162l53.226-40.086a10.033 10.033 0 0 1 4.481-1.455c1.608-.13 3.165.107 4.659.712 2.879 1.222 3.46 3.534 1.296 5.167Z" class="Vector"/>
      <path fill="#B6DF55" d="m749.087 610.166 4.605-.565 2.17 17.671-4.605.566-2.17-17.672Zm-42.401.415 4.605-.565 2.169 17.667-4.605.565-2.169-17.667Zm81.493-21.801 4.605-.565 2.17 17.676-4.605.566-2.17-17.677ZM229.648 408.759l4.605-.565 2.169 17.667-4.605.565-2.169-17.667Zm721.006 56.986 4.605-.566 2.17 17.672-4.605.565-2.17-17.671Zm-737.367-63.946 4.605-.565 2.17 17.671-4.605.566-2.17-17.672Zm508.462 210.245 4.609-.566 2.171 17.676-4.61.566-2.17-17.676ZM372.321 483.388a5.52 5.52 0 0 1-2.876-.449l-18.616-7.895a11.849 11.849 0 0 1-2.398-1.627 12.073 12.073 0 0 1-3.306-4.701 11.98 11.98 0 0 1-.719-2.806 5.805 5.805 0 0 1 .193-3.058 5.761 5.761 0 0 1 1.717-2.541 4.852 4.852 0 0 1 2.44-.883 4.86 4.86 0 0 1 2.55.484l18.621 7.899a11.89 11.89 0 0 1 2.398 1.627 12.056 12.056 0 0 1 3.306 4.701c.354.905.595 1.838.719 2.806a5.75 5.75 0 0 1-.194 3.059 5.79 5.79 0 0 1-1.716 2.54 4.316 4.316 0 0 1-2.119.844Zm-22.997-19.219c-.293.035-.402.453-.313 1.176a7.526 7.526 0 0 0 1.206 3.125 7.54 7.54 0 0 0 2.427 2.305l18.621 7.893c.154.069.315.108.482.126.025-.431.026-.859-.002-1.284a7.53 7.53 0 0 0-1.206-3.125 7.61 7.61 0 0 0-2.428-2.309l-18.615-7.89a.974.974 0 0 0-.172-.017Zm508.133 91.819a4.315 4.315 0 0 1-2.261-.306 5.79 5.79 0 0 1-2.28-2.05 5.732 5.732 0 0 1-.927-2.921 12.01 12.01 0 0 1 4.028-10.412l16.151-12.173a4.827 4.827 0 0 1 2.362-1.093 4.825 4.825 0 0 1 2.582.272 5.719 5.719 0 0 1 2.275 2.055c.576.888.885 1.861.932 2.916.11.969.106 1.932-.019 2.896a11.96 11.96 0 0 1-2.075 5.362c-.554.798-1.2 1.514-1.934 2.154l-16.152 12.168a5.52 5.52 0 0 1-2.682 1.132Zm17.808-24.429-16.459 12.444a7.568 7.568 0 0 0-1.798 2.823 7.493 7.493 0 0 0-.414 3.32c.009.475.159.904.449 1.282l.306-.281 16.152-12.168a7.539 7.539 0 0 0 1.799-2.818 7.495 7.495 0 0 0 .414-3.32 2.125 2.125 0 0 0-.449-1.282Zm-468.104-32.92a5.486 5.486 0 0 1-2.871-.45l-18.621-7.899a12.01 12.01 0 0 1-4.34-3.772 12.327 12.327 0 0 1-1.369-2.55 12.028 12.028 0 0 1-.714-2.807 5.707 5.707 0 0 1 .194-3.059 5.772 5.772 0 0 1 1.715-2.545 4.825 4.825 0 0 1 2.446-.879 4.9 4.9 0 0 1 2.55.489l18.616 7.895a12.035 12.035 0 0 1 4.34 3.772 12.045 12.045 0 0 1 2.087 5.356 5.733 5.733 0 0 1-.198 3.055 5.717 5.717 0 0 1-1.707 2.544 4.304 4.304 0 0 1-2.128.85Zm-1.061-4.724c.154.069.315.112.487.125.03-.432.03-.86.003-1.284a7.51 7.51 0 0 0-1.206-3.121 7.512 7.512 0 0 0-2.427-2.299l-18.621-7.899c-.403-.15-.591.296-.486 1.154a7.576 7.576 0 0 0 1.201 3.121 7.488 7.488 0 0 0 2.428 2.304l18.621 7.899Zm-76.137-27.549a5.46 5.46 0 0 1-2.878-.459l-3.864-1.642a11.826 11.826 0 0 1-2.398-1.622 11.87 11.87 0 0 1-1.941-2.144 12.102 12.102 0 0 1-1.369-2.551 12 12 0 0 1-.713-2.802 5.743 5.743 0 0 1 .193-3.059 5.791 5.791 0 0 1 1.711-2.544 4.869 4.869 0 0 1 2.445-.884 4.86 4.86 0 0 1 2.55.484l3.87 1.651c.867.443 1.662.982 2.398 1.622a11.776 11.776 0 0 1 1.942 2.149 11.745 11.745 0 0 1 1.363 2.552c.355.905.596 1.838.719 2.801a5.744 5.744 0 0 1-.198 3.059 5.73 5.73 0 0 1-1.711 2.545 4.32 4.32 0 0 1-2.119.844Zm-8.246-12.962c-.297.037-.403.444-.313 1.177a7.51 7.51 0 0 0 1.205 3.116 7.46 7.46 0 0 0 2.423 2.299l3.87 1.651c.158.063.319.106.486.12.026-.426.022-.854-.002-1.284a7.53 7.53 0 0 0-1.205-3.12 7.52 7.52 0 0 0-2.423-2.305l-3.87-1.646a1.094 1.094 0 0 0-.171-.008Z" class="Vector"/>
      <path stroke="#0055A7" stroke-linecap="round" stroke-width="6.875" d="M535.995 517.675 753.68 354.431M460.007 484.217l217.681-163.243M384.015 450.755 601.7 287.511" class="Vector"/>
      <path stroke="#0055A7" stroke-linecap="round" stroke-width="6.866" d="m853.187 514.916-199.379-84.631" class="Vector"/>
      <path stroke="#0055A7" stroke-linecap="round" stroke-width="6.871" d="m500.055 361.754-157.477-66.848" class="Vector"/>
    </g>
    <g class="Home">
      <g class="Group">
        <path fill="#0055A7" d="M791.566 177.688h-90.042a24.665 24.665 0 0 1-2.307-.12 22.615 22.615 0 0 1-2.286-.339c-.756-.151-1.5-.338-2.24-.568a24.743 24.743 0 0 1-2.172-.776 23.733 23.733 0 0 1-5.922-3.557 25.077 25.077 0 0 1-1.708-1.552 24.125 24.125 0 0 1-1.552-1.713 23.596 23.596 0 0 1-1.375-1.86 24.61 24.61 0 0 1-1.188-1.979 24.09 24.09 0 0 1-.989-2.094 23.899 23.899 0 0 1-1.683-6.703 24.323 24.323 0 0 1-.114-2.307V90.906a22.887 22.887 0 0 1 1.677-8.687 22.8 22.8 0 0 1 4.828-7.417l48.167-49.885a21.42 21.42 0 0 1 1.411-1.329 19.574 19.574 0 0 1 3.188-2.197 19.72 19.72 0 0 1 1.739-.85 19.561 19.561 0 0 1 3.698-1.151c.63-.13 1.271-.229 1.912-.291a18.517 18.517 0 0 1 1.937-.099 18.3 18.3 0 0 1 1.932.099 19.093 19.093 0 0 1 3.792.776 19.297 19.297 0 0 1 3.563 1.516c.567.312 1.114.65 1.645 1.02.532.365 1.047.76 1.537 1.177.495.422.963.865 1.411 1.329l52.662 54.536a7.112 7.112 0 0 1 1.526 2.354c.177.438.307.89.39 1.355.089.463.125.932.12 1.406a7.065 7.065 0 0 1-.588 2.745 7.263 7.263 0 0 1-1.594 2.307 7.166 7.166 0 0 1-6.516 1.849 7.587 7.587 0 0 1-1.338-.438 7.11 7.11 0 0 1-1.229-.687 7.151 7.151 0 0 1-1.068-.922l-52.667-54.51a4.768 4.768 0 0 0-.755-.657 4.48 4.48 0 0 0-.875-.49 4.72 4.72 0 0 0-.953-.301 4.582 4.582 0 0 0-.995-.105 4.55 4.55 0 0 0-.995.105 4.666 4.666 0 0 0-.958.302c-.307.13-.599.297-.875.49a5 5 0 0 0-.755.655L694.79 84.776a8.601 8.601 0 0 0-1.828 2.833 8.677 8.677 0 0 0-.63 3.313v63.198c0 .604.062 1.203.182 1.797.114.593.292 1.166.526 1.729.229.557.51 1.088.849 1.594.338.5.719.968 1.146 1.395.427.428.89.813 1.396 1.146a9.093 9.093 0 0 0 3.317 1.38c.589.12 1.188.178 1.792.178h90.047c.469 0 .937.046 1.396.14.463.089.911.224 1.343.406a7.26 7.26 0 0 1 1.24.662c.391.266.755.562 1.083.896.334.333.631.692.896 1.083.261.391.479.807.662 1.24.177.437.312.885.406 1.349.088.458.135.927.135 1.395 0 .474-.047.938-.135 1.401a7.424 7.424 0 0 1-.406 1.344 7.498 7.498 0 0 1-.662 1.245c-.265.391-.562.75-.896 1.083a6.765 6.765 0 0 1-1.083.891 6.948 6.948 0 0 1-1.24.667c-.432.177-.88.312-1.343.406a6.96 6.96 0 0 1-1.396.141h-.021Z" class="Vector"/>
      </g>
    </g>
    <g class="Title">
      <g class="P">
        <g class="Group">
          <g class="Group">
            <path fill="#000" d="M346.141 141.144c0 3.916-.37 7.958-.37 11.875 0 .364.245.854.245 1.224v.244c-.12.365-.61.61-.98.735-.364.245-.734.364-1.223.489h-.245c-4.042 0-8.078-.244-11.995-.244-.37 0-.615 0-.859-.125-.37 0-.615 0-.735-.245-.37-.12-.614-.245-.614-.61-.12-.125-.245-.244-.245-.489-.12-.37-.12-.735-.12-1.104V127.06c0-2.812.245-5.75.245-8.567 0-2.938-.245-5.756-.245-8.693 0-3.063.245-6.12.245-9.302 0-3.063-.245-6.125-.245-9.308 0-3.062.12-6.12.12-9.302 0-3.062.125-6.125.125-9.307 0-.365 0-.734.12-1.099.125-.614.489-.979 1.104-1.104.245-.125.489-.125.734-.125h22.281c.49 0 1.105-.12 1.594-.12h.979c.245 0 .365.245.61.245 1.224.245 2.573.37 3.797.734 1.224.37 2.447.735 3.552 1.224.489.125.979.37 1.343.49.735.49 1.594.734 2.329 1.224.489.245.734.734 1.104.979.609.37 1.099.734 1.713 1.104l1.589 1.1c.489.489.979 1.223 1.469 1.713l1.104.984a8.6 8.6 0 0 0 .979 1.224l.364.49c.615.854 1.105 1.833 1.714 2.692.37.855.859 1.589 1.229 2.323.245.615.61 1.104.854 1.594.245.61.49 1.224.615 1.838.364.98.609 2.079.854 3.058.125.734 0 1.469 0 2.203.125.49.37.86.37 1.349 0 .12-.125.12-.125.12.125.734.245 1.469.245 2.208 0 .49-.12 1.099-.12 1.589-.125 1.468-.245 2.817-.615 4.161-.12.734-.364 1.349-.609 1.958-.245.735-.49 1.349-.734 2.084l-.37 1.349c-.245.364-.245.734-.365 1.099-.245.369-.614.614-.859.979l-.735 1.594c-.489.609-.859 1.343-1.349 1.958-.364.609-.979 1.099-1.343 1.588-.245.37-.49.615-.735.86-.244.245-.489.489-.734.859l-1.839 1.589c-.854.734-1.588 1.468-2.567 2.083-.74.49-1.474.979-2.328 1.344-.735.37-1.469.734-2.084 1.104-1.224.49-2.567.854-3.791 1.224-.98.365-1.964.49-2.943.609-.49.125-.979.125-1.469.25h-1.588c-.615.12-1.224.12-1.714.12-1.714 0-3.307-.12-5.021-.12-.245 0-.489.245-.859.245-.365.12-.735.49-.854.979 0 .365-.125.61-.125.854 0 1.469.125 8.204.125 11.756Zm-.125-42.485c0 .735-.12 1.594-.12 2.328 0 .855.12 1.589.12 2.448 0 1.589.125 3.302.125 5.021l-.125.854c0 .49.614.979 1.104.979.245 0 .489.125.854.125 1.594 0 3.307.12 5.021.12.37 0 .734.125 1.104 0 .734 0 1.469-.245 2.203-.364l1.469-.735c.609-.244 1.099-.614 1.594-.979.609-.37.979-.739 1.468-1.104.61-.49 1.099-.979 1.469-1.594.245-.364.49-.609.609-.979a3.8 3.8 0 0 0 .615-.854c.365-.734.734-1.224.979-1.958 0-.245-.125-.615 0-.98.12-.614.365-1.349.365-2.083 0-.37-.245-.734-.245-.98v-.978c-.12-.37 0-.86-.12-1.224-.125-.49-.245-.98-.489-1.469-.245-.615-.615-1.224-.98-1.838a9.828 9.828 0 0 0-1.468-1.834c-.125-.125-.37-.125-.615-.245-.489-.614-.979-1.229-1.588-1.593-.615-.37-1.23-.615-1.839-.86-1.349-.61-2.818-.734-4.406-.734l-.86.125c-.244-.125-.364-.245-.609-.245-1.349 0-2.698 0-4.167.12-.244 0-.489 0-.609.125-.37.12-.49.245-.615.49-.119.364-.119.734-.119 1.098v4.901c0 1.224.119 2.323 0 3.547 0 .49-.125.98-.125 1.35Z" class="Vector"/>
          </g>
        </g>
      </g>
      <g class="I">
        <g class="Group">
          <g class="Group">
            <path fill="#000" d="M392.904 112.862c0-3.182-.12-6.489-.12-9.671v-9.672c0-3.308.12-6.49.12-9.797V74.05c0-.49-.12-1.1-.12-1.589v-.37c.12-.489.364-.979.734-1.343.49-.245.979-.37 1.349-.495.365-.12.854-.245 1.344-.245 2.937 0 5.875.245 8.818.245.609 0 1.224 0 1.958.125.979.245 1.588.734 1.958 1.713v1.225c0 2.937.12 5.874.12 8.692 0 2.938-.365 5.875-.365 8.818v8.693c.245 2.937.245 5.75.245 8.687 0 2.943.12 5.755.12 8.693v17.51c0 2.818-.12 5.755-.12 8.693 0 2.937.12 5.755.12 8.693a4.89 4.89 0 0 1-.365 1.833c-.125.49-.244.979-.489 1.349-.37.365-.859.365-1.224.49-.615 0-.979.244-1.469.244-2.818 0-5.88-.125-8.693-.125-.614 0-1.348 0-1.958-.119-1.104-.245-1.474-.86-1.719-1.839-.119-.365-.119-.734-.119-1.224 0-3.302-.245-6.609-.245-9.917v-9.791c0-3.308.12-6.615.12-9.917v-9.917Z" class="Vector"/>
          </g>
        </g>
      </g>
      <g class="C">
        <g class="Group">
          <g class="Group">
            <path fill="#000" d="M465.872 69.399c.98 0 2.084-.245 3.063-.245.609 0 1.224.245 1.833.49.37.12.979.12 1.224.49.125.119.125.369.245.489.245.37.37.734.49 1.104.369 1.469.489 3.057.489 4.77 0 1.594-.12 3.308-.12 4.777v.614c0 .12.12.245.12.365v.734l-.245.125c0 1.47-.489 3.058-1.833 3.672-.49.245-.979.12-1.349.245-.365 0-.734.12-1.099.12-3.307.37-6.489.49-9.672.979-3.182.49-6.245 1.104-9.182 3.188-2.938 1.958-5.635 4.406-7.594 7.343-.12.37-.489.615-.734.98l-.854 1.593c-.49.979-.615 1.959-.98 2.938-.369.979-.369 1.958-.614 2.812-.245.86-.854 1.719-.979 2.573-.12.979-.12 1.839-.12 2.818 0 1.713.12 3.302.365 5.015.125.125.489.125.614.245.12.86.245 1.594.49 2.328.854 2.328 1.468 4.651 2.812 6.61 1.224 1.963 2.693 4.041 4.531 5.635.49.365 1.105.49 1.469.735 3.427 2.692 7.469 4.286 11.755 4.895.61.125 1.224.615 1.834.615 1.224 0 3.187-.245 5.021-.245 2.328 0 4.651.365 5.51 1.958.245.245.609.365.609.735 0 .12.125.245.125.489 0 .245-.244.61-.244.855 0 .244.244.369.244.614 0 0 .12.12.12.245-.12.245-.245.49-.12.734 0 .12.245.12.245.245 0 2.203-.245 4.406-.245 6.61 0 .125.12.244.12.244-.12.245-.245.49-.245.615.125.12 0 .245-.119.364 0 .125.364.37.364.615 0 .609-.364 1.099-.609 1.714-.735 1.958-3.183 2.328-5.386 2.328-1.224 0-2.448-.125-3.432-.125-.245 0-.365-.12-.609-.12h-.125c-.12 0-.245.245-.365.245-2.693-.125-5.266-.49-7.838-.985a51.305 51.305 0 0 1-7.344-2.448c-2.448-.979-4.776-2.078-7.099-3.427v-.244a49.05 49.05 0 0 1-7.349-5.756c-2.203-2.203-4.281-4.526-5.995-7.224-1.719-2.567-2.943-5.385-4.042-8.323-.244-.489-.244-1.104-.489-1.593-.49-1.344-1.224-2.693-1.469-4.162-.245-.979-.125-1.958-.245-3.057-.125-.615-.489-1.224-.489-1.839-.125-.244-.245-.489-.245-.734s.245-.615.12-.979c-.12-3.182-.12-6.365.37-9.552.119-.61.364-1.099.489-1.589.12-.489 0-.979.12-1.468.125-.49.245-1.105.37-1.594l.364-.979c.245-.735.37-1.47.615-2.203.245-.615.245-1.35.489-1.959.855-2.203 2.204-4.161 3.428-6.12 1.104-1.963 2.692-3.677 4.161-5.51.37-.37.245-1.104.615-1.469.244-.245.734-.37.979-.614 1.958-2.203 4.286-4.162 6.734-5.875 2.448-1.714 5.261-3.183 7.958-4.287 2.813-1.224 5.631-2.203 8.568-2.818 1.958-.364 3.797-.364 5.755-.364h4.651Z" class="Vector"/>
          </g>
        </g>
      </g>
      <g class="K">
        <g class="Group">
          <g class="Group">
            <path fill="#000" d="M487.664 112.862c0-2.692-.245-5.51-.245-8.203v-8.083c0-2.813.245-5.505.245-8.203V72.09c0-.364-.125-.609-.125-.979.125-.49.489-.734.979-.859l.859-.12c1.349 0 2.693.12 3.917.12 2.693 0 5.266-.245 7.958-.245.245 0 .49.125.735.245.734.125.979.495.979 1.104.125.49.245 1.104.245 1.594v9.917c0 3.302-.12 6.609-.12 9.916 0 3.182.12 6.49.12 9.792 0 .49-.12.859 0 1.349.244.609.734.734 1.349.854.364.125.734.245 1.099.245 1.713 0 3.432.245 5.265.245.979-.12 2.083-.245 3.063-.61a7.954 7.954 0 0 0 1.713-.979c.61-.37 1.224-.979 1.714-1.469.489-.614.734-1.224 1.104-1.838.245-.61.364-1.344.609-2.084 0-.364.245-.854.245-1.343.125-.49-.12-.98-.12-1.469v-7.839c0-2.567.245-5.14.245-7.833 0-2.573-.125-5.266-.125-7.833 0-.245.125-.615.245-.86 0-.49.245-.609.614-.734.365-.125.61-.125.855-.125 4.041-.12 8.083 0 12 0 .364 0 .609-.12.979 0 .245.125.489.37.609.615 0 .244.125.37.125.614.12 3.183-.125 6.484-.125 9.672 0 2.323.245 4.651.245 6.974 0 2.328-.12 4.656-.12 6.86 0 .364.12.734.12 1.098-.12.49-.12.86-.12 1.224 0 .615-.125 1.224-.125 1.719-.12.854-.12 1.589-.245 2.323-.119.615-.489 1.104-.609 1.714-.245.734-.37 1.593-.615 2.328l-.364.979c-.125.489-.37.854-.615 1.224l-1.099 1.713c-.489.615-.734 1.349-1.104 1.959l-1.099.979c-.245.37-.125.859 0 1.349 0 .364.12.734.245.979l1.099 1.099c.37.489.614.979.979 1.469l1.469 2.208c.245.49.614.979.859 1.589.12.125.12.489.12.734.49.859.734 1.713.979 2.573.245.734.37 1.469.49 2.203 0 .49.125 1.104.125 1.594.12 1.588.12 3.182.12 4.771 0 1.468.125 3.062.125 4.656v16.281c0 .245-.245.49-.245.734-.125.49-.245.855-.615.98-.245.119-.609-.125-.734-.125-1.959.125-3.792.125-5.63.125-1.959 0-3.797.244-5.631.244-.489 0-.979-.369-1.349-.369-.244 0-.364 0-.609-.12a.682.682 0 0 1-.615-.37c-.119-.12.125-.49.125-.609-.125-1.839-.244-3.672-.244-5.511v-9.791c0-3.308.119-6.615.119-9.797 0-1.224-.364-2.448-.854-3.552-.245-.735-.859-1.224-1.224-1.714-.369-.49-.614-.979-.984-1.224-.245-.12-.365-.365-.609-.49-.86-.609-1.714-1.098-2.693-1.343-.49-.125-.979-.245-1.594-.245h-.489c-.245 0-.49.12-.735.12 0 0-.12-.12-.245-.12-.244 0-.364.12-.609.12-1.224 0-2.453-.12-3.677-.12h-.49l-.119.12c-.37 0-.735-.12-1.105 0-.364 0-.734.245-.979.489-.245.245-.364.49-.489.86v1.224c0 3.302-.12 6.609-.12 9.791 0 3.308.12 6.615.12 9.917 0 3.307-.12 6.615-.12 9.917 0 .489.12.979.12 1.468-.12.37-.365.615-.735.86l-.12.12c-.244 0-.489.125-.734.125-3.797.119-7.469-.125-11.141-.125-.489 0-.979.125-1.468 0h-.495c-.49-.12-.734-.365-.854-.855 0-.244-.125-.489-.125-.734v-8.203c0-2.693.125-5.511.125-8.203 0-2.693-.125-5.386-.125-8.203v-8.203c0-2.693.125-5.386.125-8.079Z" class="Vector"/>
          </g>
        </g>
      </g>
      <g class="L">
        <g class="Group">
          <g class="Group">
            <path fill="#000" d="M549.731 112.737c0-3.302.125-6.609.125-9.916 0-3.427-.245-6.735-.245-10.037 0-3.307.12-6.614.12-9.916 0-3.308.125-6.735.125-10.042 0-.49 0-.98.12-1.469.245-.49.614-.979 1.104-1.224.245 0 .615 0 .859-.125.49 0 .979.125 1.469.125 2.693 0 5.385-.125 8.078-.125.49 0 .979.125 1.469.245.37.25.979.37 1.104.74.12.244 0 .49 0 .734.12.364.365.734.365 1.224v8.693c0 2.937.125 5.875.125 8.812 0 2.938-.125 5.875-.125 8.818v8.812c0 2.938-.12 5.875-.12 8.813 0 2.818.245 5.755.245 8.693 0 2.942-.245 5.88-.245 8.817v1.099c0 .37.12.735.12 1.104.125.86.244 1.714.734 2.448.37.615.734 1.224 1.349 1.469.734.245 1.344.245 2.078.245h.245c.125 0 .37.245.615.125.119 0 .244-.245.364-.245.245 0 .495.12.74.12 1.588 0 3.302.245 4.896.245.609 0 1.098 0 1.588.244.49.245.979.37 1.104.735.245.37.245.859.245 1.224.12.734-.125 1.349-.125 2.083v7.099c0 .49.125 1.104 0 1.594-.245.854-.854 1.224-1.714 1.469-.609.119-1.098 0-1.588 0-3.672 0-7.349.119-11.021.119-3.672 0-7.469.125-11.141.125-.364 0-.854-.125-1.343-.244-.495 0-.86-.37-1.229-.86-.245-.12-.245-.489-.245-.734-.12-.365-.365-.854-.365-1.224 0-3.302.245-6.61.245-9.917 0-3.427-.125-6.734-.125-10.036 0-3.308.125-6.615.125-9.917 0-3.427-.125-6.734-.125-10.042Z" class="Vector"/>
          </g>
        </g>
      </g>
      <g class="E1">
        <g class="Group">
          <g class="Group">
            <path fill="#000" d="M587.564 111.269c0-.855.12-1.714.365-2.568-.609-.245.859-5.635 1.104-6.49.854-3.921 2.448-7.713 4.281-11.14.86-1.35 1.719-2.818 2.698-4.042 2.078-2.818 4.651-5.63 7.344-7.838.37-.365.734-.61 1.104-.855.12-.125.365-.245.49-.49l3.792-2.572c.244-.12.734-.12.979-.365.369-.125.734-.37 1.104-.49.12-.124.12-.37.245-.37 0-.119.119 0 .244 0a2.62 2.62 0 0 1 .98-.609c.244-.244.609-.244.859-.49.245 0 .365-.244.49-.244.609-.245 1.224-.37 1.713-.615.49-.12 1.099-.244 1.589-.489.244 0 .369-.365.614-.365.12-.125.365-.125.61-.125.125-.12.369 0 .489 0 .245-.12.49-.12.735-.244.244 0 .489-.245.734-.365.245-.125.49-.125.734-.125l2.453-.615c.49 0 1.099 0 1.714-.12.365 0 .734-.244 1.099-.244.615-.125 1.104 0 1.713-.125 1.349-.12 2.693.245 3.428 1.474.244.364.244.854.369 1.224.245 2.078.37 4.161.37 6.24 0 1.223 0 2.453-.125 3.551-.125 2.328-.614 4.532-3.307 4.896h-.49c-.245.125-.489 0-.734 0l-1.714.37c-7.099 1.589-13.713 6.365-17.26 12.734-.245.49-.245.98-.49 1.469l-.489.854c0 .245.245.37.245.49 0 .245-.125.49.119.734.125.245.37.49.615.615.49.12.854 0 1.344 0 .489 0 1.104.12 1.593.12h.49c.12-.12.245.125.365.125 2.328 0 4.656 0 6.979-.125 1.224 0 2.328 0 3.432-.12.979 0 1.958.245 2.938.245h.244c.855 0 2.078 0 2.813.244.125.12.125.12.245.12.734.49 1.224 1.224 1.349 2.084.119.489.119 1.099.119 1.588v7.224c0 .125-.119.245-.119.245 0 .125.244.245.244.489 0 1.349 0 3.553-1.224 4.532-.979.734-1.958.859-3.062.859-.734 0-1.344 0-2.078-.125-2.209-.12-4.656.125-6.86.125-2.447 0-4.776-.125-7.099-.125-.489 0-1.104 0-1.593.245-.365.125-.61.37-.735.614-.244.245-.364.49-.364.735s-.125.489 0 .734c0 .365.245.61.489.979v.365l.855 1.469c.369.739 1.104 1.349 1.593 2.083.854 1.224 1.834 2.083 2.938 3.182.489.37.734.98 1.224 1.469 1.224.979 3.062 1.839 4.531 2.693 2.078 1.104 4.406 2.083 6.734 2.573.245.125.61.125.98.125.489.12.979.12 1.343.245a8.664 8.664 0 0 1 1.714.489c.37.12.614.365.979.734.245.245.49.365.615.61.364.614.364.979.364 1.349v1.224c.125.979.125 1.958.125 2.937 0 1.104 0 2.084-.125 3.183 0 .979 0 1.958-.12 2.937 0 .734.12 1.839-.125 2.448 0 .245-.244.49-.364.734l-.37.25c-.12.12-.49.245-.609.245-.735.365-1.349.49-1.959.49-.489 0-.979 0-1.349-.245-.489-.125-.979 0-1.468 0-.735-.125-1.469-.245-2.079-.49-.125 0-.369.12-.489 0-.495 0-.86-.369-1.349-.494-.245-.12-.615.125-.979 0-.615-.12-1.349-.365-1.959-.61-1.224-.489-2.448-1.104-3.671-1.469-1.105-.369-2.209-.614-3.188-1.104-.245-.12-.49-.364-.245-.609-.734.609-4.406-2.448-4.896-2.818-.489-.245-.979-.364-1.468-.734-.365-.365-.855-.735-1.344-1.099-.984-.74-1.839-1.839-2.818-2.698-1.713-1.469-3.427-3.547-4.896-5.385l-.979-1.344c-.489-.74-.734-1.594-1.229-2.453-.245-.365-.49-.61-.734-.98l-.12-.489c-.735-1.224-1.594-2.568-2.083-3.792-.49-1.594-1.224-3.062-1.589-4.531l-.37-1.224c-.12-.37 0-.734-.12-1.104-.125-.49-.125-.854-.125-1.344-.119-.489-.489-.859-.609-1.349-.125-.734-.125-1.469-.245-2.203-.125-.979-.125-1.839-.125-2.818-.12-1.224-.12-2.567-.12-3.916Z" class="Vector"/>
          </g>
        </g>
      </g>
      <g class="H">
        <g class="Group">
          <g class="Group">
            <path fill="#000" d="M693.463 112.862v16.526c0 2.818-.125 5.511-.125 8.329 0 2.692.125 5.505.125 8.197 0 2.818.12 5.511.12 8.329 0 .244-.245.489-.365.734-.125.49-.37.734-.859.859-.365 0-.735.245-1.099.245h-12.854c-.245 0-.615-.37-.979-.495-.37 0-.49-.244-.615-.609 0-.125-.12-.245-.12-.49-.125-.244 0-.369 0-.614 0-3.057-.125-6.12-.125-9.057 0-3.063.125-6.12.125-9.183 0-3.062-.125-6.12-.125-9.062v-1.099c-.12-.49-.364-.735-.979-.735 0-.125-.125-.125-.245-.125-3.672 0-7.344-.119-11.021-.119h-.489c-.365.119-.735.489-.735.854-.119.37 0 .614 0 .859v9.302c0 3.188-.119 6.245-.119 9.308 0 3.182-.125 6.244-.125 9.302 0 .369.369.614.244.859-.119.609-.609.859-1.099.979-.369 0-.734.125-1.104.125-4.286-.125-8.567-.125-12.729-.125h-1.104c-.37-.12-.49-.614-.615-.979 0-.125-.244-.37-.244-.49 0-.244.125-.614.125-.859v-9.182c0-3.058-.125-6.12-.125-9.058 0-3.062.125-6.119.125-9.182 0-3.062-.245-6-.245-9.062 0-3.058.245-6.12.245-9.183 0-3.057-.125-5.994-.125-9.057V80.665c0-3.063.244-6.126.244-9.183 0-.245-.119-.49 0-.734 0-.37.125-.86.49-.985.245 0 .49-.12.74-.12h.489c2.203 0 4.406.12 6.609.12h7.344c.49.125.735.49.86.985v11.63c0 2.568.244 5.26.244 7.833 0 2.693-.369 5.266-.369 7.959 0 2.692.125 5.265.125 7.958v.854c0 .37.489.735.854.86.125 0 .245-.245.37-.245 3.796 0 7.468.12 11.14.12.12 0 .245.125.365 0 .495 0 .859-.49.859-.855.125-.369-.12-.614-.12-.979 0-2.937.12-5.755.12-8.573v-8.567c0-2.938.125-5.756.125-8.568 0-2.943-.245-5.755-.245-8.573 0-.365.245-.61.365-.854.125-.37.245-.495.615-.615.119-.125.364-.37.609-.37h.37c2.323 0 4.526.245 6.729.245 2.208 0 4.411-.245 6.614-.245.245 0 .49.125.735.245.489 0 .734.245.854.74 0 .245.125.364.245.49 0 .364-.12.609-.12.853 0 2.693.12 5.386.12 8.204 0 2.692-.245 5.385-.245 8.078v16.286c0 2.813.125 5.511.125 8.203Z" class="Vector"/>
          </g>
        </g>
      </g>
      <g class="O">
        <g class="Group">
          <g class="Group">
            <path fill="#000" d="M748.551 156.571s-.119-.125-.244-.125c-.735 0-1.469.245-2.203.245-.61 0-1.224-.12-1.834-.245-.489 0-.979-.245-1.469-.245-.614-.12-1.104-.245-1.713-.365l-2.698-.369c-.854-.245-1.833-.49-2.693-.86-.489-.12-.979-.364-1.468-.489-.98-.365-1.959-.735-2.938-1.224-.734-.245-1.594-.61-2.328-1.099-1.224-.615-2.448-1.349-3.672-2.084-1.099-.734-2.323-1.468-3.427-2.323l-1.839-1.349c-.364-.244-.734-.614-1.099-.979-.369-.369-.614-.734-.979-.979-.125-.125-.245 0-.37-.125-.119 0 .125-.245 0-.364-.119-.125-.489-.125-.734-.37-.364-.49-.609-.979-1.099-1.469-.37-.49-.979-.734-1.349-1.224l-1.344-1.833c-.489-.615-.979-1.224-1.349-1.839l-1.348-2.448c-.735-1.104-1.099-2.203-1.714-3.427-.245-.489-.365-1.104-.609-1.713l-1.105-2.698a48.803 48.803 0 0 1-1.224-3.917c-.119-.609-.119-1.344-.244-2.078-.12-.37-.365-.859-.365-1.349-.125-.245.12-.609 0-.854 0-.245-.125-.49-.125-.74l-.364-1.469c0-.489.119-.854 0-1.223 0-.365.244-.735.244-.98 0-.119-.125-.364-.125-.489v-.245c0-.365-.119-.734-.119-1.099v-2.573c0-.734.364-1.349.364-2.083.125-.61 0-1.344.125-1.959 0-.364.245-.609.245-.979.12-.364.12-.854.245-1.343.119-.735.609-1.349.734-2.084.245-.734.245-1.588.49-2.448.244-.734.854-1.469 1.099-2.203.369-.86.489-1.713.859-2.448.245-.614.734-1.104 1.099-1.713.615-1.105.979-2.329 1.719-3.433.609-.979 1.224-1.958 1.958-2.937.49-.61 1.224-.98 1.714-1.589.364-.37.609-.859.979-1.224 0-.125-.125-.244-.125-.244.614-.615 1.224-1.224 1.958-1.714.49-.49.979-1.104 1.594-1.594.245-.245.489-.614.859-.86l.979-.364c.61-.49 1.224-.979 1.959-1.468.734-.615 1.588-1.35 2.448-1.839l2.567-1.469c.979-.49 2.084-.854 3.188-1.224.489-.245.979-.734 1.469-.854.609-.245 1.224-.37 1.833-.614 1.713-.49 3.427-.86 5.146-1.105.364-.12.854-.364 1.343-.364.49-.125.98-.37 1.594-.37.365-.12.854 0 1.224 0 .245-.12.61 0 .979-.12h1.469c.12 0 .245-.245.365-.245h1.713c.37 0 .86-.124 1.229 0 .61 0 1.224.12 1.834.12h.859c.365.125.854 0 1.344.125.489 0 .979.365 1.469.365.979.245 1.838.245 2.817.49.37.124.86.124 1.349.244a17.03 17.03 0 0 1 3.547 1.104c.615.245 1.104.49 1.594.615l1.958.734c.735.365 1.469.98 2.203 1.344.86.49 1.839.86 2.693 1.469.49.37 1.224.614 1.839.979.609.49 1.343 1.104 1.958 1.713l1.344 1.105c.369.364.739.734 1.104.979.489.49.859.86 1.349 1.224l.854.734c.245.125.245.49.49.735.244.244.734.49 1.104.859.245.245.489.61.734.98.245.364.365.853.734 1.223l1.099 1.469c.49.61.98 1.099 1.349 1.833l1.099 1.474c.25.49.615 1.1.86 1.714.37.609.734 1.224.979 1.833.37.615.614 1.349.859 2.083.365.855.61 1.834.979 2.693.245.98.61 1.839.855 2.693.244.859.244 1.713.489 2.573.125.609.125 1.224.245 1.833 0 .49.125 1.104.125 1.714.12.244.245.489.245.739 0 .365.12.854.12 1.224v.12c0 .489.125 1.104.125 1.713.119.37-.245.735-.245 1.224 0 .49.245.98.245 1.594 0 .49 0 1.099-.125 1.589 0 .369-.12.614-.245.979v.859c0 .37-.12.735-.245 1.104v1.344c-.12.49-.365.979-.49 1.594-.244.979-.364 1.958-.609 2.812-.245.86-.615 1.594-.859 2.448-.12.495-.245.86-.365 1.349l-.734 1.594c-.49.979-.86 2.078-1.469 3.182-.49.735-.984 1.469-1.474 2.323-.49.735-.854 1.594-1.344 2.328-.489.615-.979.98-1.349 1.594-.364.49-.609 1.099-.979 1.589-.364.369-.609.734-.854 1.104-.245.245-.615.364-.859.609-.61.615-1.099 1.349-1.714 1.839-.245.364-.734.489-1.099.734-.245.245-.37.609-.495.734-.364.245-.734.49-1.099.735l-1.838 1.469c-.854.614-1.714 1.104-2.568 1.593-.615.365-1.104.855-1.713 1.224-.245.12-.49.12-.735.12-.489.37-.734.859-1.224 1.104-.614.245-1.349.49-1.963.854-.49.125-1.099.125-1.589.37-1.349.49-2.693.979-4.161 1.344-1.105.37-2.328.734-3.433.984-.854.12-1.713.12-2.448.245l-1.833.365c-.37 0-.734.245-1.104.245-.365.125-.854 0-1.224 0-.609.125-1.224-.12-1.839-.12Zm1.594-16.896c3.182-.125 6.49-.734 9.672-2.203 2.818-1.349 5.385-3.552 7.958-6 2.448-2.573 4.407-5.391 5.631-8.448 1.349-3.063 2.083-6.37 2.203-10.042.125-2.078-.12-4.281-.49-6.364-.489-1.839-1.224-3.672-2.078-5.386a27.123 27.123 0 0 0-4.651-6.86c-.984-1.098-1.964-2.202-3.063-3.056-1.713-1.35-3.671-2.454-5.63-3.308a23.391 23.391 0 0 0-5.635-1.838c-1.833-.365-3.547-.61-5.386-.61-2.572 0-5.14.365-7.713 1.1-2.083.734-4.042 1.713-6 2.817-1.958 1.224-3.672 2.448-5.266 4.042-1.833 1.833-3.547 3.916-4.771 6.244-.979 1.834-1.593 3.792-2.083 5.875-.609 2.323-1.344 4.651-1.344 6.98 0 2.448.61 4.77 1.224 6.979.61 2.323 1.344 4.526 2.568 6.609 1.224 2.203 2.938 4.042 4.651 5.755a30.508 30.508 0 0 0 5.88 4.282c2.203 1.229 4.407 1.963 6.979 2.573 2.204.369 4.526.859 7.344.859Z" class="Vector"/>
          </g>
        </g>
      </g>
      <g class="M">
        <g class="Group">
          <g class="Group">
            <path fill="#000" d="M859.718 122.654c0-3.057.119-6.245.119-9.302 0-3.063-.119-6.125-.119-9.307v-9.183c0-.49.119-.979.119-1.343 0-.125 0-.245-.119-.37 0-.365-.245-.61-.245-.98-.125-.489 0-.978-.245-1.468-.125-.49-.37-.854-.734-1.344-.49-.74-1.349-1.349-2.328-1.594-.365-.244-.855-.49-1.224-.49-.61 0-1.099.246-1.589.365-.734.245-1.474.49-1.963.98-.61.49-.98 1.104-1.344 1.718l-.37 1.1c-.12.244-.49.489-.609.859-.125.49 0 1.099 0 1.588-.125.98-.245 2.084-.245 3.063 0 2.937.245 6 .245 9.057 0 2.943-.125 6-.125 8.938v18c0 3.057.125 6 .125 9.057 0 2.937-.245 6-.245 8.937 0 .735.12 1.469-.125 2.084-.12.734-.365 1.224-.854 1.713-.37.245-.615.49-.979.61-.49.125-1.105.125-1.714.125-.245 0-.49 0-.859-.125-.365 0-.735.125-1.099.244h-6.735c-.125 0-.245-.119-.37 0l-.119-.119c-.37 0-.735.119-.979 0-.125 0-.125.119-.125.119-.49 0-.98-.119-1.469-.364-.615-.245-.979-.86-1.349-1.469-.12-.37-.245-.734-.245-1.104-.12-.365-.12-.61-.12-.979-.125-.854 0-1.834 0-2.693 0-3.063.12-6 .12-9.057 0-2.938-.12-5.881-.12-8.938v-8.937c0-2.938.12-6 .12-8.938 0-3.062-.12-6-.12-8.937 0-3.063.245-6 .245-9.063 0-.49-.37-.979-.37-1.588-.12-.37 0-.86 0-1.35v-.489c-.245-.61-.609-1.099-.854-1.589-.245-.37-.245-.859-.615-1.229-.119-.12-.364-.244-.609-.49-.489-.364-1.104-.609-1.838-.853-.245 0-.61-.245-.98-.125l-.489.125c-.61 0-.979.244-1.589.49-.495.244-1.104.609-1.474.978-.244.245-.489.37-.609.615-.615.854-1.224 1.713-1.469 2.693 0 .49.12.979.12 1.343v.245c-.12.735-.245 1.469-.245 2.203 0 2.943.125 5.756.125 8.693 0 2.938-.125 5.88-.125 8.818v8.692c0 2.938.125 5.875.125 8.813v21.182c0 .61-.37 1.099-.734 1.589-.245.489-.49 1.104-.979 1.349-.37.12-.735.245-1.105.245-.244.119-.489 0-.854 0-.125.119-.369 0-.489.119h-.125c-.61-.119-1.099 0-1.589.125h-.245c-1.718 0-3.432-.369-5.145-.369-.49 0-.855.125-1.344.244-.125 0-.245-.119-.37-.119-.12 0-.12-.125-.12-.125-.614 0-1.104 0-1.594-.12-.489-.125-.979-.125-1.348-.49-.365-.245-.49-.489-.61-.859-.245-.49-.614-.979-.614-1.589 0-.614.125-1.224.125-1.838v-.365c-.125-1.104-.245-2.203-.245-3.307s.245-2.203.245-3.307c0-2.938-.245-5.995-.245-9.058v-18.245c0-3.057.12-6.119.12-9.057v-9.182c.125-1.469-.245-3.063-.12-4.531 0-.49.245-.98.245-1.47.119-.364-.125-.609-.125-.978.125-.365.244-.735.244-.98.125-.979.49-1.838.735-2.817 0-.245.125-.49.125-.61 0-.244-.125-.37-.125-.614.245-.365.495-.734.739-1.224.12-.365.12-.734.245-1.099.12-.125.245-.37.245-.49.609-1.104 1.344-2.083 2.078-3.182.49-.615.979-1.23 1.469-1.719.489-.609.979-1.224 1.594-1.833.489-.49.854-.98 1.468-1.349.365-.364.854-.61 1.344-.98.615-.364.984-.853 1.474-1.223.734-.365 1.469-.61 2.078-.98.49-.119.859-.364 1.349-.489.245-.12.609-.12.979-.245.49-.12.979-.12 1.469-.244.609-.12 1.344-.49 1.958-.615.49 0 .854.125 1.349 0h.49c.854-.12 1.833-.245 2.693-.245 1.224.125 2.447.37 1.833.245.614.125 1.349.125 1.958.25.49.12.86.365 1.224.49.49.244 1.104.244 1.594.364.49.245 1.104.37 1.594.615.609.245 1.224.49 1.833.854.49.245.734.86 1.349 1.104.365.12.854.12 1.224.245.365 0 .734 0 .979-.125.609-.12 1.099-.61 1.589-.854.859-.49 1.593-.86 2.453-1.224.489-.125.979-.49 1.588-.615.37-.12.735-.12 1.104-.245.61-.12 1.224-.49 1.834-.609.614-.25 1.224-.125 1.838-.25 2.573-.245 9.183-.365 5.141-.12.859.12 1.714.37 2.573.49l1.344.245c.734.125 1.474.49 2.208.859.854.364 1.833.734 2.693 1.224l1.099.61c.489.37.859.734 1.349.978l.734.735c.12 0 0 .125 0 .125.609.49 1.224.854 1.714 1.344.734.859 1.468 1.713 2.083 2.573.489.614.734 1.349.979 2.083.365.61.854 1.099 1.099 1.713.37.61.49 1.344.734 2.079.37.859.615 1.593.735 2.328.245.734.37 1.343.489 1.958.125.614-.119 1.104-.119 1.594 0 .364.364.734.364 1.099 0 .125-.12.245-.12.37l.12.734c.125 0-.12 2.078-.12 1.958 0 .734.245 1.344.245 2.078 0 .615-.245 1.224-.245 1.964 0 2.812.245 5.75.245 8.568v25.953c0 2.817-.245 5.755-.245 8.573 0 2.812.12 5.755.12 8.567 0 .735 0 1.469-.12 2.084-.244.734-.614 1.224-1.104 1.713-.245.245-.609.365-.979.49-.49.245-1.099.12-1.589.12-.125 0-.244.244-.244.244h-.245c-.49-.119-.979 0-1.474.125-.12 0-.245-.244-.245-.244-1.713 0-3.427.119-5.26 0h-1.224c-.125 0-.245.119-.37.119-.12 0-.12.125-.12.125-.37-.125-.734-.244-1.104-.244 0 0 0-.125-.12-.125-.37 0-.859 0-1.349-.12-.489-.245-.859-.735-1.104-1.224-.245-.49-.49-.86-.49-1.349 0-.365.125-.735 0-.979-.119-.979 0-1.959 0-2.813v-26.203h-.119Z" class="Vector"/>
          </g>
        </g>
      </g>
      <g class="E2">
        <g class="Group">
          <g class="Group">
            <path fill="#000" d="M888.12 111.269c0-.855.119-1.714.364-2.568-.609-.245.86-5.635 1.104-6.49.855-3.921 2.448-7.713 4.282-11.14.859-1.35 1.718-2.818 2.698-4.042 2.078-2.818 4.651-5.63 7.343-7.838.37-.365.735-.61 1.105-.855.119-.125.364-.245.489-.49l3.792-2.572c.245-.12.734-.12.979-.365.37-.125.734-.37 1.104-.49.12-.124.12-.37.245-.37 0-.119.12 0 .245 0 .244-.244.609-.489.979-.609.245-.244.609-.244.859-.49.245 0 .365-.244.49-.244.609-.245 1.224-.37 1.713-.615.49-.12 1.099-.244 1.589-.489.245 0 .37-.365.614-.365.12-.125.365-.125.61-.125.125-.12.37 0 .489 0 .245-.12.49-.12.735-.244.245 0 .489-.245.734-.365.245-.125.49-.125.735-.125l2.453-.615c.489 0 1.099 0 1.713-.12.365 0 .735-.244 1.099-.244.615-.125 1.104 0 1.714-.125 1.349-.12 2.692.245 3.427 1.474.245.364.245.854.37 1.224a53.51 53.51 0 0 1 .369 6.24c0 1.223 0 2.453-.125 3.551-.125 2.328-.614 4.532-3.307 4.896h-.489c-.245.125-.49 0-.735 0l-1.713.37c-7.099 1.589-13.714 6.365-17.261 12.734-.245.49-.245.98-.489 1.469l-.49.854c0 .245.245.37.245.49 0 .245-.125.49.12.734.125.245.369.49.614.615.49.12.854 0 1.344 0 .49 0 1.104.12 1.594.12h.489c.12-.12.245.125.365.125 2.328 0 4.656 0 6.979-.125 1.224 0 2.328 0 3.432-.12.979 0 1.959.245 2.938.245h.245c.854 0 2.078 0 2.812.244.125.12.125.12.245.12.734.49 1.224 1.224 1.349 2.084.12.489.12 1.099.12 1.588v7.224c0 .125-.12.245-.12.245 0 .125.245.245.245.489 0 1.349 0 3.553-1.224 4.532-.979.734-1.959.859-3.063.859-.734 0-1.344 0-2.078-.125-2.208-.12-4.656.125-6.859.125-2.448 0-4.776-.125-7.099-.125-.49 0-1.104 0-1.594.245-.365.125-.609.37-.734.614-.245.245-.365.49-.365.735s-.125.489 0 .734c0 .365.245.61.49.979v.365l.854 1.469c.37.739 1.104 1.349 1.594 2.083.854 1.224 1.833 2.083 2.937 3.182.49.37.734.98 1.224 1.469 1.224.979 3.062 1.839 4.531 2.693 2.078 1.104 4.406 2.083 6.735 2.573.244.125.609.125.979.125.489.12.979.12 1.344.245a8.655 8.655 0 0 1 1.713.489c.37.12.615.365.979.734.245.245.49.365.615.61.364.614.364.979.364 1.349v1.224c.125.979.125 1.958.125 2.937 0 1.104 0 2.084-.125 3.183 0 .979 0 1.958-.119 2.937 0 .734.119 1.839-.125 2.448 0 .245-.245.49-.365.734l-.37.25c-.12.12-.489.245-.609.245-.735.365-1.349.49-1.958.49-.49 0-.98 0-1.349-.245-.49-.125-.98 0-1.469 0-.735-.125-1.469-.245-2.078-.49-.125 0-.37.12-.49 0-.495 0-.859-.369-1.349-.494-.245-.12-.614.125-.979 0-.615-.12-1.349-.365-1.958-.61-1.224-.489-2.448-1.104-3.672-1.469-1.104-.369-2.209-.614-3.188-1.104-.245-.12-.489-.364-.245-.609-.734.609-4.406-2.448-4.895-2.818-.49-.245-.98-.364-1.469-.734-.365-.365-.854-.735-1.344-1.099-.984-.74-1.838-1.839-2.818-2.698-1.713-1.469-3.427-3.547-4.895-5.385l-.98-1.344c-.489-.74-.734-1.594-1.229-2.453-.245-.365-.489-.61-.734-.98l-.12-.489c-.734-1.224-1.594-2.568-2.083-3.792-.49-1.594-1.224-3.062-1.589-4.531l-.37-1.224c-.119-.37 0-.734-.119-1.104-.125-.49-.125-.854-.125-1.344-.12-.489-.49-.859-.61-1.349-.125-.734-.125-1.469-.245-2.203-.125-.979-.125-1.839-.125-2.818-.119-1.224-.119-2.567-.119-3.916Z" class="Vector"/>
          </g>
        </g>
      </g>
    </g>
    <g class="Pickleball">
      <g class="Clip path group">
        <mask id="b" width="95" height="95" x="700" y="66" class="b" maskUnits="userSpaceOnUse" style="mask-type:luminance">
          <g class="1dddc11c04">
            <path fill="#fff" d="M700.535 66.573h93.567v93.568h-93.567V66.573Z" class="Vector"/>
          </g>
        </mask>
        <g class="Group" mask="url(#b)">
          <g class="Clip path group">
            <mask id="c" width="95" height="95" x="700" y="66" class="c" maskUnits="userSpaceOnUse" style="mask-type:luminance">
              <g class="9a7d44e0e0">
                <path fill="#fff" d="M747.316 66.573c-25.833 0-46.781 20.943-46.781 46.781 0 25.839 20.948 46.787 46.781 46.787 25.838 0 46.786-20.948 46.786-46.787 0-25.838-20.948-46.781-46.786-46.781Z" class="Vector"/>
              </g>
            </mask>
            <g class="Group" mask="url(#c)">
              <path fill="#FFF700" d="M700.535 66.573h93.567v93.568h-93.567V66.573Z" class="Vector"/>
            </g>
          </g>
        </g>
      </g>
      <g class="Clip path group">
        <mask id="d" width="94" height="94" x="700" y="66" class="d" maskUnits="userSpaceOnUse" style="mask-type:luminance">
          <g class="062c557fa9">
            <path fill="#fff" d="M700.535 66.573h93.26v93.255h-93.26V66.573Z" class="Vector"/>
          </g>
        </mask>
        <g class="Group" mask="url(#d)">
          <g class="Clip path group">
            <mask id="e" width="94" height="94" x="700" y="66" class="e" maskUnits="userSpaceOnUse" style="mask-type:luminance">
              <g class="f1fe2af150">
                <path fill="#fff" d="M747.165 66.573c-25.755 0-46.63 20.875-46.63 46.625 0 25.755 20.875 46.63 46.63 46.63 25.75 0 46.63-20.875 46.63-46.63 0-25.75-20.88-46.625-46.63-46.625Z" class="Vector"/>
              </g>
            </mask>
            <g class="Group" mask="url(#e)">
              <path stroke="#000" stroke-width="17.909" d="M747.165 66.573c-25.755 0-46.63 20.875-46.63 46.625 0 25.755 20.875 46.63 46.63 46.63 25.75 0 46.63-20.875 46.63-46.63 0-25.75-20.88-46.625-46.63-46.625Z" class="Vector"/>
            </g>
          </g>
        </g>
      </g>
      <g class="Clip path group">
        <mask id="f" width="12" height="9" x="759" y="80" class="f" maskUnits="userSpaceOnUse" style="mask-type:luminance">
          <g class="0287aff049">
            <path fill="#fff" d="M759.946 80.755h10.667v8h-10.667v-8Z" class="Vector"/>
          </g>
        </mask>
        <g class="Group" mask="url(#f)">
          <g class="Clip path group">
            <mask id="g" width="12" height="11" x="759" y="80" class="g" maskUnits="userSpaceOnUse" style="mask-type:luminance">
              <g class="0232cbea0d">
                <path fill="#fff" d="m759.811 84.37 2.885-4.078 8.151 5.78-2.89 4.074-8.146-5.776Z" class="Vector"/>
              </g>
            </mask>
            <g class="Group" mask="url(#g)">
              <g class="Clip path group">
                <mask id="h" width="10" height="8" x="760" y="81" class="h" maskUnits="userSpaceOnUse" style="mask-type:luminance">
                  <g class="3307e1d8cd">
                    <path fill="#fff" d="M761.243 82.344c-.792 1.12.38 3.312 2.615 4.896 2.234 1.588 4.692 1.968 5.484.849.792-1.115-.38-3.308-2.615-4.896-2.234-1.584-4.692-1.964-5.484-.85Z" class="Vector"/>
                  </g>
                </mask>
                <g class="Group" mask="url(#h)">
                  <path fill="#280301" d="m759.811 84.37 2.885-4.078 8.151 5.78-2.89 4.074-8.146-5.776Z" class="Vector"/>
                </g>
              </g>
            </g>
          </g>
        </g>
      </g>
      <g class="Clip path group">
        <mask id="i" width="9" height="13" x="774" y="104" class="i" maskUnits="userSpaceOnUse" style="mask-type:luminance">
          <g class="5173a9b382">
            <path fill="#fff" d="M774.613 104.755h8v12h-8v-12Z" class="Vector"/>
          </g>
        </mask>
        <g class="Group" mask="url(#i)">
          <g class="Clip path group">
            <mask id="j" width="9" height="12" x="774" y="105" class="j" maskUnits="userSpaceOnUse" style="mask-type:luminance">
              <g class="b7ceab133d">
                <path fill="#fff" d="m774.93 106.292 6.058-1 1.63 9.859-6.057 1-1.631-9.859Z" class="Vector"/>
              </g>
            </mask>
            <g class="Group" mask="url(#j)">
              <g class="Clip path group">
                <mask id="k" width="7" height="11" x="775" y="105" class="k" maskUnits="userSpaceOnUse" style="mask-type:luminance">
                  <g class="d52eb3ef29">
                    <path fill="#fff" d="M777.894 105.802c-1.635.271-2.599 2.688-2.151 5.391.448 2.703 2.135 4.677 3.771 4.406 1.635-.271 2.599-2.682 2.156-5.385-.448-2.709-2.141-4.678-3.776-4.412Z" class="Vector"/>
                  </g>
                </mask>
                <g class="Group" mask="url(#k)">
                  <path fill="#280301" d="m774.93 106.292 5.917-.974 1.63 9.854-5.916.979-1.631-9.859Z" class="Vector"/>
                </g>
              </g>
            </g>
          </g>
        </g>
      </g>
      <g class="Clip path group">
        <mask id="l" width="12" height="11" x="759" y="132" class="l" maskUnits="userSpaceOnUse" style="mask-type:luminance">
          <g class="7595711e5c">
            <path fill="#fff" d="M759.946 132.755h10.667v9.334h-10.667v-9.334Z" class="Vector"/>
          </g>
        </mask>
        <g class="Group" mask="url(#l)">
          <g class="Clip path group">
            <mask id="m" width="13" height="11" x="759" y="132" class="m" maskUnits="userSpaceOnUse" style="mask-type:luminance">
              <g class="6af9ca204e">
                <path fill="#fff" d="m767.832 132.047 3.604 4.969-8.089 5.864-3.604-4.969 8.089-5.864Z" class="Vector"/>
              </g>
            </mask>
            <g class="Group" mask="url(#m)">
              <g class="Clip path group">
                <mask id="n" width="9" height="9" x="761" y="133" class="n" maskUnits="userSpaceOnUse" style="mask-type:luminance">
                  <g class="1c4eb111df">
                    <path fill="#fff" d="M769.597 134.479c-.974-1.344-3.562-1.125-5.781.479-2.219 1.61-3.229 4.006-2.26 5.349.973 1.344 3.562 1.125 5.786-.484 2.219-1.609 3.229-4 2.255-5.344Z" class="Vector"/>
                  </g>
                </mask>
                <g class="Group" mask="url(#n)">
                  <path fill="#280301" d="m767.832 132.047 3.52 4.854-8.088 5.865-3.521-4.855 8.089-5.864Z" class="Vector"/>
                </g>
              </g>
            </g>
          </g>
        </g>
      </g>
      <g class="Clip path group">
        <mask id="o" width="13" height="12" x="729" y="132" class="o" maskUnits="userSpaceOnUse" style="mask-type:luminance">
          <g class="0948360f3a">
            <path fill="#fff" d="M729.279 132.755h12v10.667h-12v-10.667Z" class="Vector"/>
          </g>
        </mask>
        <g class="Group" mask="url(#o)">
          <g class="Clip path group">
            <mask id="p" width="15" height="13" x="728" y="132" class="p" maskUnits="userSpaceOnUse" style="mask-type:luminance">
              <g class="494a0c7a3f">
                <path fill="#fff" d="m742.269 138.177-3.792 6.188-10.067-6.172 3.791-6.183 10.068 6.167Z" class="Vector"/>
              </g>
            </mask>
            <g class="Group" mask="url(#p)">
              <g class="Clip path group">
                <mask id="q" width="11" height="10" x="730" y="133" class="q" maskUnits="userSpaceOnUse" style="mask-type:luminance">
                  <g class="3f5d4083e0">
                    <path fill="#fff" d="M740.415 141.203c1.021-1.672-.386-4.396-3.151-6.088-2.761-1.698-5.833-1.714-6.86-.042-1.02 1.672.386 4.401 3.152 6.094 2.76 1.692 5.833 1.708 6.859.036Z" class="Vector"/>
                  </g>
                </mask>
                <g class="Group" mask="url(#q)">
                  <path fill="#280301" d="m742.269 138.177-3.703 6.042-10.068-6.172 3.703-6.037 10.068 6.167Z" class="Vector"/>
                </g>
              </g>
            </g>
          </g>
        </g>
      </g>
      <g class="Clip path group">
        <mask id="r" width="15" height="16" x="743" y="101" class="r" maskUnits="userSpaceOnUse" style="mask-type:luminance">
          <g class="c95e9d5e9e">
            <path fill="#fff" d="M743.264 101.818h14.338v14.338h-14.338v-14.338Z" class="Vector"/>
          </g>
        </mask>
        <g class="Group" mask="url(#r)">
          <g class="Clip path group">
            <mask id="s" width="15" height="16" x="743" y="101" class="s" maskUnits="userSpaceOnUse" style="mask-type:luminance">
              <g class="6f01b7f578">
                <path fill="#fff" d="M750.363 101.818c-3.922 0-7.099 3.198-7.099 7.135 0 3.943 3.177 7.141 7.099 7.141 3.916 0 7.094-3.198 7.094-7.141 0-3.937-3.178-7.135-7.094-7.135Z" class="Vector"/>
              </g>
            </mask>
            <g class="Group" mask="url(#s)">
              <path fill="#280301" d="M743.264 101.818h14.172v14.338h-14.172v-14.338Z" class="Vector"/>
            </g>
          </g>
        </g>
      </g>
      <g class="Clip path group">
        <mask id="t" width="10" height="14" x="714" y="102" class="t" maskUnits="userSpaceOnUse" style="mask-type:luminance">
          <g class="f5f4d51ee9">
            <path fill="#fff" d="M714.613 102.089h9.333v13.333h-9.333v-13.333Z" class="Vector"/>
          </g>
        </mask>
        <g class="Group" mask="url(#t)">
          <g class="Clip path group">
            <mask id="u" width="11" height="14" x="714" y="102" class="u" maskUnits="userSpaceOnUse" style="mask-type:luminance">
              <g class="17a28a921a">
                <path fill="#fff" d="m721.722 115.432-7.094-1.515 2.464-11.547 7.094 1.515-2.464 11.547Z" class="Vector"/>
              </g>
            </mask>
            <g class="Group" mask="url(#u)">
              <g class="Clip path group">
                <mask id="v" width="9" height="12" x="715" y="103" class="v" maskUnits="userSpaceOnUse" style="mask-type:luminance">
                  <g class="f60b9d942b">
                    <path fill="#fff" d="M718.248 114.688c1.917.411 4.021-1.829 4.698-4.995.677-3.172-.328-6.073-2.245-6.479-1.916-.412-4.021 1.828-4.698 4.994-.677 3.172.329 6.073 2.245 6.48Z" class="Vector"/>
                  </g>
                </mask>
                <g class="Group" mask="url(#v)">
                  <path fill="#280301" d="m721.722 115.432-6.932-1.479 2.469-11.552 6.927 1.484-2.464 11.547Z" class="Vector"/>
                </g>
              </g>
            </g>
          </g>
        </g>
      </g>
      <g class="Clip path group">
        <mask id="w" width="12" height="9" x="731" y="79" class="w" maskUnits="userSpaceOnUse" style="mask-type:luminance">
          <g class="5d338a79f4">
            <path fill="#fff" d="M731.946 79.422h10.667v8h-10.667v-8Z" class="Vector"/>
          </g>
        </mask>
        <g class="Group" mask="url(#w)">
          <g class="Clip path group">
            <mask id="x" width="13" height="11" x="731" y="78" class="x" maskUnits="userSpaceOnUse" style="mask-type:luminance">
              <g class="1e757b125e">
                <path fill="#fff" d="m741.279 78.484 2.157 5.86-10.136 3.724-2.151-5.86 10.13-3.724Z" class="Vector"/>
              </g>
            </mask>
            <g class="Group" mask="url(#x)">
              <g class="Clip path group">
                <mask id="y" width="11" height="8" x="732" y="79" class="y" maskUnits="userSpaceOnUse" style="mask-type:luminance">
                  <g class="238e7c0c6e">
                    <path fill="#fff" d="M742.337 81.36c-.584-1.59-3.297-2.053-6.058-1.037-2.765 1.016-4.531 3.125-3.948 4.708.584 1.589 3.297 2.052 6.058 1.037 2.765-1.016 4.531-3.125 3.948-4.709Z" class="Vector"/>
                  </g>
                </mask>
                <g class="Group" mask="url(#y)">
                  <path fill="#280301" d="m741.279 78.484 2.094 5.704-9.974 3.661-2.094-5.698 9.974-3.667Z" class="Vector"/>
                </g>
              </g>
            </g>
          </g>
        </g>
      </g>
      <g class="Clip path group">
        <mask id="z" width="7" height="9" x="715" y="86" class="z" maskUnits="userSpaceOnUse" style="mask-type:luminance">
          <g class="e9828a1636">
            <path fill="#fff" d="M715.946 86.089h5.333v8h-5.333v-8Z" class="Vector"/>
          </g>
        </mask>
        <g class="Group" mask="url(#z)">
          <g class="Clip path group">
            <mask id="A" width="7" height="8" x="715" y="86" class="A" maskUnits="userSpaceOnUse" style="mask-type:luminance">
              <g class="03a075aacd">
                <path fill="#fff" d="m720.436 86.792 1.218 1.01-4.713 5.698-1.219-1.01 4.714-5.698Z" class="Vector"/>
              </g>
            </mask>
            <g class="Group" mask="url(#A)">
              <g class="Clip path group">
                <mask id="B" width="6" height="6" x="716" y="87" class="B" maskUnits="userSpaceOnUse" style="mask-type:luminance">
                  <g class="7e6fc4348a">
                    <path fill="#fff" d="M721.024 87.287c-.328-.271-1.64.775-2.937 2.343-1.292 1.563-2.078 3.052-1.75 3.323.328.271 1.64-.781 2.937-2.344 1.297-1.567 2.078-3.052 1.75-3.322Z" class="Vector"/>
                  </g>
                </mask>
                <g class="Group" mask="url(#B)">
                  <path fill="#280301" d="m720.436 86.792 1.218 1.01-4.713 5.698-1.219-1.01 4.714-5.698Z" class="Vector"/>
                </g>
              </g>
            </g>
          </g>
        </g>
      </g>
      <g class="Clip path group">
        <mask id="C" width="11" height="5" x="743" y="72" class="C" maskUnits="userSpaceOnUse" style="mask-type:luminance">
          <g class="194a09d5f3">
            <path fill="#fff" d="M743.946 72.755h9.333v4h-9.333v-4Z" class="Vector"/>
          </g>
        </mask>
        <g class="Group" mask="url(#C)">
          <g class="Clip path group">
            <mask id="D" width="8" height="4" x="745" y="73" class="D" maskUnits="userSpaceOnUse" style="mask-type:luminance">
              <g class="3c4e4d9453">
                <path fill="#fff" d="m752.623 74.516-.156 1.578-7.354-.719.151-1.578 7.359.719Z" class="Vector"/>
              </g>
            </mask>
            <g class="Group" mask="url(#D)">
              <g class="Clip path group">
                <mask id="E" width="8" height="2" x="745" y="74" class="E" maskUnits="userSpaceOnUse" style="mask-type:luminance">
                  <g class="420369cfd9">
                    <path fill="#fff" d="M752.55 75.281c.042-.422-1.567-.927-3.588-1.125-2.021-.193-3.693-.01-3.735.412-.041.422 1.563.927 3.584 1.12 2.026.197 3.698.015 3.739-.407Z" class="Vector"/>
                  </g>
                </mask>
                <g class="Group" mask="url(#E)">
                  <path fill="#280301" d="m752.623 74.516-.156 1.578-7.354-.719.151-1.578 7.359.719Z" class="Vector"/>
                </g>
              </g>
            </g>
          </g>
        </g>
      </g>
      <g class="Clip path group">
        <mask id="F" width="6" height="9" x="778" y="126" class="F" maskUnits="userSpaceOnUse" style="mask-type:luminance">
          <g class="e08008f503">
            <path fill="#fff" d="M778.613 126.089h5.333v8h-5.333v-8Z" class="Vector"/>
          </g>
        </mask>
        <g class="Group" mask="url(#F)">
          <g class="Clip path group">
            <mask id="G" width="6" height="8" x="778" y="126" class="G" maskUnits="userSpaceOnUse" style="mask-type:luminance">
              <g class="302b7d6daf">
                <path fill="#fff" d="m782.087 126.688 1.406.729-3.401 6.562-1.406-.729 3.401-6.562Z" class="Vector"/>
              </g>
            </mask>
            <g class="Group" mask="url(#G)">
              <g class="Clip path group">
                <mask id="H" width="4" height="7" x="779" y="127" class="H" maskUnits="userSpaceOnUse" style="mask-type:luminance">
                  <g class="77c2ea824b">
                    <path fill="#fff" d="M782.769 127.042c-.375-.198-1.437 1.109-2.375 2.911-.932 1.802-1.385 3.422-1.01 3.62.375.193 1.442-1.109 2.375-2.912.937-1.802 1.39-3.427 1.01-3.619Z" class="Vector"/>
                  </g>
                </mask>
                <g class="Group" mask="url(#H)">
                  <path fill="#280301" d="m782.087 126.688 1.406.729-3.401 6.562-1.406-.729 3.401-6.562Z" class="Vector"/>
                </g>
              </g>
            </g>
          </g>
        </g>
      </g>
      <g class="Clip path group">
        <mask id="I" width="11" height="4" x="743" y="148" class="I" maskUnits="userSpaceOnUse" style="mask-type:luminance">
          <g class="ce914c9c08">
            <path fill="#fff" d="M743.946 148.755h9.333v2.667h-9.333v-2.667Z" class="Vector"/>
          </g>
        </mask>
        <g class="Group" mask="url(#I)">
          <g class="Clip path group">
            <mask id="J" width="8" height="2" x="745" y="149" class="J" maskUnits="userSpaceOnUse" style="mask-type:luminance">
              <g class="40c720967a">
                <path fill="#fff" d="m745.196 151-.036-1.583 7.39-.167.037 1.583-7.391.167Z" class="Vector"/>
              </g>
            </mask>
            <g class="Group" mask="url(#J)">
              <g class="Clip path group">
                <mask id="K" width="8" height="2" x="745" y="149" class="K" maskUnits="userSpaceOnUse" style="mask-type:luminance">
                  <g class="74fb118172">
                    <path fill="#fff" d="M745.18 150.234c.011.422 1.662.73 3.693.683 2.031-.047 3.672-.427 3.662-.849-.011-.427-1.667-.735-3.693-.688-2.031.047-3.672.427-3.662.854Z" class="Vector"/>
                  </g>
                </mask>
                <g class="Group" mask="url(#K)">
                  <path fill="#280301" d="m745.196 151-.036-1.583 7.39-.167.037 1.583-7.391.167Z" class="Vector"/>
                </g>
              </g>
            </g>
          </g>
        </g>
      </g>
      <g class="Clip path group">
        <mask id="L" width="6" height="9" x="713" y="127" class="L" maskUnits="userSpaceOnUse" style="mask-type:luminance">
          <g class="a42a5791d6">
            <path fill="#fff" d="M713.279 127.422h5.334v8h-5.334v-8Z" class="Vector"/>
          </g>
        </mask>
        <g class="Group" mask="url(#L)">
          <g class="Clip path group">
            <mask id="M" width="7" height="9" x="712" y="127" class="M" maskUnits="userSpaceOnUse" style="mask-type:luminance">
              <g class="542f9cf4ce">
                <path fill="#fff" d="m712.873 128.38 1.438-.937 4.375 6.708-1.438.938-4.375-6.709Z" class="Vector"/>
              </g>
            </mask>
            <g class="Group" mask="url(#M)">
              <g class="Clip path group">
                <mask id="N" width="6" height="8" x="713" y="127" class="N" maskUnits="userSpaceOnUse" style="mask-type:luminance">
                  <g class="d0f02d8267">
                    <path fill="#fff" d="M713.571 127.927c-.385.25.276 1.948 1.479 3.792 1.203 1.844 2.49 3.13 2.875 2.88.386-.25-.276-1.948-1.479-3.792-1.203-1.843-2.489-3.135-2.875-2.88Z" class="Vector"/>
                  </g>
                </mask>
                <g class="Group" mask="url(#N)">
                  <path fill="#280301" d="m712.873 128.38 1.438-.937 4.375 6.708-1.438.938-4.375-6.709Z" class="Vector"/>
                </g>
              </g>
            </g>
          </g>
        </g>
      </g>
    </g>
  </g>
  <defs>
    <clipPath id="a" class="a">
      <path fill="#fff" d="M0 0h1200v708H0z"/>
    </clipPath>
  </defs>
</svg>
