<?xml version="1.0" encoding="UTF-8"?>
<svg width="1200" height="708" version="1.0" viewBox="0 0 900 531" xmlns="http://www.w3.org/2000/svg" zoomAndPan="magnify">
<defs>
<clipPath id="d">
<path d="m222 147h287v258h-287z"/>
</clipPath>
<clipPath id="e">
<path d="m222.84 280.62 81.809-135.07 207.27 125.53-81.809 135.07z"/>
</clipPath>
<clipPath id="b">
<path d="m222.84 280.62 80.52-132.95 205.12 124.23-80.52 132.95z"/>
</clipPath>
<clipPath id="a">
<path d="m647.21 11.684h103.3v119.03h-103.3z"/>
</clipPath>
<clipPath id="c">
<path d="m663 44.312h73v72.688h-73z"/>
</clipPath>
</defs>
<path d="m46.586 261.51-4.9062 2.832c-1.0977 0.49609-2.25 0.71875-3.4531 0.67188-1.207-0.050781-2.3359-0.37109-3.3867-0.95703l-3.9258-2.2656c-2.0273-1.168-2.2461-2.9336-0.49219-3.9453l4.9062-2.832c1.0977-0.49609 2.25-0.71875 3.457-0.67188 1.2031 0.050781 2.332 0.36719 3.3867 0.95312l3.9219 2.2656c2.0273 1.168 2.2461 2.9375 0.49219 3.9492z" fill="#0055a7"/>
<path d="m45.309 289.8-4.9102 2.832c-1.0977 0.49609-2.25 0.71875-3.4531 0.66797-1.2031-0.046875-2.332-0.36719-3.3867-0.95312l-3.9258-2.2656c-2.0234-1.168-2.2422-2.9336-0.49219-3.9453l4.9102-2.832c1.0977-0.49609 2.25-0.72266 3.4531-0.67188 1.2031 0.050782 2.332 0.36719 3.3867 0.95313l3.9258 2.2656c2.0234 1.168 2.2422 2.9375 0.49219 3.9492z" fill="#0055a7"/>
<path d="m70.465 275.29-4.9062 2.832c-1.0977 0.49609-2.25 0.71875-3.4531 0.67187-1.207-0.050781-2.3359-0.37109-3.3867-0.95703l-3.9258-2.2656c-2.0273-1.168-2.2461-2.9336-0.49219-3.9453l4.9062-2.832c1.0977-0.49609 2.25-0.72266 3.4531-0.67187 1.207 0.050781 2.3359 0.36719 3.3867 0.95703l3.9258 2.2617c2.0273 1.168 2.2461 2.9375 0.49219 3.9492z" fill="#0055a7"/>
<path d="m69.188 303.58-4.9102 2.832c-1.0977 0.49609-2.25 0.71875-3.4531 0.66797-1.2031-0.046875-2.332-0.36719-3.3867-0.95312l-3.9258-2.2656c-2.0234-1.168-2.2461-2.9336-0.49219-3.9453l4.9102-2.832c1.0977-0.49609 2.25-0.72266 3.4531-0.67188 1.2031 0.050782 2.332 0.36719 3.3867 0.95312l3.9258 2.2656c2.0234 1.168 2.2461 2.9375 0.49219 3.9492z" fill="#0055a7"/>
<path d="m94.344 289.06-4.9062 2.832c-1.0977 0.49609-2.25 0.71875-3.457 0.67188-1.2031-0.050781-2.332-0.37109-3.3828-0.95703l-3.9258-2.2656c-2.0273-1.168-2.2461-2.9336-0.49219-3.9453l4.9062-2.832c1.1016-0.49609 2.25-0.72266 3.457-0.67188 1.2031 0.050781 2.332 0.36719 3.3867 0.95703l3.9219 2.2617c2.0273 1.168 2.2461 2.9375 0.49219 3.9492z" fill="#0055a7"/>
<path d="m94.457 318.16-4.9102 2.832c-1.0977 0.49609-2.25 0.72266-3.4531 0.67188-1.2031-0.050781-2.332-0.36719-3.3867-0.95703l-3.9258-2.2617c-2.0234-1.1719-2.2461-2.9375-0.49219-3.9492l4.9102-2.832c1.0977-0.49609 2.25-0.71875 3.4531-0.67188 1.2031 0.050781 2.332 0.37109 3.3867 0.95703l3.9258 2.2656c2.0234 1.168 2.2422 2.9336 0.49219 3.9453z" fill="#0055a7"/>
<path d="m119.61 303.64-4.9062 2.832c-1.0977 0.49609-2.25 0.72266-3.4531 0.67188-1.207-0.050781-2.3359-0.36719-3.3867-0.95312l-3.9258-2.2656c-2.0273-1.168-2.2461-2.9375-0.49219-3.9492l4.9062-2.832c1.0977-0.49609 2.25-0.71875 3.4531-0.67188 1.207 0.050782 2.3359 0.37109 3.3867 0.95703l3.9258 2.2656c2.0273 1.168 2.2461 2.9336 0.49219 3.9453z" fill="#0055a7"/>
<path d="m118.34 331.93-4.9102 2.832c-1.0977 0.49609-2.25 0.72266-3.4531 0.67188s-2.332-0.36719-3.3867-0.95703l-3.9258-2.2656c-2.0234-1.168-2.2461-2.9336-0.49219-3.9453l4.9102-2.832c1.0977-0.49609 2.25-0.71875 3.4531-0.67188 1.2031 0.050781 2.332 0.37109 3.3867 0.95703l3.9258 2.2656c2.0234 1.168 2.2422 2.9336 0.49219 3.9453z" fill="#0055a7"/>
<path d="m143.49 317.42-4.9062 2.832c-1.0977 0.49609-2.25 0.72266-3.457 0.67188-1.2031-0.050781-2.332-0.36719-3.3828-0.95703l-3.9258-2.2617c-2.0273-1.168-2.2461-2.9375-0.49219-3.9492l4.9062-2.832c1.0977-0.49609 2.25-0.71875 3.4531-0.67188 1.207 0.050781 2.3359 0.37109 3.3867 0.95703l3.9258 2.2656c2.0273 1.168 2.2461 2.9336 0.49219 3.9453z" fill="#0055a7"/>
<path d="m142.21 345.71-4.9102 2.832c-1.0977 0.49609-2.25 0.71875-3.4531 0.67188-1.2031-0.050782-2.332-0.37109-3.3867-0.95703l-3.9258-2.2656c-2.0234-1.1641-2.2461-2.9336-0.49219-3.9453l4.9102-2.832c1.0977-0.49609 2.25-0.71875 3.4531-0.67188 1.2031 0.050781 2.332 0.37109 3.3867 0.95703l3.9258 2.2656c2.0234 1.168 2.2422 2.9336 0.49219 3.9453z" fill="#0055a7"/>
<path d="m167.37 331.2-4.9062 2.832c-1.0977 0.49609-2.25 0.72266-3.4531 0.67188-1.207-0.050781-2.3359-0.36719-3.3867-0.95703l-3.9297-2.2656c-2.0234-1.168-2.2422-2.9336-0.48828-3.9453l4.9062-2.832c1.0977-0.49609 2.25-0.71875 3.4531-0.67188 1.207 0.050781 2.3359 0.37109 3.3867 0.95703l3.9258 2.2656c2.0273 1.168 2.2461 2.9336 0.49219 3.9453z" fill="#0055a7"/>
<path d="m167.48 360.29-4.9102 2.832c-1.0977 0.49609-2.25 0.72266-3.4531 0.67188s-2.332-0.36719-3.3867-0.95312l-3.9258-2.2656c-2.0234-1.168-2.2461-2.9375-0.49219-3.9492l4.9102-2.8281c1.0977-0.5 2.2461-0.72266 3.4531-0.67188 1.2031 0.046875 2.332 0.36719 3.3867 0.95312l3.9258 2.2656c2.0234 1.168 2.2422 2.9336 0.49219 3.9453z" fill="#0055a7"/>
<path d="m192.64 345.77-4.9062 2.832c-1.1016 0.5-2.25 0.72266-3.457 0.67188-1.2031-0.050782-2.332-0.36719-3.3867-0.95312l-3.9258-2.2656c-2.0234-1.168-2.2422-2.9336-0.48828-3.9453l4.9062-2.832c1.0977-0.5 2.25-0.72266 3.4531-0.67188 1.207 0.050781 2.3359 0.36719 3.3867 0.95312l3.9258 2.2656c2.0273 1.168 2.2461 2.9336 0.49219 3.9453z" fill="#0055a7"/>
<path d="m191.36 374.07-4.9102 2.832c-1.0977 0.5-2.25 0.72266-3.4531 0.67187-1.2031-0.050781-2.332-0.36719-3.3867-0.95312l-3.9258-2.2656c-2.0234-1.168-2.2461-2.9375-0.49219-3.9492l4.9102-2.8281c1.0977-0.5 2.25-0.72266 3.4531-0.67188 1.2031 0.046875 2.332 0.36719 3.3867 0.95312l3.9258 2.2656c2.0234 1.168 2.2422 2.9336 0.49219 3.9453z" fill="#0055a7"/>
<path d="m216.52 359.55-4.9062 2.832c-1.0977 0.5-2.25 0.72266-3.457 0.67188-1.2031-0.050782-2.332-0.36719-3.3867-0.95313l-3.9258-2.2656c-2.0234-1.168-2.2422-2.9375-0.48828-3.9453l4.9062-2.832c1.0977-0.5 2.25-0.72266 3.4531-0.67188 1.207 0.046875 2.3359 0.36719 3.3867 0.95312l3.9258 2.2656c2.0273 1.168 2.2461 2.9336 0.49219 3.9453z" fill="#0055a7"/>
<path d="m215.24 387.84-4.9102 2.832c-1.0977 0.49609-2.25 0.72266-3.4531 0.67188-1.207-0.050781-2.332-0.36719-3.3867-0.95312l-3.9258-2.2656c-2.0234-1.168-2.2461-2.9375-0.49219-3.9492l4.9102-2.832c1.0977-0.49609 2.25-0.71875 3.4531-0.66797 1.2031 0.046874 2.332 0.36719 3.3867 0.95312l3.9258 2.2656c2.0234 1.168 2.2422 2.9336 0.49219 3.9453z" fill="#0055a7"/>
<path d="m240.4 373.33-4.9062 2.832c-1.0977 0.5-2.25 0.72266-3.457 0.67188-1.2031-0.050781-2.332-0.36719-3.3828-0.95312l-3.9258-2.2656c-2.0273-1.168-2.2461-2.9375-0.49219-3.9492l4.9062-2.8281c1.0977-0.5 2.25-0.72266 3.4531-0.67188 1.207 0.046876 2.3359 0.36719 3.3867 0.95313l3.9258 2.2656c2.0273 1.168 2.2461 2.9336 0.49219 3.9453z" fill="#0055a7"/>
<path d="m240.51 402.42-4.9102 2.832c-1.0977 0.5-2.25 0.72266-3.4531 0.67188-1.207-0.046875-2.3359-0.36719-3.3867-0.95312l-3.9258-2.2656c-2.0234-1.168-2.2461-2.9336-0.49219-3.9453l4.9102-2.832c1.0977-0.5 2.2461-0.72266 3.4531-0.67188 1.2031 0.050782 2.332 0.36719 3.3867 0.95313l3.9258 2.2656c2.0234 1.168 2.2422 2.9336 0.49219 3.9453z" fill="#0055a7"/>
<path d="m265.67 387.91-4.9062 2.8359c-1.1016 0.49609-2.25 0.71875-3.457 0.66797-1.2031-0.046875-2.332-0.36719-3.3828-0.95312l-3.9297-2.2656c-2.0234-1.168-2.2422-2.9336-0.48828-3.9453l4.9062-2.832c1.0977-0.5 2.25-0.72266 3.4531-0.67187 1.207 0.050781 2.3359 0.36719 3.3867 0.95312l3.9258 2.2656c2.0273 1.168 2.2461 2.9375 0.49219 3.9453z" fill="#0055a7"/>
<path d="m264.39 416.2-4.9102 2.832c-1.0977 0.5-2.25 0.72266-3.4531 0.67188-1.207-0.046875-2.3359-0.36719-3.3867-0.95312l-3.9258-2.2656c-2.0234-1.168-2.2461-2.9336-0.49219-3.9453l4.9102-2.832c1.0977-0.5 2.2461-0.72266 3.4531-0.67188 1.2031 0.050782 2.332 0.36719 3.3867 0.95312l3.9258 2.2656c2.0234 1.168 2.2422 2.9336 0.49219 3.9453z" fill="#0055a7"/>
<path d="m289.55 401.69-4.9062 2.8281c-1.1016 0.5-2.25 0.72266-3.457 0.67188-1.2031-0.046875-2.332-0.36719-3.3867-0.95312l-3.9258-2.2656c-2.0234-1.168-2.2422-2.9336-0.48828-3.9453l4.9062-2.832c1.0977-0.5 2.25-0.72266 3.4531-0.67188 1.207 0.050781 2.3359 0.36719 3.3867 0.95312l3.9258 2.2656c2.0273 1.168 2.2461 2.9375 0.49219 3.9492z" fill="#0055a7"/>
<path d="m288.27 429.98-4.9062 2.832c-1.0977 0.5-2.25 0.72266-3.4531 0.67188s-2.332-0.36719-3.3867-0.95312l-3.9258-2.2656c-2.0234-1.168-2.2461-2.9336-0.49219-3.9453l4.9102-2.832c1.0977-0.5 2.2461-0.72266 3.4531-0.67188 1.2031 0.050781 2.332 0.36719 3.3867 0.95312l3.9258 2.2656c2.0234 1.168 2.2422 2.9375 0.48828 3.9453z" fill="#0055a7"/>
<path d="m313.43 415.46-4.9062 2.8281c-1.0977 0.5-2.25 0.72266-3.457 0.67188-1.2031-0.050782-2.332-0.36719-3.3867-0.95312l-3.9258-2.2656c-2.0234-1.168-2.2422-2.9336-0.48828-3.9453l4.9062-2.832c1.0977-0.5 2.25-0.72266 3.4531-0.67188 1.207 0.050781 2.3359 0.36719 3.3867 0.95312l3.9258 2.2656c2.0273 1.168 2.2461 2.9375 0.49219 3.9492z" fill="#0055a7"/>
<path d="m313.54 444.56-4.9062 2.832c-1.0977 0.49609-2.25 0.71875-3.4531 0.66797-1.207-0.046875-2.3359-0.36719-3.3867-0.95312l-3.9258-2.2656c-2.0234-1.168-2.2461-2.9336-0.49219-3.9453l4.9102-2.832c1.0977-0.49609 2.2461-0.72266 3.4531-0.67188 1.2031 0.050781 2.332 0.36719 3.3867 0.95703l3.9258 2.2617c2.0234 1.168 2.2422 2.9375 0.48828 3.9492z" fill="#0055a7"/>
<path d="m338.7 430.04-4.9062 2.832c-1.1016 0.49609-2.25 0.71875-3.457 0.67188-1.2031-0.050781-2.332-0.37109-3.3867-0.95703l-3.9258-2.2656c-2.0234-1.168-2.2422-2.9336-0.48828-3.9453l4.9062-2.832c1.0977-0.49609 2.25-0.72266 3.4531-0.67188 1.207 0.050781 2.3359 0.36719 3.3867 0.95703l3.9258 2.2656c2.0273 1.1641 2.2461 2.9336 0.49219 3.9453z" fill="#0055a7"/>
<path d="m337.42 458.34-4.9102 2.832c-1.0977 0.49609-2.25 0.71875-3.4531 0.66797-1.207-0.046876-2.3359-0.36719-3.3867-0.95313l-3.9258-2.2656c-2.0234-1.168-2.2461-2.9336-0.49219-3.9453l4.9102-2.832c1.0977-0.49609 2.2461-0.72266 3.4531-0.67188 1.2031 0.050781 2.332 0.36719 3.3867 0.95312l3.9258 2.2656c2.0234 1.168 2.2422 2.9375 0.49219 3.9492z" fill="#0055a7"/>
<path d="m362.57 443.82-4.9062 2.832c-1.1016 0.49609-2.25 0.71875-3.457 0.67188-1.2031-0.050781-2.332-0.37109-3.3867-0.95703l-3.9258-2.2656c-2.0234-1.168-2.2422-2.9336-0.48828-3.9453l4.9062-2.832c1.0977-0.49609 2.25-0.72266 3.4531-0.67188 1.207 0.050781 2.3359 0.36719 3.3867 0.95703l3.9258 2.2617c2.0273 1.168 2.2461 2.9375 0.49219 3.9492z" fill="#0055a7"/>
<path d="m361.3 472.11-4.9102 2.832c-1.0977 0.49609-2.25 0.71875-3.4531 0.67188-1.207-0.050782-2.3359-0.37109-3.3867-0.95703l-3.9258-2.2656c-2.0234-1.168-2.2461-2.9336-0.49219-3.9453l4.9102-2.832c1.0977-0.49609 2.2461-0.72266 3.4531-0.67188 1.2031 0.050782 2.332 0.36719 3.3867 0.95703l3.9258 2.2617c2.0234 1.168 2.2422 2.9375 0.49219 3.9492z" fill="#0055a7"/>
<path d="m386.45 457.6-4.9102 2.832c-1.0977 0.49609-2.2461 0.71875-3.4531 0.67187-1.2031-0.050781-2.332-0.37109-3.3867-0.95703l-3.9258-2.2656c-2.0234-1.168-2.2422-2.9336-0.48828-3.9453l4.9062-2.832c1.0977-0.49609 2.25-0.72266 3.4531-0.67187 1.207 0.050781 2.3359 0.36719 3.3867 0.95703l3.9258 2.2617c2.0273 1.168 2.2461 2.9375 0.49219 3.9492z" fill="#0055a7"/>
<path d="m386.56 486.69-4.9062 2.832c-1.0977 0.49609-2.25 0.72266-3.4531 0.67187-1.207-0.050781-2.3359-0.36719-3.3867-0.95703l-3.9258-2.2617c-2.0234-1.168-2.2461-2.9375-0.49219-3.9492l4.9102-2.832c1.0977-0.49609 2.2461-0.71875 3.4531-0.67187 1.2031 0.050781 2.332 0.37109 3.3867 0.95703l3.9258 2.2656c2.0234 1.168 2.2422 2.9336 0.48828 3.9453z" fill="#0055a7"/>
<path d="m411.72 472.18-4.9062 2.832c-1.1016 0.49609-2.25 0.72266-3.457 0.67188-1.2031-0.050782-2.332-0.36719-3.3867-0.95703l-3.9258-2.2617c-2.0234-1.168-2.2422-2.9375-0.48828-3.9492l4.9062-2.832c1.0977-0.49609 2.25-0.71875 3.4531-0.66797 1.207 0.046875 2.3359 0.36719 3.3867 0.95312l3.9258 2.2656c2.0234 1.168 2.2461 2.9336 0.49219 3.9453z" fill="#0055a7"/>
<path d="m410.44 500.47-4.9062 2.832c-1.0977 0.49609-2.25 0.71875-3.4531 0.67188-1.207-0.050781-2.3359-0.37109-3.3867-0.95703l-3.9258-2.2617c-2.0273-1.168-2.2461-2.9375-0.49219-3.9492l4.9102-2.832c1.0977-0.49609 2.2461-0.71875 3.4531-0.67188 1.2031 0.050781 2.332 0.37109 3.3867 0.95703l3.9258 2.2656c2.0234 1.168 2.2422 2.9336 0.48828 3.9453z" fill="#0055a7"/>
<path d="m435.6 485.95-4.9102 2.832c-1.0977 0.49609-2.2461 0.72266-3.4531 0.67188-1.2031-0.050781-2.332-0.36719-3.3867-0.95703l-3.9258-2.2617c-2.0234-1.168-2.2422-2.9375-0.48828-3.9492l4.9062-2.832c1.0977-0.49609 2.25-0.71875 3.4531-0.67188 1.207 0.050782 2.3359 0.37109 3.3867 0.95703l3.9258 2.2656c2.0234 1.168 2.2461 2.9336 0.49219 3.9453z" fill="#0055a7"/>
<path d="m434.32 514.25-4.9062 2.832c-1.0977 0.49609-2.25 0.71875-3.4531 0.67188-1.207-0.050781-2.3359-0.36719-3.3867-0.95703l-3.9258-2.2656c-2.0234-1.1641-2.2461-2.9336-0.49219-3.9453l4.9062-2.832c1.1016-0.49609 2.25-0.71875 3.457-0.67188 1.2031 0.050781 2.332 0.37109 3.3867 0.95703l3.9258 2.2656c2.0234 1.168 2.2422 2.9336 0.48828 3.9453z" fill="#0055a7"/>
<path d="m459.48 499.73-4.9062 2.832c-1.1016 0.49609-2.25 0.72266-3.457 0.67188-1.2031-0.050781-2.332-0.36719-3.3867-0.95703l-3.9258-2.2656c-2.0234-1.1641-2.2422-2.9336-0.48828-3.9453l4.9062-2.832c1.0977-0.49609 2.25-0.71875 3.4531-0.67188 1.207 0.050781 2.3359 0.37109 3.3867 0.95703l3.9258 2.2656c2.0273 1.168 2.2461 2.9336 0.49219 3.9453z" fill="#0055a7"/>
<path d="m484.64 485.21-4.9062 2.832c-1.0977 0.49609-2.25 0.72266-3.4531 0.67188-1.207-0.050781-2.3359-0.36719-3.3867-0.95703l-3.9258-2.2617c-2.0234-1.168-2.2461-2.9375-0.49219-3.9492l4.9102-2.832c1.0977-0.49609 2.2461-0.71875 3.4531-0.66797 1.2031 0.046875 2.332 0.36719 3.3867 0.95312l3.9258 2.2656c2.0234 1.168 2.2422 2.9336 0.48828 3.9453z" fill="#0055a7"/>
<path d="m509.8 470.7-4.9062 2.832c-1.1016 0.49609-2.25 0.72266-3.457 0.67188-1.2031-0.050781-2.332-0.36719-3.3867-0.95703l-3.9219-2.2617c-2.0273-1.168-2.2461-2.9375-0.49219-3.9492l4.9062-2.832c1.0977-0.49609 2.25-0.71875 3.4531-0.66797 1.207 0.046875 2.3359 0.36719 3.3867 0.95312l3.9258 2.2656c2.0273 1.168 2.2461 2.9336 0.49219 3.9453z" fill="#0055a7"/>
<path d="m534.96 456.18-4.9102 2.832c-1.0977 0.49609-2.25 0.72266-3.4531 0.67188s-2.332-0.36719-3.3867-0.95703l-3.9258-2.2617c-2.0234-1.168-2.2461-2.9375-0.49219-3.9492l4.9102-2.832c1.0977-0.49609 2.25-0.71875 3.4531-0.66797 1.2031 0.046875 2.332 0.36719 3.3867 0.95312l3.9258 2.2656c2.0234 1.168 2.2461 2.9336 0.49219 3.9453z" fill="#0055a7"/>
<path d="m560.11 441.67-4.9062 2.832c-1.0977 0.49609-2.25 0.72266-3.4531 0.67188-1.207-0.050781-2.3359-0.36719-3.3867-0.95312l-3.9258-2.2656c-2.0273-1.168-2.2461-2.9375-0.49219-3.9492l4.9062-2.8281c1.0977-0.5 2.25-0.72266 3.457-0.67188 1.2031 0.046875 2.332 0.36719 3.3828 0.95312l3.9258 2.2656c2.0273 1.168 2.2461 2.9336 0.49219 3.9453z" fill="#0055a7"/>
<path d="m585.27 427.15-4.9102 2.832c-1.0977 0.5-2.25 0.72266-3.4531 0.67188s-2.332-0.36719-3.3867-0.95312l-3.9258-2.2656c-2.0234-1.168-2.2422-2.9375-0.49219-3.9453l4.9102-2.832c1.0977-0.5 2.25-0.72266 3.4531-0.67188 1.2031 0.046875 2.332 0.36719 3.3867 0.95312l3.9258 2.2656c2.0234 1.168 2.2461 2.9336 0.49219 3.9453z" fill="#0055a7"/>
<path d="m484.75 514.31-4.9102 2.832c-1.0977 0.5-2.2461 0.72266-3.4531 0.67188-1.2031-0.050781-2.332-0.36719-3.3867-0.95312l-3.9258-2.2656c-2.0234-1.168-2.2422-2.9336-0.48828-3.9453l4.9062-2.832c1.0977-0.5 2.25-0.72266 3.4531-0.67188 1.207 0.050781 2.332 0.36719 3.3867 0.95312l3.9258 2.2656c2.0234 1.168 2.2461 2.9336 0.49219 3.9453z" fill="#0055a7"/>
<path d="m509.91 499.79-4.9062 2.832c-1.0977 0.5-2.25 0.72266-3.4531 0.67188-1.207-0.050781-2.3359-0.36719-3.3867-0.95312l-3.9258-2.2656c-2.0234-1.168-2.2461-2.9375-0.49219-3.9453l4.9102-2.832c1.0977-0.5 2.2461-0.72266 3.4531-0.67188 1.2031 0.050782 2.332 0.36719 3.3867 0.95312l3.9258 2.2656c2.0234 1.168 2.2422 2.9336 0.48828 3.9453z" fill="#0055a7"/>
<path d="m535.07 485.28-4.9062 2.832c-1.1016 0.5-2.25 0.72266-3.457 0.67188-1.2031-0.050781-2.332-0.36719-3.3828-0.95312l-3.9297-2.2656c-2.0234-1.168-2.2422-2.9336-0.48828-3.9453l4.9062-2.832c1.0977-0.5 2.25-0.72266 3.4531-0.67188 1.207 0.050781 2.3359 0.36719 3.3867 0.95312l3.9258 2.2656c2.0273 1.168 2.2461 2.9336 0.49219 3.9453z" fill="#0055a7"/>
<path d="m560.22 470.76-4.9062 2.832c-1.0977 0.5-2.25 0.72266-3.4531 0.67188-1.207-0.050781-2.332-0.36719-3.3867-0.95312l-3.9258-2.2656c-2.0234-1.168-2.2461-2.9336-0.49219-3.9453l4.9102-2.832c1.0977-0.5 2.25-0.72266 3.4531-0.67188 1.2031 0.050782 2.332 0.36719 3.3867 0.95312l3.9258 2.2656c2.0234 1.168 2.2422 2.9336 0.48828 3.9453z" fill="#0055a7"/>
<path d="m585.38 456.25-4.9062 2.832c-1.0977 0.5-2.25 0.72266-3.4531 0.67188-1.207-0.050781-2.3359-0.36719-3.3867-0.95312l-3.9297-2.2656c-2.0234-1.168-2.2422-2.9336-0.48828-3.9453l4.9062-2.832c1.0977-0.49609 2.25-0.72266 3.4531-0.67188 1.207 0.050781 2.3359 0.36719 3.3867 0.95312l3.9258 2.2656c2.0273 1.168 2.2461 2.9375 0.49219 3.9453z" fill="#0055a7"/>
<path d="m610.3 412.38-4.9062 2.832c-1.0977 0.49609-2.25 0.71875-3.4531 0.67187-1.207-0.050781-2.3359-0.37109-3.3867-0.95703l-3.9258-2.2656c-2.0273-1.168-2.2461-2.9336-0.49219-3.9453l4.9062-2.832c1.1016-0.49609 2.25-0.71875 3.457-0.67187 1.2031 0.050781 2.332 0.37109 3.3867 0.95703l3.9258 2.2656c2.0234 1.1641 2.2422 2.9336 0.48828 3.9453z" fill="#0055a7"/>
<path d="m635.46 397.86-4.9102 2.832c-1.0977 0.49609-2.2461 0.71875-3.4531 0.67188-1.2031-0.050782-2.332-0.37109-3.3867-0.95703l-3.9258-2.2656c-2.0234-1.168-2.2422-2.9336-0.49219-3.9453l4.9102-2.832c1.0977-0.49609 2.25-0.71875 3.4531-0.67188 1.207 0.050782 2.3359 0.37109 3.3867 0.95703l3.9258 2.2656c2.0234 1.1641 2.2461 2.9336 0.49219 3.9453z" fill="#0055a7"/>
<path d="m660.61 383.35-4.9062 2.832c-1.0977 0.49609-2.25 0.71875-3.4531 0.67187-1.207-0.050781-2.3359-0.36719-3.3867-0.95703l-3.9258-2.2656c-2.0234-1.168-2.2461-2.9336-0.49219-3.9453l4.9102-2.832c1.0977-0.49609 2.2461-0.71875 3.4531-0.67187 1.2031 0.050781 2.332 0.37109 3.3867 0.95703l3.9258 2.2656c2.0234 1.168 2.2422 2.9336 0.48828 3.9453z" fill="#0055a7"/>
<path d="m610.41 441.47-4.9102 2.832c-1.0977 0.49609-2.25 0.72266-3.4531 0.67187-1.2031-0.050781-2.332-0.36719-3.3867-0.95312l-3.9258-2.2656c-2.0234-1.168-2.2461-2.9375-0.49219-3.9492l4.9102-2.832c1.0977-0.49609 2.25-0.71875 3.4531-0.66797 1.2031 0.046875 2.332 0.36719 3.3867 0.95312l3.9258 2.2656c2.0234 1.168 2.2461 2.9336 0.49219 3.9453z" fill="#0055a7"/>
<path d="m635.57 426.96-4.9062 2.832c-1.0977 0.49609-2.25 0.72266-3.4531 0.67188-1.207-0.050782-2.3359-0.36719-3.3867-0.95313l-3.9258-2.2656c-2.0273-1.168-2.2461-2.9375-0.49219-3.9492l4.9062-2.832c1.0977-0.49609 2.25-0.71875 3.457-0.66797 1.2031 0.046875 2.332 0.36719 3.3828 0.95312l3.9258 2.2656c2.0273 1.168 2.2461 2.9336 0.49219 3.9453z" fill="#0055a7"/>
<path d="m660.73 412.44-4.9102 2.832c-1.0977 0.49609-2.25 0.72266-3.4531 0.67187-1.2031-0.050781-2.332-0.36719-3.3867-0.95312l-3.9258-2.2656c-2.0234-1.168-2.2422-2.9375-0.49219-3.9492l4.9102-2.832c1.0977-0.49609 2.25-0.71875 3.4531-0.66797 1.2031 0.046875 2.332 0.36719 3.3867 0.95312l3.9258 2.2656c2.0234 1.168 2.2461 2.9336 0.49219 3.9453z" fill="#0055a7"/>
<path d="m643.47 359.12-161.12 92.961c-17.234 9.9453-47.344 8.6992-67.246-2.7852l-367.9-212.27c-19.906-11.484-25.07-41.309-7.8359-51.254l164.13-75.766c17.238-9.9453 47.348-8.6992 67.25 2.7852l372.62 196.22c19.902 11.48 17.348 40.16 0.11328 50.105z" fill="#0055a7"/>
<path d="m453.15 461.74c-13.773 0-28.27-3.332-39.551-9.8398l-367.9-212.27c-1.4727-0.87891-2.8828-1.8438-4.2305-2.9023-1.3516-1.0547-2.6289-2.1914-3.832-3.4102-1.207-1.2148-2.3281-2.5039-3.3711-3.8672-1.043-1.3594-1.9922-2.7773-2.8555-4.2617-0.85938-1.4805-1.625-3.0078-2.293-4.5859-0.66406-1.5781-1.2305-3.1914-1.6914-4.8398-0.46094-1.6484-0.82031-3.3203-1.0664-5.0156-0.25-1.6953-0.39453-3.3984-0.42578-5.1094 0-9.9023 4.3477-18.09 11.934-22.465l164.37-75.891c17.789-10.285 49.309-9.0352 70.008 2.9141l372.52 196.16c1.1992 0.67969 2.3477 1.4336 3.4492 2.2656 1.0977 0.83203 2.1367 1.7344 3.1133 2.707 0.97656 0.97266 1.8828 2.0078 2.7227 3.1016 0.83594 1.0938 1.5977 2.2383 2.2812 3.4375 0.68359 1.1953 1.2852 2.4336 1.8008 3.7109 0.51562 1.2773 0.94531 2.582 1.2852 3.918 0.34375 1.3359 0.59375 2.6875 0.75 4.0586 0.16016 1.3672 0.22656 2.7422 0.19922 4.1172 0 11.824-5.8984 22.57-15.391 28.047l-161.12 92.965c-8.207 4.7344-19.203 7.0547-30.703 7.0547zm-220.48-355.47c-10.398 0-20.297 2.0859-27.672 6.3398l-164.37 75.895c-7.5273 4.3516-8.6914 12.609-8.6914 17.137 0.03125 1.4492 0.15234 2.8906 0.36328 4.3281 0.21484 1.4336 0.51562 2.8516 0.90625 4.25 0.39453 1.3945 0.87109 2.7617 1.4375 4.1016 0.56641 1.3359 1.2148 2.6289 1.9453 3.8828 0.73047 1.2578 1.5352 2.4609 2.4219 3.6094 0.88281 1.1523 1.832 2.2461 2.8555 3.2773 1.0195 1.0312 2.1055 1.9922 3.2461 2.8867 1.1445 0.89453 2.3398 1.7148 3.5898 2.457l367.9 212.27c19.039 10.984 47.859 12.234 64.246 2.7852l161.12-92.965c7.5195-4.3359 12.383-13.309 12.383-22.848 0.023437-1.1094-0.027344-2.2148-0.15234-3.3203-0.125-1.1016-0.32031-2.1914-0.59375-3.2695-0.26953-1.0742-0.61328-2.1289-1.0273-3.1602-0.41016-1.0312-0.89062-2.0312-1.4414-2.9961-0.54688-0.96484-1.1562-1.8906-1.8281-2.7773-0.67188-0.88281-1.3984-1.7188-2.1836-2.5039-0.78516-0.78906-1.6172-1.5195-2.5-2.1914-0.88281-0.67578-1.8047-1.2891-2.7695-1.8398l-372.52-196.16c-10.523-6.0703-23.977-9.1836-36.676-9.1836z" fill="#0055a7"/>
<path d="m643.47 344.72-161.12 92.965c-17.234 9.9453-47.344 8.6953-67.246-2.7891l-367.9-212.26c-19.906-11.484-22.066-28.855-4.8281-38.801l161.12-92.961c17.238-9.9453 47.348-8.6992 67.25 2.7852l367.9 212.27c19.902 11.48 22.062 28.855 4.8281 38.797z" fill="#fff"/>
<path d="m453.15 447.34c-13.773 0-28.27-3.332-39.551-9.8398l-367.9-212.27c-11.418-6.5859-17.969-15.535-17.969-24.547 0-7.6562 4.668-14.566 13.141-19.453l161.12-92.957c18.043-10.406 49.555-9.1602 70.254 2.7852l367.9 212.26c11.418 6.5859 17.969 15.531 17.969 24.547 0 7.6562-4.668 14.566-13.141 19.453l-161.12 92.961c-8.207 4.7344-19.203 7.0547-30.703 7.0547zm-220.45-360.21c-10.406 0-20.316 2.0859-27.703 6.3477l-161.12 92.957c-6.5352 3.7734-10.133 8.832-10.133 14.254 0 6.8125 5.4531 13.863 14.961 19.348l367.9 212.27c19.039 10.984 47.859 12.234 64.246 2.7852l161.12-92.961c6.5312-3.7734 10.133-8.8359 10.133-14.254 0-6.8086-5.4531-13.859-14.965-19.348l-367.9-212.27c-10.461-6.0312-23.871-9.1289-36.547-9.1289z" fill="#0055a7"/>
<path d="m214.57 102.72-18.117 10.453c-3.8008 2.1914-3.8008 5.7422 0 7.9336 3.7969 2.1953 3.7969 5.7461 0 7.9375l-87.906 50.719c-1.0664 0.54297-2.1797 0.94922-3.3438 1.2266-1.1641 0.27734-2.3398 0.41797-3.5352 0.41797-1.1953 0-2.375-0.14062-3.5352-0.41797-1.1641-0.27734-2.2773-0.68359-3.3438-1.2266-1.0664-0.53906-2.1797-0.94922-3.3438-1.2266-1.1602-0.27734-2.3398-0.41797-3.5352-0.41797s-2.3711 0.14062-3.5352 0.41797c-1.1602 0.27734-2.2773 0.6875-3.3438 1.2266l-18.117 10.453c-12.125 7-12.129 18.344 0 25.34l364.45 210.27c12.129 6.9961 31.793 6.9961 43.922 0l151.65-87.5c12.129-6.9961 12.129-18.344 0-25.34l-364.45-210.27c-12.129-7-31.789-7-43.918 0z" fill="#b6df55"/>
<path d="m449.32 434.12c-4.0898 0.070312-8.1211-0.375-12.098-1.3398-3.9727-0.96484-7.7617-2.418-11.363-4.3516l-364.45-210.27c-6.8359-3.9414-10.598-9.3672-10.598-15.27s3.7617-11.324 10.598-15.27l18.117-10.453c1.293-0.66797 2.6523-1.1758 4.0664-1.5156 1.418-0.34375 2.8555-0.51562 4.3125-0.51562s2.8945 0.17188 4.3125 0.51562c1.4141 0.33984 2.7734 0.84766 4.0664 1.5156 0.83984 0.40625 1.7109 0.71484 2.6172 0.92578 0.91016 0.20703 1.8281 0.3125 2.7617 0.3125 0.92969 0 1.8516-0.10547 2.7578-0.3125 0.90625-0.21094 1.7812-0.51953 2.6172-0.92578l87.906-50.719c0.98828-0.57031 1.3477-1.1328 1.3477-1.3672 0-0.24219-0.35938-0.80078-1.3477-1.3711-0.62109-0.30469-1.1953-0.68359-1.7148-1.1406-0.51953-0.45703-0.97266-0.97266-1.3555-1.5508s-0.67969-1.1953-0.89844-1.8516c-0.21875-0.66016-0.34375-1.332-0.38281-2.0234 0.039062-0.69141 0.16406-1.3672 0.38281-2.0234 0.21484-0.66016 0.51563-1.2773 0.89844-1.8555 0.38281-0.57422 0.83594-1.0938 1.3555-1.5508 0.51953-0.45703 1.0898-0.83594 1.7148-1.1406l18.121-10.453c13.16-7.5898 33.77-7.5898 46.922 0l364.45 210.27c6.8359 3.9414 10.598 9.3672 10.598 15.27 0 5.9062-3.7656 11.328-10.598 15.273l-151.66 87.496c-3.6016 1.9336-7.3906 3.3867-11.367 4.3516-3.9727 0.96484-8.0039 1.4102-12.094 1.3398zm-361.41-252.99c-1.8984-0.046875-3.6914 0.36328-5.3789 1.2383l-18.117 10.453c-4.8984 2.8242-7.5938 6.4023-7.5938 10.07 0 3.6719 2.6953 7.2461 7.5938 10.07l364.44 210.27c11.281 6.5078 29.633 6.5078 40.918 0l151.66-87.496c4.8945-2.8281 7.5938-6.4062 7.5938-10.074 0-3.6641-2.6953-7.2422-7.5938-10.07l-364.45-210.27c-11.281-6.5039-29.629-6.5039-40.914 0l-18.121 10.453c-0.98828 0.57031-1.3477 1.1328-1.3477 1.3711 0 0.23438 0.35938 0.79688 1.3477 1.3672 0.62109 0.30469 1.1953 0.68359 1.7148 1.1406 0.51953 0.45703 0.97266 0.97656 1.3555 1.5508 0.38281 0.57812 0.68359 1.1953 0.89844 1.8555 0.21875 0.65625 0.34766 1.332 0.38281 2.0234-0.039062 0.69141-0.16406 1.3633-0.38281 2.0234-0.21484 0.65625-0.51562 1.2734-0.89844 1.8516-0.38281 0.57422-0.83203 1.0938-1.3555 1.5508-0.51953 0.45703-1.0898 0.83594-1.7109 1.1406l-87.91 50.719c-1.293 0.66797-2.6523 1.1758-4.0664 1.5195-1.418 0.34375-2.8555 0.51953-4.3125 0.51953-1.4609 0-2.8984-0.17578-4.3125-0.51953-1.418-0.34375-2.7734-0.85156-4.0703-1.5195-1.6836-0.875-3.4766-1.2852-5.3711-1.2383z" fill="#0055a7"/>
<path d="m109.03 160.56c2.1914 1.2656 2.1914 3.3164 0 4.582-1.25 0.63281-2.5742 0.94922-3.9727 0.94922-1.3984 0-2.7227-0.31641-3.9727-0.94922-2.1914-1.2656-2.1914-3.3164 0-4.582 1.25-0.63281 2.5742-0.94922 3.9727-0.94922 1.3984 0 2.7227 0.31641 3.9727 0.94922z" fill="#0055a7"/>
<path d="m167.73 131.28-46.703 26.945c-1.1875 0.53906-2.4375 0.78125-3.7422 0.72656-1.3047-0.054688-2.5273-0.39844-3.668-1.0352-2.1914-1.2656-2.4297-3.1797-0.53125-4.2734l46.699-26.945c1.1914-0.53906 2.4375-0.78125 3.7422-0.72656 1.3047 0.054688 2.5312 0.39844 3.6719 1.0312 2.1914 1.2656 2.4297 3.1797 0.53125 4.2773z" fill="#0055a7"/>
<path d="m458.31 444.39h3.7539v14.406h-3.7539z" fill="#b6df55"/>
<path d="m424.21 440.55h3.7539v14.402h-3.7539z" fill="#b6df55"/>
<path d="m491.81 431.07h3.7539v14.41h-3.7539z" fill="#b6df55"/>
<path d="m61.004 231.42h3.7539v14.402h-3.7539z" fill="#b6df55"/>
<path d="m634.43 348.29h3.7539v14.406h-3.7539z" fill="#b6df55"/>
<path d="m48.551 224.22h3.7539v14.406h-3.7539z" fill="#b6df55"/>
<path d="m436.17 443.21h3.7578v14.41h-3.7578z" fill="#b6df55"/>
<path d="m168.23 305.43c-0.8125-0.011719-1.5664-0.22656-2.2656-0.64453l-14.172-8.1758c-0.65234-0.44141-1.2383-0.95703-1.7656-1.543-0.52344-0.58594-0.97266-1.2227-1.3438-1.918-0.37109-0.69531-0.65234-1.4219-0.84766-2.1836-0.19531-0.76172-0.29297-1.5352-0.30078-2.3242-0.066406-0.85156 0.085938-1.6641 0.45703-2.4375 0.375-0.76953 0.91406-1.3945 1.6289-1.8711 0.63672-0.34375 1.3203-0.49609 2.0469-0.46875 0.72266 0.03125 1.3906 0.24609 2 0.64062l14.176 8.1797c0.65234 0.44141 1.2383 0.95703 1.7656 1.543 0.52344 0.58594 0.97266 1.2227 1.3438 1.918 0.37109 0.69531 0.65234 1.4219 0.84766 2.1836s0.29688 1.5352 0.30078 2.3242c0.070313 0.85156-0.085937 1.6641-0.45703 2.4375-0.375 0.76953-0.91797 1.3945-1.6289 1.8711-0.55469 0.31641-1.1484 0.47266-1.7852 0.46875zm-16.574-17.703c-0.23828 0-0.36719 0.32422-0.36719 0.91406 0.023438 0.92578 0.24219 1.8008 0.66016 2.6289 0.41797 0.82422 0.99219 1.5234 1.7227 2.0898l14.176 8.1758c0.11719 0.070312 0.24219 0.11719 0.375 0.14844 0.0625-0.34375 0.10547-0.6875 0.125-1.0312-0.023438-0.92578-0.24219-1.8008-0.66016-2.6289-0.41797-0.82422-0.99219-1.5234-1.7227-2.0938l-14.172-8.1719c-0.042968-0.015625-0.089843-0.023437-0.13672-0.03125z" fill="#b6df55"/>
<path d="m550.68 411.57c-0.63672 0.003907-1.2305-0.15234-1.7852-0.46875-0.71094-0.47656-1.2539-1.1016-1.6289-1.8711-0.37109-0.76953-0.52734-1.582-0.45703-2.4375 0.003906-0.78516 0.10547-1.5625 0.30078-2.3242 0.19531-0.76172 0.47656-1.4883 0.84766-2.1836 0.37109-0.69141 0.82031-1.332 1.3477-1.918 0.52344-0.58203 1.1133-1.0977 1.7656-1.5391l14.172-8.1836c0.60938-0.39844 1.2773-0.61328 2.0039-0.64453s1.4062 0.12891 2.0469 0.47266c0.71094 0.47656 1.2539 1.1016 1.625 1.875 0.375 0.76953 0.52734 1.582 0.46094 2.4336-0.007812 0.78906-0.10547 1.5625-0.30078 2.3242-0.19531 0.76172-0.47656 1.4922-0.84766 2.1836-0.37109 0.69531-0.82031 1.332-1.3477 1.918-0.52344 0.58594-1.1133 1.0977-1.7656 1.5391l-14.172 8.1797c-0.69922 0.41797-1.4531 0.63281-2.2656 0.64453zm16.711-17.863-14.445 8.3711c-0.73047 0.56641-1.3047 1.2656-1.7227 2.0898-0.41797 0.82422-0.63672 1.6992-0.66016 2.625-0.039062 0.38281 0.039063 0.74219 0.23438 1.0742l0.27344-0.19531 14.172-8.1797c0.73047-0.56641 1.3047-1.2617 1.7227-2.0859s0.63672-1.6992 0.66016-2.625c0.039063-0.38281-0.039062-0.74219-0.23438-1.0742z" fill="#b6df55"/>
<path d="m194.7 321.11c-0.8125-0.011719-1.5664-0.22656-2.2617-0.64453l-14.176-8.1797c-0.65234-0.44141-1.2383-0.95312-1.7656-1.5391-0.52734-0.58594-0.97656-1.2266-1.3477-1.918-0.36719-0.69531-0.65234-1.4219-0.84766-2.1836-0.19141-0.76172-0.29297-1.5352-0.29688-2.3242-0.070312-0.85156 0.082032-1.668 0.45703-2.4375 0.375-0.77344 0.91797-1.3984 1.6289-1.875 0.64062-0.34375 1.3242-0.49609 2.0508-0.46484 0.72656 0.035156 1.3906 0.25 2 0.64453l14.172 8.1758c0.65234 0.44141 1.2383 0.95703 1.7656 1.5391 0.52734 0.58594 0.97656 1.2266 1.3477 1.918 0.37109 0.69531 0.65234 1.4219 0.84766 2.1836 0.19531 0.76172 0.29297 1.5352 0.30078 2.3242 0.066406 0.85156-0.085937 1.6641-0.46094 2.4336-0.37109 0.77344-0.91016 1.3984-1.6211 1.875-0.55469 0.32031-1.1523 0.47656-1.793 0.47266zm-0.38672-3.8984c0.11719 0.070312 0.24219 0.12109 0.37891 0.14844 0.066407-0.34375 0.10938-0.6875 0.12891-1.0312-0.023438-0.92578-0.24219-1.8008-0.66016-2.625-0.41797-0.82422-0.99219-1.5195-1.7227-2.0859l-14.176-8.1797c-0.30859-0.16016-0.50391 0.17969-0.50391 0.87891 0.023437 0.92578 0.24219 1.8008 0.65625 2.625 0.41797 0.82812 0.99219 1.5234 1.7227 2.0898z" fill="#b6df55"/>
<path d="m135.89 287.58c-0.81641-0.011719-1.5703-0.23047-2.2656-0.65234l-2.9414-1.6992c-0.65234-0.44141-1.2383-0.95312-1.7656-1.5391-0.52734-0.58203-0.97656-1.2227-1.3477-1.9141-0.37109-0.69531-0.65234-1.4219-0.84766-2.1836-0.19141-0.76172-0.29297-1.5352-0.29688-2.3203-0.070313-0.85547 0.085937-1.668 0.45703-2.4375 0.375-0.77344 0.91406-1.3945 1.625-1.875 0.64062-0.34375 1.3242-0.49609 2.0508-0.46875 0.72266 0.03125 1.3906 0.24609 2 0.64062l2.9453 1.707c0.65234 0.44141 1.2383 0.95312 1.7656 1.5391 0.52734 0.58203 0.97656 1.2227 1.3477 1.918 0.37109 0.69141 0.65234 1.4219 0.84375 2.1836 0.19531 0.76172 0.29688 1.5352 0.30078 2.3203 0.066407 0.85547-0.085937 1.668-0.46094 2.4375-0.37109 0.77344-0.91406 1.3984-1.625 1.875-0.55469 0.31641-1.1484 0.47266-1.7852 0.46875zm-5.3438-11.223c-0.24219 0-0.36719 0.31641-0.36719 0.91406 0.023438 0.92188 0.24219 1.7969 0.66016 2.6211 0.41406 0.82422 0.98828 1.5195 1.7188 2.0859l2.9453 1.707c0.12109 0.066406 0.24609 0.11719 0.37891 0.14453 0.0625-0.33984 0.10156-0.68359 0.125-1.0312-0.023437-0.92188-0.24219-1.7969-0.66016-2.625-0.41406-0.82422-0.98828-1.5195-1.7188-2.0898l-2.9453-1.7031c-0.046876-0.011718-0.089844-0.019531-0.13672-0.023437z" fill="#b6df55"/>
<path d="m425.05 244.05 30.984 78.129c0.73828 1.8672-2.1797 3.5117-5.3984 3.0391l-134.48-19.738c-3.3867-0.5-4.5586-2.9414-2.0781-4.3398l20.184-11.387c1.7461-0.98437 1.7617-2.6133 0.03125-3.6328l-42.152-24.867c-1.7305-1.0234-1.7148-2.6484 0.035156-3.6367l50.727-28.617c0.99219-0.49219 2.0469-0.73438 3.1562-0.72266s2.1562 0.27344 3.1406 0.78516l42.156 24.867c0.98438 0.51172 2.0352 0.77344 3.1445 0.78125 1.1094 0.011718 2.1602-0.23047 3.1562-0.72266l19.922-11.238c2.4844-1.3984 6.6953-0.66797 7.4766 1.3008z" fill="#fff"/>
<path d="m451.74 328.31c-0.51172-0.003906-1.0234-0.039063-1.5273-0.11328l-134.49-19.738c-3.1836-0.46875-5.4414-2.2617-5.8945-4.6758-0.078125-0.53125-0.074219-1.0586 0.015625-1.5859 0.089844-0.52344 0.26172-1.0234 0.51172-1.4961 0.25-0.47266 0.56641-0.89453 0.95313-1.2656 0.38281-0.36719 0.81641-0.67188 1.2969-0.90234l18.812-10.613-40.801-24.078c-0.41797-0.19922-0.80078-0.45703-1.1445-0.76562-0.34375-0.30859-0.64062-0.66016-0.88672-1.0547-0.24219-0.39453-0.42969-0.8125-0.55469-1.2578-0.125-0.44531-0.18359-0.90234-0.17969-1.3672 0.003906-0.46094 0.074219-0.91406 0.20703-1.3594 0.13281-0.44141 0.32812-0.85938 0.57812-1.2461 0.25391-0.39062 0.55469-0.73437 0.90625-1.0391 0.35156-0.30078 0.73828-0.55078 1.1602-0.74219l50.727-28.617c0.71875-0.37109 1.4766-0.65234 2.2656-0.83984 0.78906-0.1875 1.5859-0.27734 2.3984-0.26953 0.80859 0.007812 1.6094 0.11328 2.3945 0.31641s1.5312 0.5 2.2461 0.88281l42.152 24.867c0.52344 0.23828 1.0703 0.35938 1.6445 0.36719 0.57422 0.003906 1.125-0.10547 1.6523-0.33203l19.926-11.246c1.2227-0.63672 2.5234-1.0039 3.9023-1.0977 1.3789-0.097656 2.7188 0.085938 4.0195 0.55078 0.85156 0.25781 1.6094 0.67969 2.2773 1.2656 0.66797 0.58594 1.1797 1.2852 1.543 2.0977l30.98 78.129c0.3125 0.77344 0.40625 1.5703 0.27734 2.3945-0.12891 0.82422-0.45703 1.5547-0.98828 2.1992-0.81641 0.88672-1.7812 1.5625-2.8984 2.0234-1.1133 0.45703-2.2773 0.66406-3.4805 0.60938zm-134.22-25.656 133.56 19.602c0.58203 0.082032 1.1562 0.054688 1.7266-0.078125l-30.457-76.789c-0.52344-0.23438-1.0703-0.35156-1.6445-0.35547s-1.1211 0.10938-1.6484 0.33594l-19.922 11.242c-0.72266 0.37109-1.4766 0.64844-2.2656 0.83594-0.78906 0.1875-1.5898 0.27734-2.3984 0.26953-0.8125-0.007813-1.6094-0.11328-2.3945-0.31641-0.78516-0.20313-1.5312-0.49609-2.2461-0.88281l-42.152-24.863c-0.52344-0.24219-1.0703-0.36719-1.6445-0.37109-0.57422-0.007812-1.125 0.10547-1.6523 0.33594l-49.355 27.844 40.801 24.082c0.41406 0.19922 0.79688 0.45312 1.1406 0.76562 0.34375 0.30859 0.64062 0.66016 0.88281 1.0547 0.24609 0.39062 0.42969 0.8125 0.55469 1.2578 0.125 0.44531 0.1875 0.90234 0.18359 1.3633-0.007813 0.46484-0.074219 0.91797-0.20703 1.3594-0.13672 0.44531-0.32812 0.85938-0.58203 1.25-0.25 0.38672-0.55078 0.73438-0.90234 1.0391-0.35156 0.30078-0.73828 0.55078-1.1562 0.74219z" fill="#0055a7"/>
<path d="m382.6 236.36-30.594-18.043c-1.1992-0.70312-2.4648-1.2383-3.8047-1.6094-1.3398-0.37109-2.7031-0.56641-4.0898-0.57812-1.3906-0.015625-2.7578 0.14844-4.1055 0.49219-1.3438 0.34375-2.6211 0.85547-3.8359 1.5352l-19.023 10.711-2.9492-5.2305 19.027-10.711c1.668-0.9375 3.4336-1.6445 5.2891-2.1172 1.8555-0.47656 3.7422-0.70703 5.6602-0.6875 1.9141 0.019531 3.7969 0.28516 5.6406 0.80078 1.8477 0.51172 3.5977 1.2539 5.2461 2.2266l30.594 18.043z" fill="#0055a7"/>
<path d="m399.51 335.21 0.875-5.9453 38.371 5.6367-0.87109 5.9414z" fill="#0055a7"/>
<g clip-path="url(#d)">
<g clip-path="url(#e)">
<g clip-path="url(#b)">
<path d="m222.84 280.62 80.398-132.74 204.94 124.12-80.398 132.75z" fill="#b5df5e"/>
</g>
</g>
</g>
<path transform="matrix(.63904 -.36697 .36667 .63851 292.77 348.15)" d="m3.5002 3.4999 298.77 5.36e-4" fill="none" stroke="#0055a7" stroke-linecap="round" stroke-width="7"/>
<path transform="matrix(.63904 -.36697 .36667 .63851 235.05 313.79)" d="m3.5004 3.5022 298.76-0.002105" fill="none" stroke="#0055a7" stroke-linecap="round" stroke-width="7"/>
<path transform="matrix(.63904 -.36697 .36667 .63851 177.32 279.42)" d="m3.4987 3.4973 298.77 5.37e-4" fill="none" stroke="#0055a7" stroke-linecap="round" stroke-width="7"/>
<path transform="matrix(-.63644 -.36745 .36815 -.63766 552.24 381.68)" d="m3.5001 3.5023 238.48 2.57e-4" fill="none" stroke="#0055a7" stroke-linecap="round" stroke-width="7"/>
<path transform="matrix(-.63745 -.36803 .36815 -.63766 283.75 223.85)" d="m3.5008 3.4969 188.06 0.003208" fill="none" stroke="#0055a7" stroke-linecap="round" stroke-width="7"/>
<g clip-path="url(#a)">
<path d="m732.46 130.7h-67.531c-0.57812-0.003907-1.1562-0.03125-1.7305-0.089844-0.57422-0.054687-1.1484-0.14062-1.7148-0.25391-0.56641-0.11328-1.125-0.25391-1.6797-0.42578-0.55078-0.16797-1.0938-0.36328-1.6289-0.58203-0.53125-0.22266-1.0547-0.46875-1.5625-0.74219-0.51172-0.27344-1.0078-0.57031-1.4883-0.89453-0.48047-0.32031-0.94141-0.66406-1.3906-1.0312-0.44531-0.36719-0.87109-0.75781-1.2812-1.1641-0.41016-0.41016-0.79688-0.83984-1.1641-1.2852-0.36719-0.44922-0.71094-0.91406-1.0312-1.3945-0.32031-0.48047-0.61719-0.97656-0.89062-1.4844-0.27344-0.51172-0.51953-1.0352-0.74219-1.5703-0.21875-0.53125-0.41406-1.0781-0.58203-1.6289-0.16797-0.55469-0.30859-1.1172-0.42188-1.6836s-0.19922-1.1406-0.25781-1.7148c-0.054688-0.57422-0.085938-1.1523-0.085938-1.7305v-47.41c-0.003906-2.2539 0.41406-4.4258 1.2578-6.5156s2.0508-3.9453 3.6211-5.5625l36.125-37.414c0.33594-0.34766 0.69141-0.67969 1.0586-0.99609 0.37109-0.3125 0.75391-0.60938 1.1523-0.88281 0.40234-0.27734 0.8125-0.53125 1.2383-0.76563 0.42578-0.23437 0.85938-0.44531 1.3047-0.63672 0.44922-0.19141 0.90234-0.35938 1.3633-0.5 0.46484-0.14453 0.93359-0.26562 1.4102-0.36328 0.47266-0.097656 0.95312-0.17187 1.4336-0.21875 0.48438-0.050781 0.96875-0.074218 1.4531-0.074218s0.96875 0.023437 1.4492 0.074218c0.48437 0.046876 0.96094 0.12109 1.4375 0.21875 0.47656 0.097657 0.94531 0.21875 1.4062 0.36328 0.46484 0.14062 0.91797 0.30859 1.3633 0.5 0.44922 0.19141 0.88281 0.40234 1.3086 0.63672 0.42578 0.23438 0.83594 0.48828 1.2344 0.76563 0.39844 0.27344 0.78516 0.57031 1.1523 0.88281 0.37109 0.31641 0.72266 0.64844 1.0586 0.99609l39.496 40.902c0.24609 0.25391 0.46875 0.52734 0.66016 0.82422s0.35547 0.60938 0.48438 0.94141c0.13281 0.32813 0.23047 0.66797 0.29297 1.0156 0.066406 0.34766 0.09375 0.69922 0.089843 1.0547-0.003906 0.35156-0.042968 0.70312-0.11719 1.0508-0.074219 0.34375-0.18359 0.67969-0.32422 1.0078-0.14062 0.32422-0.3125 0.63281-0.51172 0.92188-0.20313 0.29297-0.42969 0.5625-0.68359 0.80859-0.25391 0.24609-0.53125 0.46484-0.82812 0.65625-0.29688 0.19141-0.60938 0.35156-0.94141 0.48047-0.32812 0.12891-0.66797 0.22656-1.0156 0.28906-0.34766 0.0625-0.69922 0.089843-1.0508 0.085937-0.35547-0.007812-0.70312-0.050781-1.0508-0.125-0.34375-0.078125-0.67969-0.1875-1.0039-0.32812s-0.62891-0.3125-0.92188-0.51562c-0.28906-0.20312-0.55469-0.43359-0.80078-0.69141l-39.5-40.883c-0.17187-0.18359-0.35937-0.34766-0.56641-0.49219-0.20312-0.14453-0.42188-0.26953-0.65625-0.36719-0.23047-0.10156-0.46875-0.17578-0.71484-0.22656-0.24609-0.054688-0.49609-0.078125-0.74609-0.078125-0.25391 0-0.5 0.023437-0.74609 0.078125-0.25 0.050781-0.48828 0.125-0.71875 0.22656-0.23047 0.097657-0.44922 0.22266-0.65625 0.36719-0.20312 0.14453-0.39453 0.30859-0.56641 0.49219l-36.129 37.398c-0.59766 0.61719-1.0547 1.3281-1.3711 2.125-0.32031 0.79688-0.47656 1.625-0.47266 2.4844v47.398c0 0.45312 0.046876 0.90234 0.13672 1.3477 0.085938 0.44531 0.21875 0.875 0.39453 1.2969 0.17188 0.41797 0.38281 0.81641 0.63672 1.1953 0.25391 0.375 0.53906 0.72656 0.85938 1.0469 0.32031 0.32031 0.66797 0.60938 1.0469 0.85938 0.375 0.25391 0.77344 0.46484 1.1914 0.64062 0.41797 0.17188 0.85156 0.30469 1.2969 0.39453 0.44141 0.089843 0.89063 0.13281 1.3438 0.13281h67.535c0.35156 0 0.70312 0.035156 1.0469 0.10547 0.34766 0.066406 0.68359 0.16797 1.0078 0.30469 0.32812 0.13672 0.63672 0.30078 0.92969 0.49609 0.29297 0.19922 0.56641 0.42188 0.8125 0.67188 0.25 0.25 0.47266 0.51953 0.67188 0.8125 0.19531 0.29297 0.35938 0.60547 0.49609 0.92969 0.13281 0.32813 0.23438 0.66406 0.30469 1.0117 0.066406 0.34375 0.10156 0.69531 0.10156 1.0469 0 0.35547-0.035156 0.70312-0.10156 1.0508-0.070312 0.34766-0.17188 0.68359-0.30469 1.0078-0.13672 0.32812-0.30078 0.63672-0.49609 0.93359-0.19922 0.29297-0.42188 0.5625-0.67188 0.8125-0.24609 0.25-0.51953 0.47266-0.8125 0.66797-0.29297 0.19922-0.60156 0.36328-0.92969 0.5-0.32422 0.13281-0.66016 0.23438-1.0078 0.30469-0.34375 0.070312-0.69531 0.10547-1.0469 0.10547z" fill="#0055a7"/>
</g>
<g>
<g transform="translate(378.82 114.22)">
<path d="m18.824-10.926c0 2.9375-0.27734 5.9688-0.27734 8.9062 0 0.27344 0.18359 0.64062 0.18359 0.91797v0.18359c-0.089844 0.27344-0.45703 0.45703-0.73438 0.55078-0.27344 0.18359-0.55078 0.27344-0.91797 0.36719h-0.18359c-3.0312 0-6.0586-0.18359-8.9961-0.18359-0.27734 0-0.46094 0-0.64453-0.09375-0.27734 0-0.46094 0-0.55078-0.18359-0.27734-0.089843-0.46094-0.18359-0.46094-0.45703-0.089844-0.09375-0.18359-0.18359-0.18359-0.36719-0.089844-0.27734-0.089844-0.55078-0.089844-0.82812v-6.4258-6.4297-6.5195c0-2.1094 0.18359-4.3125 0.18359-6.4258 0-2.2031-0.18359-4.3164-0.18359-6.5195 0-2.2969 0.18359-4.5898 0.18359-6.9766 0-2.2969-0.18359-4.5938-0.18359-6.9805 0-2.2969 0.089844-4.5898 0.089844-6.9766 0-2.2969 0.09375-4.5938 0.09375-6.9805 0-0.27344 0-0.55078 0.089844-0.82422 0.09375-0.46094 0.36719-0.73438 0.82812-0.82812 0.18359-0.09375 0.36719-0.09375 0.55078-0.09375h11.109 5.6016c0.36719 0 0.82812-0.089844 1.1953-0.089844h0.73438c0.18359 0 0.27344 0.18359 0.45703 0.18359 0.91797 0.18359 1.9297 0.27734 2.8477 0.55078 0.91797 0.27734 1.8359 0.55078 2.6641 0.91797 0.36719 0.09375 0.73438 0.27734 1.0078 0.36719 0.55078 0.36719 1.1953 0.55078 1.7461 0.91797 0.36719 0.18359 0.55078 0.55078 0.82812 0.73438 0.45703 0.27734 0.82422 0.55078 1.2852 0.82812l1.1914 0.82422c0.36719 0.36719 0.73438 0.91797 1.1016 1.2852l0.82812 0.73828c0.18359 0.27344 0.45703 0.64063 0.73438 0.91797l0.27344 0.36719c0.46094 0.64062 0.82813 1.375 1.2852 2.0195 0.27734 0.64062 0.64453 1.1914 0.92188 1.7422 0.18359 0.46094 0.45703 0.82812 0.64062 1.1953 0.18359 0.45703 0.36719 0.91797 0.46094 1.3789 0.27344 0.73438 0.45703 1.5586 0.64062 2.293 0.09375 0.55078 0 1.1016 0 1.6523 0.09375 0.36719 0.27734 0.64453 0.27734 1.0117 0 0.089843-0.09375 0.089843-0.09375 0.089843 0.09375 0.55078 0.18359 1.1016 0.18359 1.6562 0 0.36719-0.089844 0.82422-0.089844 1.1914-0.09375 1.1016-0.18359 2.1133-0.46094 3.1211-0.089844 0.55078-0.27344 1.0117-0.45703 1.4688-0.18359 0.55078-0.36719 1.0117-0.55078 1.5625l-0.27734 1.0117c-0.18359 0.27344-0.18359 0.55078-0.27344 0.82422-0.18359 0.27734-0.46094 0.46094-0.64453 0.73438l-0.55078 1.1953c-0.36719 0.45703-0.64453 1.0078-1.0117 1.4688-0.27344 0.45703-0.73437 0.82422-1.0078 1.1914-0.18359 0.27734-0.36719 0.46094-0.55078 0.64453-0.18359 0.18359-0.36719 0.36719-0.55078 0.64453l-1.3789 1.1914c-0.64062 0.55078-1.1914 1.1016-1.9258 1.5625-0.55469 0.36719-1.1055 0.73438-1.7461 1.0078-0.55078 0.27734-1.1016 0.55078-1.5625 0.82812-0.91797 0.36719-1.9258 0.64062-2.8438 0.91797-0.73438 0.27344-1.4727 0.36719-2.207 0.45703-0.36719 0.09375-0.73438 0.09375-1.1016 0.1875h-1.1914c-0.46094 0.089843-0.91797 0.089843-1.2852 0.089843-1.2852 0-2.4805-0.089843-3.7656-0.089843-0.18359 0-0.36719 0.18359-0.64453 0.18359-0.27344 0.089844-0.55078 0.36719-0.64062 0.73438 0 0.27344-0.09375 0.45703-0.09375 0.64062 0 1.1016 0.09375 6.1523 0.09375 8.8164zm-0.09375-31.863c0 0.55078-0.089844 1.1953-0.089844 1.7461 0 0.64062 0.089844 1.1914 0.089844 1.8359 0 1.1914 0.09375 2.4766 0.09375 3.7656l-0.09375 0.64062c0 0.36719 0.46094 0.73438 0.82812 0.73438 0.18359 0 0.36719 0.09375 0.64062 0.09375 1.1953 0 2.4805 0.089844 3.7656 0.089844 0.27734 0 0.55078 0.09375 0.82812 0 0.55078 0 1.1016-0.18359 1.6523-0.27344l1.1016-0.55078c0.45703-0.18359 0.82422-0.46094 1.1953-0.73438 0.45703-0.27734 0.73437-0.55469 1.1016-0.82812 0.45703-0.36719 0.82422-0.73438 1.1016-1.1953 0.18359-0.27344 0.36719-0.45703 0.45703-0.73438 0.18359-0.18359 0.36719-0.45703 0.46094-0.64062 0.27344-0.55078 0.55078-0.91797 0.73438-1.4688 0-0.18359-0.09375-0.46094 0-0.73438 0.089844-0.46094 0.27344-1.0117 0.27344-1.5625 0-0.27734-0.18359-0.55078-0.18359-0.73438v-0.73438c-0.089844-0.27734 0-0.64453-0.089844-0.91797-0.09375-0.36719-0.18359-0.73437-0.36719-1.1016-0.18359-0.46094-0.46094-0.91797-0.73438-1.3789-0.27734-0.45703-0.64453-0.91797-1.1016-1.375-0.09375-0.09375-0.27734-0.09375-0.46094-0.18359-0.36719-0.46094-0.73438-0.92188-1.1914-1.1953-0.46094-0.27734-0.92188-0.46094-1.3789-0.64453-1.0117-0.45703-2.1133-0.55078-3.3047-0.55078l-0.64453 0.09375c-0.18359-0.09375-0.27344-0.18359-0.45703-0.18359-1.0117 0-2.0234 0-3.125 0.089844-0.18359 0-0.36719 0-0.45703 0.09375-0.27734 0.089844-0.36719 0.18359-0.46094 0.36719-0.089843 0.27344-0.089843 0.55078-0.089843 0.82422v3.6758c0 0.91797 0.089843 1.7422 0 2.6602 0 0.36719-0.09375 0.73438-0.09375 1.0117z"/>
</g>
</g>
<g>
<g transform="translate(426.66 114.22)">
<path d="m6.0586-32.137c0-2.3867-0.089844-4.8672-0.089844-7.2539v-7.2539c0-2.4805 0.089844-4.8672 0.089844-7.3477v-7.2539c0-0.36719-0.089844-0.82422-0.089844-1.1914v-0.27734c0.089844-0.36719 0.27344-0.73438 0.55078-1.0078 0.36719-0.18359 0.73438-0.27734 1.0117-0.37109 0.27344-0.089844 0.64062-0.18359 1.0078-0.18359 2.2031 0 4.4062 0.18359 6.6133 0.18359 0.45703 0 0.91797 0 1.4688 0.09375 0.73438 0.18359 1.1914 0.55078 1.4688 1.2852v0.91797c0 2.2031 0.089844 4.4062 0.089844 6.5195 0 2.2031-0.27344 4.4062-0.27344 6.6133v6.5195c0.18359 2.2031 0.18359 4.3125 0.18359 6.5156 0 2.207 0.089844 4.3164 0.089844 6.5195v6.5195 6.6133c0 2.1133-0.089844 4.3164-0.089844 6.5195s0.089844 4.3164 0.089844 6.5195c0 0.45703-0.089844 0.91797-0.27344 1.375-0.09375 0.36719-0.18359 0.73438-0.36719 1.0117-0.27734 0.27344-0.64453 0.27344-0.91797 0.36719-0.46094 0-0.73438 0.18359-1.1016 0.18359-2.1133 0-4.4102-0.09375-6.5195-0.09375-0.46094 0-1.0117 0-1.4688-0.089844-0.82812-0.18359-1.1055-0.64453-1.2891-1.3789-0.089844-0.27344-0.089844-0.55078-0.089844-0.91797 0-2.4766-0.18359-4.957-0.18359-7.4375v-7.3438c0-2.4805 0.089844-4.9609 0.089844-7.4375z"/>
</g>
</g>
<g>
<g transform="translate(450.81 114.22)">
<path d="m36.637-64.734c0.73438 0 1.5625-0.18359 2.2969-0.18359 0.45703 0 0.91797 0.18359 1.375 0.36719 0.27734 0.089843 0.73438 0.089843 0.91797 0.36719 0.09375 0.089844 0.09375 0.27734 0.18359 0.36719 0.18359 0.27734 0.27734 0.55078 0.36719 0.82812 0.27734 1.1016 0.36719 2.293 0.36719 3.5781 0 1.1953-0.089843 2.4805-0.089843 3.582v0.46094c0 0.089844 0.089843 0.18359 0.089843 0.27344v0.55078l-0.18359 0.09375c0 1.1016-0.36719 2.293-1.375 2.7539-0.36719 0.18359-0.73438 0.089843-1.0117 0.18359-0.27344 0-0.55078 0.089844-0.82422 0.089844-2.4805 0.27734-4.8672 0.36719-7.2539 0.73438-2.3867 0.36719-4.6836 0.82812-6.8867 2.3906-2.2031 1.4688-4.2266 3.3047-5.6953 5.5078-0.089843 0.27734-0.36719 0.46094-0.55078 0.73437l-0.64062 1.1953c-0.36719 0.73438-0.46094 1.4688-0.73438 2.2031-0.27734 0.73438-0.27734 1.4688-0.46094 2.1094-0.18359 0.64453-0.64062 1.2891-0.73438 1.9297-0.089844 0.73438-0.089844 1.3789-0.089844 2.1133 0 1.2852 0.089844 2.4766 0.27344 3.7617 0.09375 0.09375 0.36719 0.09375 0.46094 0.18359 0.089844 0.64453 0.18359 1.1953 0.36719 1.7461 0.64062 1.7461 1.1016 3.4883 2.1094 4.957 0.91797 1.4727 2.0195 3.0312 3.3984 4.2266 0.36719 0.27344 0.82812 0.36719 1.1016 0.55078 2.5703 2.0195 5.6016 3.2148 8.8164 3.6719 0.45703 0.09375 0.91797 0.46094 1.375 0.46094 0.91797 0 2.3906-0.18359 3.7656-0.18359 1.7461 0 3.4883 0.27344 4.1328 1.4688 0.18359 0.18359 0.45703 0.27344 0.45703 0.55078 0 0.089844 0.09375 0.18359 0.09375 0.36719 0 0.18359-0.18359 0.45703-0.18359 0.64063 0 0.18359 0.18359 0.27734 0.18359 0.46094 0 0 0.089843 0.089844 0.089843 0.18359-0.089843 0.18359-0.18359 0.36719-0.089843 0.55078 0 0.089844 0.18359 0.089844 0.18359 0.18359 0 1.6523-0.18359 3.3047-0.18359 4.957 0 0.09375 0.089843 0.18359 0.089843 0.18359-0.089843 0.18359-0.18359 0.36719-0.18359 0.46094 0.09375 0.089844 0 0.18359-0.089844 0.27344 0 0.09375 0.27344 0.27734 0.27344 0.46094 0 0.45703-0.27344 0.82422-0.45703 1.2852-0.55078 1.4688-2.3867 1.7461-4.0391 1.7461-0.91797 0-1.8359-0.09375-2.5742-0.09375-0.18359 0-0.27344-0.089843-0.45703-0.089843h-0.09375c-0.089844 0-0.18359 0.18359-0.27344 0.18359-2.0195-0.09375-3.9492-0.36719-5.8789-0.73828-1.8359-0.45703-3.7617-1.1016-5.5078-1.8359-1.8359-0.73437-3.582-1.5586-5.3242-2.5703v-0.18359c-2.0195-1.2852-3.8594-2.7539-5.5117-4.3164-1.6523-1.6523-3.2109-3.3945-4.4961-5.418-1.2891-1.9258-2.207-4.0391-3.0312-6.2422-0.18359-0.36719-0.18359-0.82812-0.36719-1.1953-0.36719-1.0078-0.91797-2.0195-1.1016-3.1211-0.18359-0.73438-0.09375-1.4688-0.18359-2.293-0.09375-0.46094-0.36719-0.91797-0.36719-1.3789-0.09375-0.18359-0.18359-0.36719-0.18359-0.55078 0-0.18359 0.18359-0.46094 0.089844-0.73438-0.089844-2.3867-0.089844-4.7734 0.27734-7.1641 0.089844-0.45703 0.27344-0.82422 0.36719-1.1914 0.089844-0.36719 0-0.73438 0.089844-1.1016 0.09375-0.36719 0.18359-0.82812 0.27734-1.1953l0.27344-0.73437c0.18359-0.55078 0.27734-1.1016 0.46094-1.6523 0.18359-0.46094 0.18359-1.0117 0.36719-1.4688 0.64062-1.6523 1.6523-3.1211 2.5703-4.5898 0.82813-1.4727 2.0195-2.7578 3.1211-4.1328 0.27734-0.27734 0.18359-0.82813 0.46094-1.1016 0.18359-0.18359 0.55078-0.27734 0.73438-0.46094 1.4688-1.6523 3.2148-3.1211 5.0508-4.4062 1.8359-1.2852 3.9453-2.3867 5.9688-3.2148 2.1094-0.91797 4.2227-1.6523 6.4258-2.1133 1.4688-0.27344 2.8477-0.27344 4.3164-0.27344z"/>
</g>
</g>
<g>
<g transform="translate(497.64 114.22)">
<path d="m6.1523-32.137c0-2.0195-0.18359-4.1328-0.18359-6.1523v-6.0625c0-2.1094 0.18359-4.1289 0.18359-6.1523v-6.0586-6.1523c0-0.27344-0.09375-0.45703-0.09375-0.73438 0.09375-0.36719 0.36719-0.55078 0.73438-0.64453l0.64453-0.089844c1.0117 0 2.0195 0.089844 2.9375 0.089844 2.0195 0 3.9492-0.18359 5.9688-0.18359 0.18359 0 0.36719 0.09375 0.55078 0.18359 0.55078 0.09375 0.73438 0.37109 0.73438 0.82812 0.09375 0.36719 0.18359 0.82812 0.18359 1.1953v7.4375c0 2.4766-0.089844 4.957-0.089844 7.4375 0 2.3867 0.089844 4.8672 0.089844 7.3438 0 0.36719-0.089844 0.64453 0 1.0117 0.18359 0.45703 0.55078 0.55078 1.0117 0.64062 0.27344 0.09375 0.55078 0.18359 0.82422 0.18359 1.2852 0 2.5742 0.18359 3.9492 0.18359 0.73438-0.089844 1.5625-0.18359 2.2969-0.45703 0.45703-0.18359 0.91797-0.46094 1.2852-0.73438 0.45703-0.27734 0.91797-0.73437 1.2852-1.1016 0.36719-0.46094 0.55078-0.91797 0.82812-1.3789 0.18359-0.45703 0.27344-1.0078 0.45703-1.5625 0-0.27344 0.18359-0.64062 0.18359-1.0078 0.09375-0.36719-0.089844-0.73438-0.089844-1.1016v-5.8789c0-1.9258 0.18359-3.8555 0.18359-5.875 0-1.9297-0.09375-3.9492-0.09375-5.875 0-0.18359 0.09375-0.46094 0.18359-0.64453 0-0.36719 0.18359-0.45703 0.46094-0.55078 0.27344-0.09375 0.45703-0.09375 0.64062-0.09375 3.0312-0.089844 6.0625 0 9 0 0.27344 0 0.45703-0.089844 0.73438 0 0.18359 0.09375 0.36719 0.27734 0.45703 0.46094 0 0.18359 0.09375 0.27734 0.09375 0.46094 0.089844 2.3867-0.09375 4.8633-0.09375 7.2539 0 1.7422 0.18359 3.4883 0.18359 5.2305 0 1.7461-0.089844 3.4922-0.089844 5.1445 0 0.27344 0.089844 0.55078 0.089844 0.82422-0.089844 0.36719-0.089844 0.64453-0.089844 0.91797 0 0.46094-0.09375 0.91797-0.09375 1.2891-0.089844 0.64062-0.089844 1.1914-0.18359 1.7422-0.089843 0.46094-0.36719 0.82812-0.45703 1.2852-0.18359 0.55078-0.27734 1.1953-0.46094 1.7461l-0.27344 0.73438c-0.09375 0.36719-0.27734 0.64062-0.46094 0.91797l-0.82422 1.2852c-0.36719 0.46094-0.55078 1.0117-0.82812 1.4688l-0.82422 0.73438c-0.18359 0.27734-0.09375 0.64453 0 1.0117 0 0.27344 0.089844 0.55078 0.18359 0.73438l0.82422 0.82422c0.27734 0.36719 0.46094 0.73438 0.73438 1.1016l1.1016 1.6562c0.18359 0.36719 0.46094 0.73438 0.64453 1.1914 0.089843 0.09375 0.089843 0.36719 0.089843 0.55078 0.36719 0.64453 0.55078 1.2852 0.73438 1.9297 0.18359 0.55078 0.27734 1.1016 0.36719 1.6523 0 0.36719 0.09375 0.82812 0.09375 1.1953 0.089844 1.1914 0.089844 2.3867 0.089844 3.5781 0 1.1016 0.09375 2.2969 0.09375 3.4922v3.5781 8.6328c0 0.18359-0.18359 0.36719-0.18359 0.55078-0.09375 0.36719-0.18359 0.64062-0.46094 0.73438-0.18359 0.089844-0.45703-0.09375-0.55078-0.09375-1.4688 0.09375-2.8438 0.09375-4.2227 0.09375-1.4688 0-2.8477 0.18359-4.2227 0.18359-0.36719 0-0.73437-0.27734-1.0117-0.27734-0.18359 0-0.27344 0-0.45703-0.089844-0.18359 0-0.36719-0.09375-0.46094-0.27734-0.089844-0.089844 0.09375-0.36719 0.09375-0.45703-0.09375-1.3789-0.18359-2.7539-0.18359-4.1328v-7.3438c0-2.4805 0.089844-4.9609 0.089844-7.3477 0-0.91797-0.27344-1.8359-0.64062-2.6641-0.18359-0.55078-0.64453-0.91797-0.91797-1.2852-0.27734-0.36719-0.46094-0.73438-0.73828-0.91797-0.18359-0.089843-0.27344-0.27344-0.45703-0.36719-0.64453-0.45703-1.2852-0.82422-2.0195-1.0078-0.36719-0.09375-0.73438-0.18359-1.1953-0.18359h-0.36719c-0.18359 0-0.36719 0.089843-0.55078 0.089843 0 0-0.089844-0.089843-0.18359-0.089843-0.18359 0-0.27344 0.089843-0.45703 0.089843-0.91797 0-1.8398-0.089843-2.7578-0.089843h-0.36719l-0.089843 0.089843c-0.27734 0-0.55078-0.089843-0.82813 0-0.27344 0-0.55078 0.18359-0.73437 0.36719-0.18359 0.18359-0.27344 0.36719-0.36719 0.64453v0.91797c0 2.4766-0.089844 4.957-0.089844 7.3438 0 2.4805 0.089844 4.9609 0.089844 7.4375 0 2.4805-0.089844 4.9609-0.089844 7.4375 0 0.36719 0.089844 0.73438 0.089844 1.1016-0.089844 0.27734-0.27344 0.46094-0.55078 0.64453l-0.089844 0.089844c-0.18359 0-0.36719 0.09375-0.55078 0.09375-2.8477 0.089844-5.6016-0.09375-8.3555-0.09375-0.36719 0-0.73438 0.09375-1.1016 0h-0.37109c-0.36719-0.089844-0.55078-0.27344-0.64062-0.64062 0-0.18359-0.09375-0.36719-0.09375-0.55078v-6.1523c0-2.0195 0.09375-4.1328 0.09375-6.1523 0-2.0195-0.09375-4.0391-0.09375-6.1523v-6.1523c0-2.0195 0.09375-4.0391 0.09375-6.0586z"/>
</g>
</g>
<g>
<g transform="translate(544.28 114.22)">
<path d="m6.0586-32.23c0-2.4766 0.09375-4.957 0.09375-7.4375 0-2.5703-0.18359-5.0508-0.18359-7.5273 0-2.4805 0.089844-4.9609 0.089844-7.4375 0-2.4805 0.09375-5.0508 0.09375-7.5312 0-0.36719 0-0.73438 0.089844-1.1016 0.18359-0.36719 0.46094-0.73438 0.82812-0.91797 0.18359 0 0.46094 0 0.64453-0.09375 0.36719 0 0.73438 0.09375 1.1016 0.09375 2.0195 0 4.0391-0.09375 6.0586-0.09375 0.36719 0 0.73438 0.09375 1.1016 0.18359 0.27734 0.1875 0.73438 0.27734 0.82813 0.55469 0.089843 0.18359 0 0.36719 0 0.55078 0.089843 0.27344 0.27344 0.55078 0.27344 0.91797v6.5195c0 2.2031 0.09375 4.4062 0.09375 6.6094s-0.09375 4.4062-0.09375 6.6133v6.6094c0 2.2031-0.089844 4.4062-0.089844 6.6094 0 2.1133 0.18359 4.3164 0.18359 6.5195 0 2.207-0.18359 4.4102-0.18359 6.6133v0.82422c0 0.27734 0.089844 0.55078 0.089844 0.82812 0.09375 0.64453 0.18359 1.2852 0.55078 1.8359 0.27734 0.46094 0.55078 0.91797 1.0117 1.1016 0.55078 0.18359 1.0078 0.18359 1.5586 0.18359h0.18359c0.09375 0 0.27734 0.18359 0.46094 0.09375 0.089844 0 0.18359-0.18359 0.27344-0.18359 0.18359 0 0.37109 0.089844 0.55469 0.089844 1.1914 0 2.4766 0.18359 3.6719 0.18359 0.45703 0 0.82422 0 1.1914 0.18359 0.36719 0.18359 0.73438 0.27734 0.82812 0.55078 0.18359 0.27734 0.18359 0.64453 0.18359 0.91797 0.089844 0.55078-0.09375 1.0117-0.09375 1.5625v5.3242c0 0.36719 0.09375 0.82812 0 1.1953-0.18359 0.64062-0.64062 0.91797-1.2852 1.1016-0.45703 0.089844-0.82422 0-1.1914 0-2.7539 0-5.5117 0.089844-8.2656 0.089844-2.7539 0-5.6016 0.09375-8.3555 0.09375-0.27344 0-0.64062-0.09375-1.0078-0.18359-0.37109 0-0.64453-0.27734-0.92188-0.64453-0.18359-0.089844-0.18359-0.36719-0.18359-0.55078-0.089844-0.27344-0.27344-0.64062-0.27344-0.91797 0-2.4766 0.18359-4.957 0.18359-7.4375 0-2.5703-0.09375-5.0508-0.09375-7.5273 0-2.4805 0.09375-4.9609 0.09375-7.4375 0-2.5703-0.09375-5.0508-0.09375-7.5312z"/>
</g>
</g>
<g>
<g transform="translate(576.42 114.22)">
<path d="m2.2969-33.332c0-0.64062 0.089844-1.2852 0.27344-1.9258-0.45703-0.18359 0.64453-4.2266 0.82813-4.8672 0.64062-2.9414 1.8359-5.7852 3.2109-8.3555 0.64453-1.0117 1.2891-2.1133 2.0234-3.0312 1.5586-2.1133 3.4883-4.2227 5.5078-5.8789 0.27734-0.27344 0.55078-0.45703 0.82812-0.64062 0.089844-0.09375 0.27344-0.18359 0.36719-0.36719l2.8438-1.9297c0.18359-0.089844 0.55078-0.089844 0.73437-0.27344 0.27734-0.09375 0.55078-0.27734 0.82813-0.36719 0.089843-0.09375 0.089843-0.27734 0.18359-0.27734 0-0.089844 0.089844 0 0.18359 0 0.18359-0.18359 0.45703-0.36719 0.73438-0.45703 0.18359-0.18359 0.45703-0.18359 0.64453-0.36719 0.18359 0 0.27344-0.18359 0.36719-0.18359 0.45703-0.18359 0.91797-0.27734 1.2852-0.46094 0.36719-0.089844 0.82422-0.18359 1.1914-0.36719 0.18359 0 0.27734-0.27344 0.46094-0.27344 0.089843-0.09375 0.27344-0.09375 0.45703-0.09375 0.09375-0.089843 0.27734 0 0.36719 0 0.18359-0.089843 0.36719-0.089843 0.55078-0.18359 0.18359 0 0.36719-0.18359 0.55078-0.27344 0.18359-0.09375 0.36719-0.09375 0.55078-0.09375l1.8398-0.46094c0.36719 0 0.82422 0 1.2852-0.089843 0.27344 0 0.55078-0.18359 0.82422-0.18359 0.46094-0.09375 0.82812 0 1.2852-0.09375 1.0117-0.089844 2.0195 0.18359 2.5703 1.1055 0.18359 0.27344 0.18359 0.64062 0.27734 0.91797 0.18359 1.5586 0.27734 3.1211 0.27734 4.6797 0 0.91797 0 1.8398-0.09375 2.6641-0.09375 1.7461-0.46094 3.3984-2.4805 3.6719h-0.36719c-0.18359 0.09375-0.36719 0-0.55078 0l-1.2852 0.27734c-5.3242 1.1914-10.285 4.7734-12.945 9.5508-0.18359 0.36719-0.18359 0.73438-0.36719 1.1016l-0.36719 0.64062c0 0.18359 0.18359 0.27734 0.18359 0.36719 0 0.18359-0.09375 0.36719 0.089843 0.55078 0.09375 0.18359 0.27734 0.36719 0.46094 0.46094 0.36719 0.089844 0.64062 0 1.0078 0 0.36719 0 0.82813 0.089844 1.1953 0.089844h0.089844 0.27734c0.089844-0.089844 0.18359 0.09375 0.27344 0.09375 1.7461 0 3.4922 0 5.2344-0.09375 0.91797 0 1.7461 0 2.5742-0.089844 0.73438 0 1.4688 0.18359 2.2031 0.18359h0.18359c0.64063 0 1.5586 0 2.1094 0.18359 0.09375 0.089844 0.09375 0.089844 0.18359 0.089844 0.55078 0.36719 0.91797 0.91797 1.0117 1.5625 0.089844 0.36719 0.089844 0.82422 0.089844 1.1914v2.0234 3.3945c0 0.09375-0.089844 0.18359-0.089844 0.18359 0 0.09375 0.18359 0.18359 0.18359 0.36719 0 1.0117 0 2.6641-0.91797 3.3984-0.73438 0.55078-1.4688 0.64453-2.2969 0.64453-0.55078 0-1.0078 0-1.5586-0.09375-1.6562-0.089843-3.4922 0.09375-5.1445 0.09375-1.8359 0-3.582-0.09375-5.3242-0.09375-0.36719 0-0.82812 0-1.1953 0.18359-0.27344 0.09375-0.45703 0.27734-0.55078 0.46094-0.18359 0.18359-0.27344 0.36719-0.27344 0.55078s-0.09375 0.36719 0 0.55078c0 0.27344 0.18359 0.45703 0.36719 0.73438v0.27344l0.64063 1.1016c0.27734 0.55469 0.82812 1.0117 1.1953 1.5625 0.64062 0.91797 1.375 1.5625 2.2031 2.3867 0.36719 0.27734 0.55078 0.73438 0.91797 1.1016 0.91797 0.73438 2.2969 1.3789 3.3984 2.0195 1.5586 0.82812 3.3047 1.5625 5.0508 1.9297 0.18359 0.09375 0.45703 0.09375 0.73438 0.09375 0.36719 0.089844 0.73437 0.089844 1.0078 0.18359 0.46094 0.089844 0.82812 0.18359 1.2852 0.36719 0.27734 0.089844 0.46094 0.27344 0.73438 0.55078 0.18359 0.18359 0.36719 0.27344 0.46094 0.45703 0.27344 0.46094 0.27344 0.73438 0.27344 1.0117v0.55078 0.36719c0.09375 0.73438 0.09375 1.4688 0.09375 2.2031 0 0.82812 0 1.5625-0.09375 2.3867 0 0.73438 0 1.4688-0.089844 2.2031 0 0.55078 0.089844 1.3789-0.09375 1.8359 0 0.18359-0.18359 0.36719-0.27344 0.55078l-0.27734 0.1875c-0.089843 0.089844-0.36719 0.18359-0.45703 0.18359-0.55078 0.27344-1.0117 0.36719-1.4688 0.36719-0.36719 0-0.73438 0-1.0117-0.18359-0.36719-0.09375-0.73438 0-1.1016 0-0.55078-0.09375-1.1016-0.18359-1.5586-0.36719-0.09375 0-0.27734 0.089844-0.36719 0-0.37109 0-0.64453-0.27734-1.0117-0.37109-0.18359-0.089844-0.46094 0.09375-0.73438 0-0.46094-0.089844-1.0117-0.27344-1.4688-0.45703-0.91797-0.36719-1.8359-0.82812-2.7539-1.1016-0.82813-0.27734-1.6562-0.46094-2.3906-0.82812-0.18359-0.089844-0.36719-0.27344-0.18359-0.45703-0.55078 0.45703-3.3047-1.8359-3.6719-2.1133-0.36719-0.18359-0.73438-0.27344-1.1016-0.55078-0.27344-0.27344-0.64062-0.55078-1.0078-0.82422-0.73828-0.55469-1.3789-1.3789-2.1133-2.0234-1.2852-1.1016-2.5703-2.6602-3.6719-4.0391l-0.73437-1.0078c-0.36719-0.55469-0.55078-1.1953-0.92188-1.8398-0.18359-0.27344-0.36719-0.45703-0.55078-0.73438l-0.089843-0.36719c-0.55078-0.91797-1.1953-1.9258-1.5625-2.8438-0.36719-1.1953-0.91797-2.2969-1.1914-3.3984l-0.27734-0.91797c-0.089844-0.27734 0-0.55078-0.089844-0.82812-0.09375-0.36719-0.09375-0.64062-0.09375-1.0078-0.089844-0.36719-0.36719-0.64453-0.45703-1.0117-0.09375-0.55078-0.09375-1.1016-0.18359-1.6523-0.09375-0.73438-0.09375-1.3789-0.09375-2.1133-0.089844-0.91797-0.089844-1.9258-0.089844-2.9375z"/>
</g>
</g>
<g>
<g transform="translate(616.63 114.22)">
<path d="m41.504-32.137v6.2422 6.1523c0 2.1133-0.09375 4.1328-0.09375 6.2461 0 2.0195 0.09375 4.1289 0.09375 6.1484 0 2.1133 0.089844 4.1328 0.089844 6.2461 0 0.18359-0.18359 0.36719-0.27344 0.55078-0.09375 0.36719-0.27734 0.55078-0.64453 0.64453-0.27344 0-0.55078 0.18359-0.82422 0.18359h-9.6406c-0.18359 0-0.46094-0.27734-0.73438-0.37109-0.27734 0-0.36719-0.18359-0.46094-0.45703 0-0.09375-0.089844-0.18359-0.089844-0.36719-0.09375-0.18359 0-0.27734 0-0.46094 0-2.293-0.09375-4.5898-0.09375-6.793 0-2.2969 0.09375-4.5898 0.09375-6.8867s-0.09375-4.5898-0.09375-6.7969v-0.82422c-0.089843-0.36719-0.27344-0.55078-0.73438-0.55078 0-0.09375-0.09375-0.09375-0.18359-0.09375-2.7539 0-5.5078-0.089843-8.2656-0.089843h-0.36719c-0.27344 0.089843-0.55078 0.36719-0.55078 0.64062-0.089844 0.27734 0 0.46094 0 0.64453v6.9766c0 2.3906-0.089844 4.6836-0.089844 6.9805 0 2.3867-0.09375 4.6836-0.09375 6.9766 0 0.27734 0.27734 0.46094 0.18359 0.64453-0.089844 0.45703-0.45703 0.64453-0.82422 0.73438-0.27734 0-0.55078 0.09375-0.82812 0.09375-3.2148-0.09375-6.4258-0.09375-9.5469-0.09375h-0.82812c-0.27734-0.089844-0.36719-0.46094-0.46094-0.73438 0-0.09375-0.18359-0.27734-0.18359-0.36719 0-0.18359 0.09375-0.46094 0.09375-0.64453v-6.8867c0-2.293-0.09375-4.5898-0.09375-6.793 0-2.2969 0.09375-4.5898 0.09375-6.8867s-0.18359-4.5-0.18359-6.7969c0-2.293 0.18359-4.5898 0.18359-6.8867 0-2.293-0.09375-4.4961-0.09375-6.793v-6.8867-6.793c0-2.2969 0.18359-4.5938 0.18359-6.8867 0-0.18359-0.089844-0.36719 0-0.55078 0-0.27734 0.09375-0.64453 0.36719-0.73828 0.18359 0 0.36719-0.089843 0.55469-0.089843h0.36719c1.6523 0 3.3047 0.089843 4.957 0.089843h4.957 0.55078c0.36719 0.09375 0.55078 0.36719 0.64453 0.73828v0.55078 8.1719c0 1.9258 0.18359 3.9453 0.18359 5.875 0 2.0195-0.27734 3.9492-0.27734 5.9688s0.09375 3.9492 0.09375 5.9688v0.64062c0 0.27734 0.36719 0.55078 0.64062 0.64453 0.09375 0 0.18359-0.18359 0.27734-0.18359 2.8477 0 5.6016 0.089844 8.3555 0.089844 0.089844 0 0.18359 0.09375 0.27344 0 0.37109 0 0.64453-0.36719 0.64453-0.64062 0.09375-0.27734-0.089843-0.46094-0.089843-0.73438 0-2.2031 0.089843-4.3164 0.089843-6.4297v-6.4258c0-2.2031 0.09375-4.3164 0.09375-6.4258 0-2.207-0.18359-4.3164-0.18359-6.4297 0-0.27344 0.18359-0.45703 0.27344-0.64062 0.09375-0.27734 0.18359-0.37109 0.46094-0.46094 0.089844-0.09375 0.27344-0.27734 0.45703-0.27734h0.27734c1.7422 0 3.3945 0.18359 5.0469 0.18359 1.6562 0 3.3086-0.18359 4.9609-0.18359 0.18359 0 0.36719 0.09375 0.55078 0.18359 0.36719 0 0.55078 0.18359 0.64062 0.55469 0 0.18359 0.09375 0.27344 0.18359 0.36719 0 0.27344-0.089844 0.45703-0.089844 0.64062 0 2.0195 0.089844 4.0391 0.089844 6.1523 0 2.0195-0.18359 4.0391-0.18359 6.0586v6.1523 6.0625c0 2.1094 0.09375 4.1328 0.09375 6.1523z"/>
</g>
</g>
<g>
<g transform="translate(664.2 114.22)">
<path d="m35.258 0.64453s-0.089843-0.09375-0.18359-0.09375c-0.55078 0-1.1016 0.18359-1.6523 0.18359-0.45703 0-0.91797-0.089844-1.375-0.18359-0.36719 0-0.73438-0.18359-1.1016-0.18359-0.46094-0.089844-0.82812-0.18359-1.2852-0.27344l-2.0234-0.27734c-0.64062-0.18359-1.375-0.36719-2.0195-0.64453-0.36719-0.089844-0.73438-0.27344-1.1016-0.36719-0.73438-0.27344-1.4688-0.55078-2.2031-0.91797-0.55078-0.18359-1.1953-0.45703-1.7461-0.82422-0.91797-0.46094-1.8359-1.0117-2.7539-1.5625-0.82422-0.55078-1.7422-1.1016-2.5703-1.7422l-1.3789-1.0117c-0.27344-0.18359-0.55078-0.46094-0.82422-0.73438-0.27734-0.27734-0.46094-0.55078-0.73437-0.73438-0.09375-0.09375-0.18359 0-0.27734-0.09375-0.089844 0 0.09375-0.18359 0-0.27344-0.089844-0.09375-0.36719-0.09375-0.55078-0.27734-0.27344-0.36719-0.45703-0.73437-0.82422-1.1016-0.27734-0.36719-0.73438-0.55078-1.0117-0.91797l-1.0078-1.375c-0.36719-0.46094-0.73437-0.91797-1.0117-1.3789l-1.0117-1.8359c-0.55078-0.82813-0.82422-1.6523-1.2852-2.5703-0.18359-0.36719-0.27344-0.82812-0.45703-1.2852l-0.82813-2.0234c-0.36719-1.0078-0.64062-1.9258-0.91797-2.9375-0.089844-0.45703-0.089844-1.0078-0.18359-1.5586-0.089844-0.27734-0.27344-0.64453-0.27344-1.0117-0.09375-0.18359 0.089844-0.45703 0-0.64062 0-0.18359-0.09375-0.36719-0.09375-0.55469l-0.27344-1.1016c0-0.36719 0.089844-0.64062 0-0.91797 0-0.27344 0.18359-0.55078 0.18359-0.73438 0-0.089844-0.09375-0.27344-0.09375-0.36719v-0.18359c0-0.27344-0.089844-0.55078-0.089844-0.82422v-0.18359-0.55078-1.1953c0-0.55078 0.27344-1.0117 0.27344-1.5625 0.09375-0.45703 0-1.0078 0.09375-1.4688 0-0.27344 0.18359-0.45703 0.18359-0.73437 0.089844-0.27344 0.089844-0.64063 0.18359-1.0078 0.089844-0.55078 0.45703-1.0117 0.55078-1.5625 0.18359-0.55078 0.18359-1.1914 0.36719-1.8359 0.18359-0.55078 0.64062-1.1016 0.82422-1.6523 0.27734-0.64453 0.36719-1.2852 0.64453-1.8359 0.18359-0.46094 0.55078-0.82812 0.82422-1.2852 0.46094-0.82812 0.73437-1.7461 1.2891-2.5742 0.45703-0.73438 0.91797-1.4688 1.4688-2.2031 0.36719-0.45703 0.91797-0.73438 1.2852-1.1914 0.27344-0.27734 0.45703-0.64453 0.73438-0.91797 0-0.09375-0.09375-0.18359-0.09375-0.18359 0.46094-0.46094 0.91797-0.91797 1.4688-1.2852 0.36719-0.36719 0.73438-0.82812 1.1953-1.1953 0.18359-0.18359 0.36719-0.46094 0.64453-0.64453l0.73438-0.27344c0.45703-0.36719 0.91797-0.73438 1.4688-1.1016 0.55078-0.46094 1.1914-1.0117 1.8359-1.3789l1.9258-1.1016c0.73438-0.36719 1.5625-0.64062 2.3906-0.91797 0.36719-0.18359 0.73438-0.55078 1.1016-0.64062 0.45703-0.18359 0.91797-0.27734 1.375-0.46094 1.2852-0.36719 2.5703-0.64453 3.8594-0.82813 0.27344-0.089843 0.64062-0.27344 1.0078-0.27344 0.36719-0.09375 0.73438-0.27734 1.1953-0.27734 0.27344-0.089843 0.64062 0 0.91797 0 0.18359-0.089843 0.45703 0 0.73438-0.089843h1.1016c0.089844 0 0.18359-0.18359 0.27344-0.18359h1.1016 0.18359c0.27734 0 0.64453-0.09375 0.92188 0 0.45703 0 0.91797 0.089844 1.375 0.089844h0.64453c0.27344 0.09375 0.64063 0 1.0078 0.09375 0.36719 0 0.73438 0.27344 1.1016 0.27344 0.73437 0.18359 1.3789 0.18359 2.1133 0.36719 0.27734 0.09375 0.64453 0.09375 1.0117 0.18359 0.91797 0.18359 1.8359 0.46094 2.6602 0.82812 0.46094 0.18359 0.82812 0.36719 1.1953 0.46094l1.4688 0.55078c0.55078 0.27344 1.1016 0.73438 1.6523 1.0078 0.64453 0.36719 1.3789 0.64453 2.0195 1.1016 0.36719 0.27734 0.91797 0.46094 1.3789 0.73438 0.45703 0.36719 1.0078 0.82812 1.4688 1.2852l1.0078 0.82812c0.27734 0.27344 0.55469 0.55078 0.82812 0.73438 0.36719 0.36719 0.64453 0.64453 1.0117 0.91797l0.64062 0.55078c0.18359 0.09375 0.18359 0.36719 0.36719 0.55078 0.18359 0.18359 0.55078 0.36719 0.82812 0.64453 0.18359 0.18359 0.36719 0.45703 0.55078 0.73438 0.18359 0.27344 0.27344 0.64062 0.55078 0.91797l0.82422 1.1016c0.36719 0.45703 0.73438 0.82422 1.0117 1.375l0.82422 1.1055c0.1875 0.36719 0.46094 0.82422 0.64453 1.2852 0.27734 0.45703 0.55078 0.91797 0.73438 1.375 0.27734 0.46094 0.46094 1.0117 0.64453 1.5625 0.27344 0.64062 0.45703 1.375 0.73437 2.0195 0.18359 0.73438 0.45703 1.3789 0.64063 2.0195 0.18359 0.64453 0.18359 1.2852 0.36719 1.9297 0.09375 0.45703 0.09375 0.91797 0.18359 1.375 0 0.36719 0.09375 0.82812 0.09375 1.2852 0.089843 0.18359 0.18359 0.36719 0.18359 0.55469 0 0.27344 0.089844 0.64062 0.089844 0.91797v0.089844c0 0.36719 0.09375 0.82812 0.09375 1.2852 0.089844 0.27734-0.18359 0.55078-0.18359 0.91797 0 0.36719 0.18359 0.73438 0.18359 1.1953 0 0.36719 0 0.82422-0.09375 1.1914 0 0.27734-0.089844 0.46094-0.18359 0.73438v0.64453c0 0.27734-0.089843 0.55078-0.18359 0.82812v1.0078c-0.089844 0.36719-0.27344 0.73438-0.36719 1.1953-0.18359 0.73438-0.27344 1.4688-0.45703 2.1094-0.18359 0.64453-0.46094 1.1953-0.64453 1.8359-0.089844 0.37109-0.18359 0.64453-0.27344 1.0117l-0.55078 1.1953c-0.36719 0.73438-0.64453 1.5586-1.1016 2.3867-0.36719 0.55078-0.73828 1.1016-1.1055 1.7422-0.36719 0.55078-0.64062 1.1953-1.0078 1.7461-0.36719 0.46094-0.73438 0.73438-1.0117 1.1953-0.27344 0.36719-0.45703 0.82422-0.73438 1.1914-0.27344 0.27734-0.45703 0.55078-0.64062 0.82812-0.18359 0.18359-0.46094 0.27344-0.64453 0.45703-0.45703 0.46094-0.82422 1.0117-1.2852 1.3789-0.18359 0.27344-0.55078 0.36719-0.82422 0.55078-0.18359 0.18359-0.27734 0.45703-0.37109 0.55078-0.27344 0.18359-0.55078 0.36719-0.82422 0.55078l-1.3789 1.1016c-0.64062 0.46094-1.2852 0.82812-1.9258 1.1953-0.46094 0.27344-0.82812 0.64062-1.2852 0.91797-0.18359 0.089843-0.36719 0.089843-0.55078 0.089843-0.36719 0.27734-0.55078 0.64453-0.91797 0.82813-0.46094 0.18359-1.0117 0.36719-1.4727 0.64062-0.36719 0.09375-0.82422 0.09375-1.1914 0.27734-1.0117 0.36719-2.0195 0.73438-3.1211 1.0078-0.82812 0.27734-1.7461 0.55078-2.5742 0.73828-0.64062 0.089844-1.2852 0.089844-1.8359 0.18359l-1.375 0.27344c-0.27734 0-0.55078 0.18359-0.82812 0.18359-0.27344 0.09375-0.64063 0-0.91797 0-0.45703 0.09375-0.91797-0.089844-1.3789-0.089844zm1.1953-12.672c2.3867-0.09375 4.8672-0.55078 7.2539-1.6523 2.1133-1.0117 4.0391-2.6641 5.9688-4.5 1.8359-1.9297 3.3047-4.043 4.2227-6.3359 1.0117-2.2969 1.5625-4.7773 1.6523-7.5312 0.09375-1.5586-0.089843-3.2109-0.36719-4.7734-0.36719-1.3789-0.91797-2.7539-1.5586-4.0391-0.91797-1.9297-2.1133-3.6758-3.4883-5.1445-0.73828-0.82422-1.4727-1.6523-2.2969-2.293-1.2852-1.0117-2.7539-1.8398-4.2227-2.4805-1.3789-0.64453-2.7578-1.1016-4.2266-1.3789-1.375-0.27344-2.6602-0.45703-4.0391-0.45703-1.9297 0-3.8555 0.27344-5.7852 0.82422-1.5625 0.55078-3.0312 1.2852-4.5 2.1133-1.4688 0.91797-2.7539 1.8359-3.9492 3.0312-1.375 1.375-2.6602 2.9375-3.5781 4.6836-0.73437 1.375-1.1953 2.8438-1.5625 4.4062-0.45703 1.7422-1.0078 3.4883-1.0078 5.2344 0 1.8359 0.45703 3.5781 0.91797 5.2344 0.45703 1.7422 1.0078 3.3945 1.9258 4.957 0.91797 1.6523 2.2031 3.0312 3.4883 4.3164 1.2891 1.1914 2.7578 2.293 4.4102 3.2109 1.6523 0.92187 3.3047 1.4727 5.2344 1.9297 1.6523 0.27734 3.3945 0.64453 5.5078 0.64453z"/>
</g>
</g>
<g>
<g transform="translate(734.81 114.22)">
<path d="m48.023-24.793c0-2.293 0.089843-4.6836 0.089843-6.9766 0-2.2969-0.089843-4.5938-0.089843-6.9805v-6.8867c0-0.36719 0.089843-0.73438 0.089843-1.0078 0-0.09375 0-0.18359-0.089843-0.27734 0-0.27344-0.18359-0.45703-0.18359-0.73438-0.09375-0.36719 0-0.73438-0.18359-1.1016-0.09375-0.36719-0.27734-0.64063-0.55078-1.0078-0.36719-0.55469-1.0117-1.0117-1.7461-1.1953-0.27344-0.18359-0.64062-0.36719-0.91797-0.36719-0.45703 0-0.82422 0.18359-1.1914 0.27344-0.55078 0.18359-1.1055 0.36719-1.4727 0.73438-0.45703 0.36719-0.73438 0.82812-1.0078 1.2891l-0.27734 0.82422c-0.089844 0.18359-0.36719 0.36719-0.45703 0.64453-0.09375 0.36719 0 0.82422 0 1.1914-0.09375 0.73438-0.18359 1.5625-0.18359 2.2969 0 2.2031 0.18359 4.5 0.18359 6.793 0 2.207-0.09375 4.5-0.09375 6.7031v6.7969 6.7031c0 2.293 0.09375 4.5 0.09375 6.793 0 2.2031-0.18359 4.5-0.18359 6.7031 0 0.55078 0.089844 1.1016-0.09375 1.5625-0.089843 0.55078-0.27344 0.91797-0.64062 1.2852-0.27734 0.18359-0.46094 0.36719-0.73438 0.45703-0.36719 0.09375-0.82812 0.09375-1.2852 0.09375-0.18359 0-0.36719 0-0.64453-0.09375-0.27344 0-0.55078 0.09375-0.82422 0.18359h-0.1875-3.8555-1.0078c-0.09375 0-0.18359-0.089844-0.27734 0l-0.089843-0.089844c-0.27734 0-0.55078 0.089844-0.73438 0-0.09375 0-0.09375 0.089844-0.09375 0.089844-0.36719 0-0.73437-0.089844-1.1016-0.27344-0.46094-0.18359-0.73438-0.64453-1.0117-1.1016-0.089843-0.27734-0.18359-0.55078-0.18359-0.82812-0.089844-0.27344-0.089844-0.45703-0.089844-0.73438-0.09375-0.64062 0-1.375 0-2.0195 0-2.2969 0.089844-4.5 0.089844-6.793 0-2.2031-0.089844-4.4102-0.089844-6.7031v-6.7031c0-2.2031 0.089844-4.5 0.089844-6.7031 0-2.2969-0.089844-4.5-0.089844-6.7031 0-2.2969 0.18359-4.5 0.18359-6.7969 0-0.36719-0.27734-0.73438-0.27734-1.1914-0.089844-0.27734 0-0.64453 0-1.0117v-0.36719c-0.18359-0.45703-0.45703-0.82422-0.64062-1.1914-0.18359-0.27734-0.18359-0.64453-0.46094-0.92188-0.089843-0.089843-0.27344-0.18359-0.45703-0.36719-0.36719-0.27344-0.82812-0.45703-1.3789-0.64062-0.18359 0-0.45703-0.18359-0.73438-0.09375l-0.36719 0.09375c-0.45703 0-0.73438 0.18359-1.1914 0.36719-0.37109 0.18359-0.82812 0.45703-1.1055 0.73438-0.18359 0.18359-0.36719 0.27734-0.45703 0.46094-0.46094 0.64062-0.91797 1.2852-1.1016 2.0195 0 0.36719 0.089844 0.73438 0.089844 1.0078v0.18359c-0.089844 0.55078-0.18359 1.1016-0.18359 1.6523 0 2.207 0.09375 4.3164 0.09375 6.5195s-0.09375 4.4102-0.09375 6.6133v6.5195c0 2.2031 0.09375 4.4062 0.09375 6.6094v6.5195 6.6133 1.2852 1.4688c0 0.45703-0.27734 0.82422-0.55078 1.1914-0.18359 0.36719-0.36719 0.82812-0.73438 1.0117-0.27734 0.089844-0.55078 0.18359-0.82812 0.18359-0.18359 0.089844-0.36719 0-0.64062 0-0.09375 0.089844-0.27734 0-0.36719 0.089844h-0.09375c-0.45703-0.089844-0.82422 0-1.1914 0.09375h-0.18359c-1.2891 0-2.5742-0.27734-3.8594-0.27734-0.36719 0-0.64062 0.09375-1.0078 0.18359-0.09375 0-0.18359-0.089844-0.27734-0.089844-0.089844 0-0.089844-0.09375-0.089844-0.09375-0.46094 0-0.82812 0-1.1953-0.089844-0.36719-0.09375-0.73438-0.09375-1.0117-0.36719-0.27344-0.18359-0.36719-0.36719-0.45703-0.64453-0.18359-0.36719-0.46094-0.73438-0.46094-1.1914 0-0.46094 0.09375-0.91797 0.09375-1.3789v-0.27344c-0.09375-0.82812-0.18359-1.6523-0.18359-2.4805s0.18359-1.6523 0.18359-2.4805c0-2.2031-0.18359-4.4961-0.18359-6.793v-6.8867-6.7969c0-2.293 0.089844-4.5898 0.089844-6.793v-6.8867c0.09375-1.1016-0.18359-2.2969-0.089844-3.3984 0-0.36719 0.18359-0.73438 0.18359-1.1016 0.089844-0.27344-0.09375-0.45703-0.09375-0.73438 0.09375-0.27344 0.18359-0.55078 0.18359-0.73438 0.09375-0.73438 0.36719-1.3789 0.55078-2.1133 0-0.18359 0.09375-0.36719 0.09375-0.45703 0-0.18359-0.09375-0.27734-0.09375-0.46094 0.18359-0.27344 0.37109-0.55078 0.55469-0.91797 0.089844-0.27344 0.089844-0.55078 0.18359-0.82422 0.089844-0.09375 0.18359-0.27734 0.18359-0.36719 0.45703-0.82812 1.0078-1.5625 1.5586-2.3867 0.36719-0.46094 0.73437-0.92187 1.1016-1.2891 0.36719-0.45703 0.73438-0.91797 1.1953-1.375 0.36719-0.36719 0.64063-0.73438 1.1016-1.0117 0.27344-0.27344 0.64062-0.45703 1.0078-0.73438 0.46094-0.27344 0.73828-0.64062 1.1055-0.91797 0.55078-0.27344 1.1016-0.45703 1.5586-0.73438 0.36719-0.089843 0.64453-0.27344 1.0117-0.36719 0.18359-0.089844 0.45703-0.089844 0.73438-0.18359 0.36719-0.089843 0.73438-0.089843 1.1016-0.18359 0.45703-0.089844 1.0078-0.36719 1.4688-0.46094 0.36719 0 0.64062 0.09375 1.0117 0h0.36719c0.64063-0.089844 1.375-0.18359 2.0195-0.18359 0.91797 0.09375 1.8359 0.27734 1.375 0.18359 0.46094 0.09375 1.0117 0.09375 1.4688 0.1875 0.36719 0.089844 0.64453 0.27344 0.91797 0.36719 0.36719 0.18359 0.82813 0.18359 1.1953 0.27344 0.36719 0.18359 0.82812 0.27734 1.1953 0.46094 0.45703 0.18359 0.91797 0.36719 1.375 0.64063 0.36719 0.18359 0.55078 0.64453 1.0117 0.82812 0.27344 0.089844 0.64062 0.089844 0.91797 0.18359 0.27344 0 0.55078 0 0.73438-0.09375 0.45703-0.089844 0.82422-0.45703 1.1914-0.64062 0.64453-0.36719 1.1953-0.64453 1.8398-0.91797 0.36719-0.09375 0.73438-0.36719 1.1914-0.46094 0.27734-0.089844 0.55078-0.089844 0.82812-0.18359 0.45703-0.089843 0.91797-0.36719 1.375-0.45703 0.46094-0.1875 0.91797-0.09375 1.3789-0.1875 1.9297-0.18359 6.8867-0.27344 3.8555-0.089844 0.64453 0.089844 1.2852 0.27734 1.9297 0.36719l1.0078 0.18359c0.55078 0.09375 1.1055 0.36719 1.6562 0.64453 0.64062 0.27344 1.375 0.55078 2.0195 0.91797l0.82422 0.45703c0.36719 0.27734 0.64453 0.55078 1.0117 0.73438l0.55078 0.55078c0.089844 0 0 0.09375 0 0.09375 0.45703 0.36719 0.91797 0.64062 1.2852 1.0078 0.55078 0.64453 1.1016 1.2852 1.5625 1.9297 0.36719 0.46094 0.55078 1.0117 0.73438 1.5625 0.27344 0.45703 0.64062 0.82422 0.82422 1.2852 0.27734 0.45703 0.36719 1.0078 0.55078 1.5586 0.27734 0.64453 0.46094 1.1953 0.55078 1.7461 0.18359 0.55078 0.27734 1.0078 0.36719 1.4688 0.09375 0.46094-0.089844 0.82812-0.089844 1.1953 0 0.27344 0.27344 0.55078 0.27344 0.82422 0 0.09375-0.089844 0.18359-0.089844 0.27734l0.089844 0.55078c0.09375 0-0.089844 1.5586-0.089844 1.4688 0 0.55078 0.18359 1.0078 0.18359 1.5586 0 0.46094-0.18359 0.91797-0.18359 1.4727 0 2.1094 0.18359 4.3125 0.18359 6.4258v6.5195 6.4258 6.5195c0 2.1133-0.18359 4.3164-0.18359 6.4297 0 2.1094 0.089844 4.3164 0.089844 6.4258 0 0.55078 0 1.1016-0.089844 1.5625-0.18359 0.55078-0.46094 0.91797-0.82812 1.2852-0.18359 0.18359-0.45703 0.27344-0.73438 0.36719-0.36719 0.18359-0.82422 0.089844-1.1914 0.089844-0.09375 0-0.18359 0.18359-0.18359 0.18359h-0.18359c-0.36719-0.089844-0.73437 0-1.1055 0.09375-0.089844 0-0.18359-0.18359-0.18359-0.18359-1.2852 0-2.5703 0.089844-3.9453 0h-0.91797c-0.09375 0-0.18359 0.089844-0.27734 0.089844-0.089844 0-0.089844 0.09375-0.089844 0.09375-0.27734-0.09375-0.55078-0.18359-0.82812-0.18359 0 0 0-0.09375-0.089844-0.09375-0.27734 0-0.64453 0-1.0117-0.089844-0.36719-0.18359-0.64453-0.55078-0.82812-0.91797-0.18359-0.36719-0.36719-0.64453-0.36719-1.0117 0-0.27344 0.09375-0.55078 0-0.73438-0.089843-0.73438 0-1.4688 0-2.1094v-6.6133-6.5195-6.5195z"/>
</g>
</g>
<g>
<g transform="translate(801.83 114.22)">
<path d="m2.2969-33.332c0-0.64062 0.089844-1.2852 0.27344-1.9258-0.45703-0.18359 0.64453-4.2266 0.82813-4.8672 0.64062-2.9414 1.8359-5.7852 3.2109-8.3555 0.64453-1.0117 1.2891-2.1133 2.0234-3.0312 1.5586-2.1133 3.4883-4.2227 5.5078-5.8789 0.27734-0.27344 0.55078-0.45703 0.82812-0.64062 0.089844-0.09375 0.27344-0.18359 0.36719-0.36719l2.8438-1.9297c0.18359-0.089844 0.55078-0.089844 0.73437-0.27344 0.27734-0.09375 0.55078-0.27734 0.82813-0.36719 0.089843-0.09375 0.089843-0.27734 0.18359-0.27734 0-0.089844 0.089844 0 0.18359 0 0.18359-0.18359 0.45703-0.36719 0.73438-0.45703 0.18359-0.18359 0.45703-0.18359 0.64453-0.36719 0.18359 0 0.27344-0.18359 0.36719-0.18359 0.45703-0.18359 0.91797-0.27734 1.2852-0.46094 0.36719-0.089844 0.82422-0.18359 1.1914-0.36719 0.18359 0 0.27734-0.27344 0.46094-0.27344 0.089843-0.09375 0.27344-0.09375 0.45703-0.09375 0.09375-0.089843 0.27734 0 0.36719 0 0.18359-0.089843 0.36719-0.089843 0.55078-0.18359 0.18359 0 0.36719-0.18359 0.55078-0.27344 0.18359-0.09375 0.36719-0.09375 0.55078-0.09375l1.8398-0.46094c0.36719 0 0.82422 0 1.2852-0.089843 0.27344 0 0.55078-0.18359 0.82422-0.18359 0.46094-0.09375 0.82812 0 1.2852-0.09375 1.0117-0.089844 2.0195 0.18359 2.5703 1.1055 0.18359 0.27344 0.18359 0.64062 0.27734 0.91797 0.18359 1.5586 0.27734 3.1211 0.27734 4.6797 0 0.91797 0 1.8398-0.09375 2.6641-0.09375 1.7461-0.46094 3.3984-2.4805 3.6719h-0.36719c-0.18359 0.09375-0.36719 0-0.55078 0l-1.2852 0.27734c-5.3242 1.1914-10.285 4.7734-12.945 9.5508-0.18359 0.36719-0.18359 0.73438-0.36719 1.1016l-0.36719 0.64062c0 0.18359 0.18359 0.27734 0.18359 0.36719 0 0.18359-0.09375 0.36719 0.089843 0.55078 0.09375 0.18359 0.27734 0.36719 0.46094 0.46094 0.36719 0.089844 0.64062 0 1.0078 0 0.36719 0 0.82813 0.089844 1.1953 0.089844h0.089844 0.27734c0.089844-0.089844 0.18359 0.09375 0.27344 0.09375 1.7461 0 3.4922 0 5.2344-0.09375 0.91797 0 1.7461 0 2.5742-0.089844 0.73438 0 1.4688 0.18359 2.2031 0.18359h0.18359c0.64063 0 1.5586 0 2.1094 0.18359 0.09375 0.089844 0.09375 0.089844 0.18359 0.089844 0.55078 0.36719 0.91797 0.91797 1.0117 1.5625 0.089844 0.36719 0.089844 0.82422 0.089844 1.1914v2.0234 3.3945c0 0.09375-0.089844 0.18359-0.089844 0.18359 0 0.09375 0.18359 0.18359 0.18359 0.36719 0 1.0117 0 2.6641-0.91797 3.3984-0.73438 0.55078-1.4688 0.64453-2.2969 0.64453-0.55078 0-1.0078 0-1.5586-0.09375-1.6562-0.089843-3.4922 0.09375-5.1445 0.09375-1.8359 0-3.582-0.09375-5.3242-0.09375-0.36719 0-0.82812 0-1.1953 0.18359-0.27344 0.09375-0.45703 0.27734-0.55078 0.46094-0.18359 0.18359-0.27344 0.36719-0.27344 0.55078s-0.09375 0.36719 0 0.55078c0 0.27344 0.18359 0.45703 0.36719 0.73438v0.27344l0.64063 1.1016c0.27734 0.55469 0.82812 1.0117 1.1953 1.5625 0.64062 0.91797 1.375 1.5625 2.2031 2.3867 0.36719 0.27734 0.55078 0.73438 0.91797 1.1016 0.91797 0.73438 2.2969 1.3789 3.3984 2.0195 1.5586 0.82812 3.3047 1.5625 5.0508 1.9297 0.18359 0.09375 0.45703 0.09375 0.73438 0.09375 0.36719 0.089844 0.73437 0.089844 1.0078 0.18359 0.46094 0.089844 0.82812 0.18359 1.2852 0.36719 0.27734 0.089844 0.46094 0.27344 0.73438 0.55078 0.18359 0.18359 0.36719 0.27344 0.46094 0.45703 0.27344 0.46094 0.27344 0.73438 0.27344 1.0117v0.55078 0.36719c0.09375 0.73438 0.09375 1.4688 0.09375 2.2031 0 0.82812 0 1.5625-0.09375 2.3867 0 0.73438 0 1.4688-0.089844 2.2031 0 0.55078 0.089844 1.3789-0.09375 1.8359 0 0.18359-0.18359 0.36719-0.27344 0.55078l-0.27734 0.1875c-0.089843 0.089844-0.36719 0.18359-0.45703 0.18359-0.55078 0.27344-1.0117 0.36719-1.4688 0.36719-0.36719 0-0.73438 0-1.0117-0.18359-0.36719-0.09375-0.73438 0-1.1016 0-0.55078-0.09375-1.1016-0.18359-1.5586-0.36719-0.09375 0-0.27734 0.089844-0.36719 0-0.37109 0-0.64453-0.27734-1.0117-0.37109-0.18359-0.089844-0.46094 0.09375-0.73438 0-0.46094-0.089844-1.0117-0.27344-1.4688-0.45703-0.91797-0.36719-1.8359-0.82812-2.7539-1.1016-0.82813-0.27734-1.6562-0.46094-2.3906-0.82812-0.18359-0.089844-0.36719-0.27344-0.18359-0.45703-0.55078 0.45703-3.3047-1.8359-3.6719-2.1133-0.36719-0.18359-0.73438-0.27344-1.1016-0.55078-0.27344-0.27344-0.64062-0.55078-1.0078-0.82422-0.73828-0.55469-1.3789-1.3789-2.1133-2.0234-1.2852-1.1016-2.5703-2.6602-3.6719-4.0391l-0.73437-1.0078c-0.36719-0.55469-0.55078-1.1953-0.92188-1.8398-0.18359-0.27344-0.36719-0.45703-0.55078-0.73438l-0.089843-0.36719c-0.55078-0.91797-1.1953-1.9258-1.5625-2.8438-0.36719-1.1953-0.91797-2.2969-1.1914-3.3984l-0.27734-0.91797c-0.089844-0.27734 0-0.55078-0.089844-0.82812-0.09375-0.36719-0.09375-0.64062-0.09375-1.0078-0.089844-0.36719-0.36719-0.64453-0.45703-1.0117-0.09375-0.55078-0.09375-1.1016-0.18359-1.6523-0.09375-0.73438-0.09375-1.3789-0.09375-2.1133-0.089844-0.91797-0.089844-1.9258-0.089844-2.9375z"/>
</g>
</g>
<g clip-path="url(#c)">
<path d="m664.06 83.613c1.8359 19.672 19.305 34.133 39.016 32.297 19.707-1.832 34.195-19.262 32.359-38.934-1.8359-19.672-19.301-34.129-39.012-32.297-19.711 1.832-34.199 19.266-32.363 38.934z" fill-rule="evenodd"/>
</g>
<path d="m696.99 50.77c-16.34 1.5195-28.348 15.969-26.828 32.277 1.5234 16.305 16.004 28.293 32.344 26.773 16.34-1.5195 28.348-15.969 26.828-32.277-1.5234-16.305-16.004-28.293-32.344-26.773zm1.3359-0.011719c0.054687-0.054687 0.5625-0.097656 1.2734-0.11328l3.1133 0.14844c0.67969 0.078125 1.1758 0.16406 1.2891 0.22266 0.18359 0.16797-1.0352 0.19922-2.7305 0.078125-1.7305-0.035156-3.0273-0.1875-2.9453-0.33594zm2.0664 57.973c1.9102-0.074219 3.2383 0.17188 3.0234 0.52734-0.20703 0.25781-1.6367 0.50391-3.2344 0.5625-1.5977-0.019531-2.9727-0.23437-3.0703-0.48437-0.11328-0.35156 1.3438-0.62891 3.2812-0.60547zm-26.656-17.23c0.84375 0.54297 2.0898 2.4453 2.6797 4.1016 0.62891 1.5078 0.35938 2.0664-0.52344 1.3477-0.74609-0.69141-1.7852-2.2891-2.3828-3.6641-0.53516-1.457-0.47656-2.3281 0.22656-1.7852zm15.828 4.8477c2.6016 0.29688 4.8984 2.2656 5.0234 4.25 0.16406 1.7539-1.6289 2.7891-3.9219 2.4375-2.1953-0.4375-4.2578-2.0781-4.6992-3.7695-0.42188-1.9141 1.1367-3.2812 3.5977-2.918zm25.277-0.41406c2.0586-0.40625 3.1406 0.82031 2.543 2.6367-0.62109 1.6172-2.5586 3.2695-4.4258 3.7891-2.0352 0.46875-3.4375-0.43359-3.0312-2.1445 0.39453-1.9336 2.6523-3.9102 4.9141-4.2812zm-37.266-23.137c1.6953-0.25781 3.0195 1.6328 2.8242 4.2891-0.10156 2.6719-1.668 4.793-3.375 4.6953-1.4688-0.097656-2.4961-2.0859-2.3945-4.4023 0.20703-2.2969 1.4766-4.3242 2.9453-4.582zm24.07-1.1367c2.9844 0.10156 5.3906 2.5586 5.3984 5.5312-0.03125 3.0195-2.5 5.4453-5.5508 5.4102-3.0781-0.050781-5.5234-2.5859-5.4609-5.6406 0.085938-3.0039 2.6016-5.3555 5.6133-5.3008zm-23.598-11.25c0.91406-0.71094 1.1523-0.42969 0.41016 0.76562-0.71875 1.332-2.1211 3.043-3 3.6602-0.75391 0.62109-0.75 0.042968-0.0625-1.1953 0.70703-1.125 1.8516-2.5195 2.6523-3.2305zm14.23-5.7422c2.0977-0.27734 3.6797 0.44141 3.4766 1.7031-0.21484 1.4844-2.4258 2.9922-4.8672 3.25-2.3242 0.33984-3.6914-0.65234-3.168-2.0977 0.54297-1.2578 2.5273-2.4883 4.5586-2.8555zm20.316 1.4102c1.7266 0.59375 3.543 2.0117 4.1602 3.2695 0.59766 1.4336-0.375 2.2461-2.3281 1.6719-2.1133-0.51172-4.2188-2.2305-4.5898-3.707-0.38672-1.2695 0.89844-1.7734 2.7578-1.2344zm14.23 35.141c0.44141-0.48828 0.32031 0.28906-0.22656 1.6328-0.59375 1.2578-1.4453 2.7188-1.9688 3.3672-0.61719 0.65234-0.64062 0.14062 0.03125-1.2812 0.625-1.5312 1.625-3.2539 2.1641-3.7188zm-2.9805-17.266c1.207 0.30078 2.2227 2.2969 2.3438 4.4688 0.019532 2.1953-0.875 4-2.0938 4.0469-1.4375 0.054688-2.7109-1.9766-2.7227-4.5547-0.11328-2.5273 1.043-4.293 2.4727-3.9609z" fill="#fff700" fill-rule="evenodd"/>
<path d="m732.66 75.191c-0.039062-0.23828-0.082031-0.47266-0.125-0.71094 0.042969 0.23828 0.085938 0.47266 0.125 0.71094z" fill="#fff700" fill-rule="evenodd"/>
</svg>
